%TF.GenerationSoftware,KiCad,Pcbnew,9.0.1*%
%TF.CreationDate,2025-04-27T05:08:37+02:00*%
%TF.ProjectId,testing-split-kb-3w-guard-pours,74657374-696e-4672-9d73-706c69742d6b,rev?*%
%TF.SameCoordinates,Original*%
%TF.FileFunction,Drillmap*%
%TF.FilePolarity,Positive*%
%FSLAX45Y45*%
G04 Gerber Fmt 4.5, Leading zero omitted, Abs format (unit mm)*
G04 Created by KiCad (PCBNEW 9.0.1) date 2025-04-27 05:08:37*
%MOMM*%
%LPD*%
G01*
G04 APERTURE LIST*
%ADD10C,0.050000*%
%ADD11C,0.200000*%
%ADD12C,0.100000*%
G04 APERTURE END LIST*
D10*
X7980000Y-3450000D02*
X7980000Y-10360000D01*
X7980000Y-3450000D02*
G75*
G02*
X8180000Y-3250000I200000J0D01*
G01*
X17550000Y-3250000D02*
X17920000Y-3250000D01*
X8180000Y-10560000D02*
G75*
G02*
X7980000Y-10360000I0J200000D01*
G01*
X8180000Y-3250000D02*
X17550000Y-3250000D01*
X18120000Y-3450000D02*
X18120000Y-10360000D01*
X18120000Y-10360000D02*
G75*
G02*
X17920000Y-10560000I-200000J0D01*
G01*
X8180000Y-10560000D02*
X17920000Y-10560000D01*
X17920000Y-3250000D02*
G75*
G02*
X18120000Y-3450000I0J-200000D01*
G01*
D11*
D12*
X9075000Y-3890000D02*
X9115000Y-3930000D01*
X9115000Y-3890000D02*
X9075000Y-3930000D01*
X9290000Y-8780000D02*
X9330000Y-8820000D01*
X9330000Y-8780000D02*
X9290000Y-8820000D01*
X9305000Y-9875000D02*
X9345000Y-9915000D01*
X9345000Y-9875000D02*
X9305000Y-9915000D01*
X9800000Y-5035000D02*
X9840000Y-5075000D01*
X9840000Y-5035000D02*
X9800000Y-5075000D01*
X9815000Y-6840000D02*
X9855000Y-6880000D01*
X9855000Y-6840000D02*
X9815000Y-6880000D01*
X9880000Y-9920000D02*
X9920000Y-9960000D01*
X9920000Y-9920000D02*
X9880000Y-9960000D01*
X9930000Y-4460000D02*
X9970000Y-4500000D01*
X9970000Y-4460000D02*
X9930000Y-4500000D01*
X10875000Y-3910000D02*
X10915000Y-3950000D01*
X10915000Y-3910000D02*
X10875000Y-3950000D01*
X11195000Y-8785000D02*
X11235000Y-8825000D01*
X11235000Y-8785000D02*
X11195000Y-8825000D01*
X11375000Y-10205000D02*
X11415000Y-10245000D01*
X11415000Y-10205000D02*
X11375000Y-10245000D01*
X11670000Y-6870000D02*
X11710000Y-6910000D01*
X11710000Y-6870000D02*
X11670000Y-6910000D01*
X11700000Y-5035000D02*
X11740000Y-5075000D01*
X11740000Y-5035000D02*
X11700000Y-5075000D01*
X11830000Y-4460000D02*
X11870000Y-4500000D01*
X11870000Y-4460000D02*
X11830000Y-4500000D01*
X11910000Y-9900000D02*
X11950000Y-9940000D01*
X11950000Y-9900000D02*
X11910000Y-9940000D01*
X12900000Y-3905000D02*
X12940000Y-3945000D01*
X12940000Y-3905000D02*
X12900000Y-3945000D01*
X13090000Y-8765000D02*
X13130000Y-8805000D01*
X13130000Y-8765000D02*
X13090000Y-8805000D01*
X13095000Y-10240000D02*
X13135000Y-10280000D01*
X13135000Y-10240000D02*
X13095000Y-10280000D01*
X13560000Y-6890000D02*
X13600000Y-6930000D01*
X13600000Y-6890000D02*
X13560000Y-6930000D01*
X13600000Y-5020000D02*
X13640000Y-5060000D01*
X13640000Y-5020000D02*
X13600000Y-5060000D01*
X13650000Y-9900000D02*
X13690000Y-9940000D01*
X13690000Y-9900000D02*
X13650000Y-9940000D01*
X13730000Y-4460000D02*
X13770000Y-4500000D01*
X13770000Y-4460000D02*
X13730000Y-4500000D01*
X14990000Y-8765000D02*
X15030000Y-8805000D01*
X15030000Y-8765000D02*
X14990000Y-8805000D01*
X15165000Y-3905000D02*
X15205000Y-3945000D01*
X15205000Y-3905000D02*
X15165000Y-3945000D01*
X15485000Y-6900000D02*
X15525000Y-6940000D01*
X15525000Y-6900000D02*
X15485000Y-6940000D01*
X15500000Y-5025000D02*
X15540000Y-5065000D01*
X15540000Y-5025000D02*
X15500000Y-5065000D01*
X15590000Y-9900000D02*
X15630000Y-9940000D01*
X15630000Y-9900000D02*
X15590000Y-9940000D01*
X15630000Y-4460000D02*
X15670000Y-4500000D01*
X15670000Y-4460000D02*
X15630000Y-4500000D01*
X15770000Y-10245000D02*
X15810000Y-10285000D01*
X15810000Y-10245000D02*
X15770000Y-10285000D01*
X16930000Y-9900000D02*
X16970000Y-9940000D01*
X16970000Y-9900000D02*
X16930000Y-9940000D01*
X17320000Y-3830000D02*
X17360000Y-3870000D01*
X17360000Y-3830000D02*
X17320000Y-3870000D01*
X17770000Y-8750000D02*
X17810000Y-8790000D01*
X17810000Y-8750000D02*
X17770000Y-8790000D01*
X17890000Y-4965000D02*
X17930000Y-5005000D01*
X17930000Y-4965000D02*
X17890000Y-5005000D01*
X9229000Y-3565000D02*
G75*
G02*
X9149000Y-3565000I-40000J0D01*
G01*
X9149000Y-3565000D02*
G75*
G02*
X9229000Y-3565000I40000J0D01*
G01*
X9289000Y-5960000D02*
G75*
G02*
X9209000Y-5960000I-40000J0D01*
G01*
X9209000Y-5960000D02*
G75*
G02*
X9289000Y-5960000I40000J0D01*
G01*
X9319000Y-7880000D02*
G75*
G02*
X9239000Y-7880000I-40000J0D01*
G01*
X9239000Y-7880000D02*
G75*
G02*
X9319000Y-7880000I40000J0D01*
G01*
X9991000Y-3565000D02*
G75*
G02*
X9911000Y-3565000I-40000J0D01*
G01*
X9911000Y-3565000D02*
G75*
G02*
X9991000Y-3565000I40000J0D01*
G01*
X10051000Y-5960000D02*
G75*
G02*
X9971000Y-5960000I-40000J0D01*
G01*
X9971000Y-5960000D02*
G75*
G02*
X10051000Y-5960000I40000J0D01*
G01*
X10081000Y-7880000D02*
G75*
G02*
X10001000Y-7880000I-40000J0D01*
G01*
X10001000Y-7880000D02*
G75*
G02*
X10081000Y-7880000I40000J0D01*
G01*
X10578000Y-3710000D02*
G75*
G02*
X10498000Y-3710000I-40000J0D01*
G01*
X10498000Y-3710000D02*
G75*
G02*
X10578000Y-3710000I40000J0D01*
G01*
X11219000Y-5960000D02*
G75*
G02*
X11139000Y-5960000I-40000J0D01*
G01*
X11139000Y-5960000D02*
G75*
G02*
X11219000Y-5960000I40000J0D01*
G01*
X11229000Y-7890000D02*
G75*
G02*
X11149000Y-7890000I-40000J0D01*
G01*
X11149000Y-7890000D02*
G75*
G02*
X11229000Y-7890000I40000J0D01*
G01*
X11340000Y-3710000D02*
G75*
G02*
X11260000Y-3710000I-40000J0D01*
G01*
X11260000Y-3710000D02*
G75*
G02*
X11340000Y-3710000I40000J0D01*
G01*
X11981000Y-5960000D02*
G75*
G02*
X11901000Y-5960000I-40000J0D01*
G01*
X11901000Y-5960000D02*
G75*
G02*
X11981000Y-5960000I40000J0D01*
G01*
X11991000Y-7890000D02*
G75*
G02*
X11911000Y-7890000I-40000J0D01*
G01*
X11911000Y-7890000D02*
G75*
G02*
X11991000Y-7890000I40000J0D01*
G01*
X12438000Y-3710000D02*
G75*
G02*
X12358000Y-3710000I-40000J0D01*
G01*
X12358000Y-3710000D02*
G75*
G02*
X12438000Y-3710000I40000J0D01*
G01*
X13108000Y-5960000D02*
G75*
G02*
X13028000Y-5960000I-40000J0D01*
G01*
X13028000Y-5960000D02*
G75*
G02*
X13108000Y-5960000I40000J0D01*
G01*
X13119000Y-7860000D02*
G75*
G02*
X13039000Y-7860000I-40000J0D01*
G01*
X13039000Y-7860000D02*
G75*
G02*
X13119000Y-7860000I40000J0D01*
G01*
X13200000Y-3710000D02*
G75*
G02*
X13120000Y-3710000I-40000J0D01*
G01*
X13120000Y-3710000D02*
G75*
G02*
X13200000Y-3710000I40000J0D01*
G01*
X13870000Y-5960000D02*
G75*
G02*
X13790000Y-5960000I-40000J0D01*
G01*
X13790000Y-5960000D02*
G75*
G02*
X13870000Y-5960000I40000J0D01*
G01*
X13881000Y-7860000D02*
G75*
G02*
X13801000Y-7860000I-40000J0D01*
G01*
X13801000Y-7860000D02*
G75*
G02*
X13881000Y-7860000I40000J0D01*
G01*
X14358000Y-3720000D02*
G75*
G02*
X14278000Y-3720000I-40000J0D01*
G01*
X14278000Y-3720000D02*
G75*
G02*
X14358000Y-3720000I40000J0D01*
G01*
X15019000Y-5950000D02*
G75*
G02*
X14939000Y-5950000I-40000J0D01*
G01*
X14939000Y-5950000D02*
G75*
G02*
X15019000Y-5950000I40000J0D01*
G01*
X15019000Y-7860000D02*
G75*
G02*
X14939000Y-7860000I-40000J0D01*
G01*
X14939000Y-7860000D02*
G75*
G02*
X15019000Y-7860000I40000J0D01*
G01*
X15120000Y-3720000D02*
G75*
G02*
X15040000Y-3720000I-40000J0D01*
G01*
X15040000Y-3720000D02*
G75*
G02*
X15120000Y-3720000I40000J0D01*
G01*
X15781000Y-5950000D02*
G75*
G02*
X15701000Y-5950000I-40000J0D01*
G01*
X15701000Y-5950000D02*
G75*
G02*
X15781000Y-5950000I40000J0D01*
G01*
X15781000Y-7860000D02*
G75*
G02*
X15701000Y-7860000I-40000J0D01*
G01*
X15701000Y-7860000D02*
G75*
G02*
X15781000Y-7860000I40000J0D01*
G01*
X16278000Y-3730000D02*
G75*
G02*
X16198000Y-3730000I-40000J0D01*
G01*
X16198000Y-3730000D02*
G75*
G02*
X16278000Y-3730000I40000J0D01*
G01*
X16389000Y-7860000D02*
G75*
G02*
X16309000Y-7860000I-40000J0D01*
G01*
X16309000Y-7860000D02*
G75*
G02*
X16389000Y-7860000I40000J0D01*
G01*
X16508000Y-5945000D02*
G75*
G02*
X16428000Y-5945000I-40000J0D01*
G01*
X16428000Y-5945000D02*
G75*
G02*
X16508000Y-5945000I40000J0D01*
G01*
X17040000Y-3730000D02*
G75*
G02*
X16960000Y-3730000I-40000J0D01*
G01*
X16960000Y-3730000D02*
G75*
G02*
X17040000Y-3730000I40000J0D01*
G01*
X17151000Y-7860000D02*
G75*
G02*
X17071000Y-7860000I-40000J0D01*
G01*
X17071000Y-7860000D02*
G75*
G02*
X17151000Y-7860000I40000J0D01*
G01*
X17270000Y-5945000D02*
G75*
G02*
X17190000Y-5945000I-40000J0D01*
G01*
X17190000Y-5945000D02*
G75*
G02*
X17270000Y-5945000I40000J0D01*
G01*
X17790000Y-5736000D02*
X17790000Y-5836000D01*
X17740000Y-5786000D02*
X17840000Y-5786000D01*
X17790000Y-5990000D02*
X17790000Y-6090000D01*
X17740000Y-6040000D02*
X17840000Y-6040000D01*
X17790000Y-6244000D02*
X17790000Y-6344000D01*
X17740000Y-6294000D02*
X17840000Y-6294000D01*
X17790000Y-6498000D02*
X17790000Y-6598000D01*
X17740000Y-6548000D02*
X17840000Y-6548000D01*
X17790000Y-6752000D02*
X17790000Y-6852000D01*
X17740000Y-6802000D02*
X17840000Y-6802000D01*
X17790000Y-7006000D02*
X17790000Y-7106000D01*
X17740000Y-7056000D02*
X17840000Y-7056000D01*
X17790000Y-7260000D02*
X17790000Y-7360000D01*
X17740000Y-7310000D02*
X17840000Y-7310000D01*
X17790000Y-7514000D02*
X17790000Y-7614000D01*
X17740000Y-7564000D02*
X17840000Y-7564000D01*
X17790000Y-7768000D02*
X17790000Y-7868000D01*
X17740000Y-7818000D02*
X17840000Y-7818000D01*
D11*
X8500711Y-3770711D02*
X8500711Y-3629289D01*
X8359289Y-3629289D01*
X8359289Y-3770711D01*
X8500711Y-3770711D01*
X8500711Y-10180711D02*
X8500711Y-10039289D01*
X8359289Y-10039289D01*
X8359289Y-10180711D01*
X8500711Y-10180711D01*
X17730711Y-3770711D02*
X17730711Y-3629289D01*
X17589289Y-3629289D01*
X17589289Y-3770711D01*
X17730711Y-3770711D01*
X17735711Y-10180711D02*
X17735711Y-10039289D01*
X17594289Y-10039289D01*
X17594289Y-10180711D01*
X17735711Y-10180711D01*
X8238277Y-10873984D02*
X8238277Y-10673984D01*
X8238277Y-10673984D02*
X8285896Y-10673984D01*
X8285896Y-10673984D02*
X8314467Y-10683508D01*
X8314467Y-10683508D02*
X8333515Y-10702555D01*
X8333515Y-10702555D02*
X8343039Y-10721603D01*
X8343039Y-10721603D02*
X8352562Y-10759698D01*
X8352562Y-10759698D02*
X8352562Y-10788270D01*
X8352562Y-10788270D02*
X8343039Y-10826365D01*
X8343039Y-10826365D02*
X8333515Y-10845412D01*
X8333515Y-10845412D02*
X8314467Y-10864460D01*
X8314467Y-10864460D02*
X8285896Y-10873984D01*
X8285896Y-10873984D02*
X8238277Y-10873984D01*
X8438277Y-10873984D02*
X8438277Y-10740650D01*
X8438277Y-10778746D02*
X8447801Y-10759698D01*
X8447801Y-10759698D02*
X8457324Y-10750174D01*
X8457324Y-10750174D02*
X8476372Y-10740650D01*
X8476372Y-10740650D02*
X8495420Y-10740650D01*
X8562086Y-10873984D02*
X8562086Y-10740650D01*
X8562086Y-10673984D02*
X8552563Y-10683508D01*
X8552563Y-10683508D02*
X8562086Y-10693031D01*
X8562086Y-10693031D02*
X8571610Y-10683508D01*
X8571610Y-10683508D02*
X8562086Y-10673984D01*
X8562086Y-10673984D02*
X8562086Y-10693031D01*
X8685896Y-10873984D02*
X8666848Y-10864460D01*
X8666848Y-10864460D02*
X8657324Y-10845412D01*
X8657324Y-10845412D02*
X8657324Y-10673984D01*
X8790658Y-10873984D02*
X8771610Y-10864460D01*
X8771610Y-10864460D02*
X8762086Y-10845412D01*
X8762086Y-10845412D02*
X8762086Y-10673984D01*
X9019229Y-10873984D02*
X9019229Y-10673984D01*
X9019229Y-10673984D02*
X9085896Y-10816841D01*
X9085896Y-10816841D02*
X9152563Y-10673984D01*
X9152563Y-10673984D02*
X9152563Y-10873984D01*
X9333515Y-10873984D02*
X9333515Y-10769222D01*
X9333515Y-10769222D02*
X9323991Y-10750174D01*
X9323991Y-10750174D02*
X9304944Y-10740650D01*
X9304944Y-10740650D02*
X9266848Y-10740650D01*
X9266848Y-10740650D02*
X9247801Y-10750174D01*
X9333515Y-10864460D02*
X9314467Y-10873984D01*
X9314467Y-10873984D02*
X9266848Y-10873984D01*
X9266848Y-10873984D02*
X9247801Y-10864460D01*
X9247801Y-10864460D02*
X9238277Y-10845412D01*
X9238277Y-10845412D02*
X9238277Y-10826365D01*
X9238277Y-10826365D02*
X9247801Y-10807317D01*
X9247801Y-10807317D02*
X9266848Y-10797793D01*
X9266848Y-10797793D02*
X9314467Y-10797793D01*
X9314467Y-10797793D02*
X9333515Y-10788270D01*
X9428753Y-10740650D02*
X9428753Y-10940650D01*
X9428753Y-10750174D02*
X9447801Y-10740650D01*
X9447801Y-10740650D02*
X9485896Y-10740650D01*
X9485896Y-10740650D02*
X9504944Y-10750174D01*
X9504944Y-10750174D02*
X9514467Y-10759698D01*
X9514467Y-10759698D02*
X9523991Y-10778746D01*
X9523991Y-10778746D02*
X9523991Y-10835889D01*
X9523991Y-10835889D02*
X9514467Y-10854936D01*
X9514467Y-10854936D02*
X9504944Y-10864460D01*
X9504944Y-10864460D02*
X9485896Y-10873984D01*
X9485896Y-10873984D02*
X9447801Y-10873984D01*
X9447801Y-10873984D02*
X9428753Y-10864460D01*
X9609705Y-10854936D02*
X9619229Y-10864460D01*
X9619229Y-10864460D02*
X9609705Y-10873984D01*
X9609705Y-10873984D02*
X9600182Y-10864460D01*
X9600182Y-10864460D02*
X9609705Y-10854936D01*
X9609705Y-10854936D02*
X9609705Y-10873984D01*
X9609705Y-10750174D02*
X9619229Y-10759698D01*
X9619229Y-10759698D02*
X9609705Y-10769222D01*
X9609705Y-10769222D02*
X9600182Y-10759698D01*
X9600182Y-10759698D02*
X9609705Y-10750174D01*
X9609705Y-10750174D02*
X9609705Y-10769222D01*
D12*
X7937500Y-11182500D02*
X7977500Y-11222500D01*
X7977500Y-11182500D02*
X7937500Y-11222500D01*
D11*
X8276372Y-11093984D02*
X8295420Y-11093984D01*
X8295420Y-11093984D02*
X8314467Y-11103508D01*
X8314467Y-11103508D02*
X8323991Y-11113031D01*
X8323991Y-11113031D02*
X8333515Y-11132079D01*
X8333515Y-11132079D02*
X8343039Y-11170174D01*
X8343039Y-11170174D02*
X8343039Y-11217793D01*
X8343039Y-11217793D02*
X8333515Y-11255888D01*
X8333515Y-11255888D02*
X8323991Y-11274936D01*
X8323991Y-11274936D02*
X8314467Y-11284460D01*
X8314467Y-11284460D02*
X8295420Y-11293984D01*
X8295420Y-11293984D02*
X8276372Y-11293984D01*
X8276372Y-11293984D02*
X8257324Y-11284460D01*
X8257324Y-11284460D02*
X8247801Y-11274936D01*
X8247801Y-11274936D02*
X8238277Y-11255888D01*
X8238277Y-11255888D02*
X8228753Y-11217793D01*
X8228753Y-11217793D02*
X8228753Y-11170174D01*
X8228753Y-11170174D02*
X8238277Y-11132079D01*
X8238277Y-11132079D02*
X8247801Y-11113031D01*
X8247801Y-11113031D02*
X8257324Y-11103508D01*
X8257324Y-11103508D02*
X8276372Y-11093984D01*
X8428753Y-11274936D02*
X8438277Y-11284460D01*
X8438277Y-11284460D02*
X8428753Y-11293984D01*
X8428753Y-11293984D02*
X8419229Y-11284460D01*
X8419229Y-11284460D02*
X8428753Y-11274936D01*
X8428753Y-11274936D02*
X8428753Y-11293984D01*
X8609705Y-11160650D02*
X8609705Y-11293984D01*
X8562086Y-11084460D02*
X8514467Y-11227317D01*
X8514467Y-11227317D02*
X8638277Y-11227317D01*
X8752563Y-11093984D02*
X8771610Y-11093984D01*
X8771610Y-11093984D02*
X8790658Y-11103508D01*
X8790658Y-11103508D02*
X8800182Y-11113031D01*
X8800182Y-11113031D02*
X8809705Y-11132079D01*
X8809705Y-11132079D02*
X8819229Y-11170174D01*
X8819229Y-11170174D02*
X8819229Y-11217793D01*
X8819229Y-11217793D02*
X8809705Y-11255888D01*
X8809705Y-11255888D02*
X8800182Y-11274936D01*
X8800182Y-11274936D02*
X8790658Y-11284460D01*
X8790658Y-11284460D02*
X8771610Y-11293984D01*
X8771610Y-11293984D02*
X8752563Y-11293984D01*
X8752563Y-11293984D02*
X8733515Y-11284460D01*
X8733515Y-11284460D02*
X8723991Y-11274936D01*
X8723991Y-11274936D02*
X8714467Y-11255888D01*
X8714467Y-11255888D02*
X8704944Y-11217793D01*
X8704944Y-11217793D02*
X8704944Y-11170174D01*
X8704944Y-11170174D02*
X8714467Y-11132079D01*
X8714467Y-11132079D02*
X8723991Y-11113031D01*
X8723991Y-11113031D02*
X8733515Y-11103508D01*
X8733515Y-11103508D02*
X8752563Y-11093984D01*
X8943039Y-11093984D02*
X8962086Y-11093984D01*
X8962086Y-11093984D02*
X8981134Y-11103508D01*
X8981134Y-11103508D02*
X8990658Y-11113031D01*
X8990658Y-11113031D02*
X9000182Y-11132079D01*
X9000182Y-11132079D02*
X9009705Y-11170174D01*
X9009705Y-11170174D02*
X9009705Y-11217793D01*
X9009705Y-11217793D02*
X9000182Y-11255888D01*
X9000182Y-11255888D02*
X8990658Y-11274936D01*
X8990658Y-11274936D02*
X8981134Y-11284460D01*
X8981134Y-11284460D02*
X8962086Y-11293984D01*
X8962086Y-11293984D02*
X8943039Y-11293984D01*
X8943039Y-11293984D02*
X8923991Y-11284460D01*
X8923991Y-11284460D02*
X8914467Y-11274936D01*
X8914467Y-11274936D02*
X8904944Y-11255888D01*
X8904944Y-11255888D02*
X8895420Y-11217793D01*
X8895420Y-11217793D02*
X8895420Y-11170174D01*
X8895420Y-11170174D02*
X8904944Y-11132079D01*
X8904944Y-11132079D02*
X8914467Y-11113031D01*
X8914467Y-11113031D02*
X8923991Y-11103508D01*
X8923991Y-11103508D02*
X8943039Y-11093984D01*
X9095420Y-11293984D02*
X9095420Y-11160650D01*
X9095420Y-11179698D02*
X9104944Y-11170174D01*
X9104944Y-11170174D02*
X9123991Y-11160650D01*
X9123991Y-11160650D02*
X9152563Y-11160650D01*
X9152563Y-11160650D02*
X9171610Y-11170174D01*
X9171610Y-11170174D02*
X9181134Y-11189222D01*
X9181134Y-11189222D02*
X9181134Y-11293984D01*
X9181134Y-11189222D02*
X9190658Y-11170174D01*
X9190658Y-11170174D02*
X9209705Y-11160650D01*
X9209705Y-11160650D02*
X9238277Y-11160650D01*
X9238277Y-11160650D02*
X9257325Y-11170174D01*
X9257325Y-11170174D02*
X9266848Y-11189222D01*
X9266848Y-11189222D02*
X9266848Y-11293984D01*
X9362086Y-11293984D02*
X9362086Y-11160650D01*
X9362086Y-11179698D02*
X9371610Y-11170174D01*
X9371610Y-11170174D02*
X9390658Y-11160650D01*
X9390658Y-11160650D02*
X9419229Y-11160650D01*
X9419229Y-11160650D02*
X9438277Y-11170174D01*
X9438277Y-11170174D02*
X9447801Y-11189222D01*
X9447801Y-11189222D02*
X9447801Y-11293984D01*
X9447801Y-11189222D02*
X9457325Y-11170174D01*
X9457325Y-11170174D02*
X9476372Y-11160650D01*
X9476372Y-11160650D02*
X9504944Y-11160650D01*
X9504944Y-11160650D02*
X9523991Y-11170174D01*
X9523991Y-11170174D02*
X9533515Y-11189222D01*
X9533515Y-11189222D02*
X9533515Y-11293984D01*
X9923991Y-11084460D02*
X9752563Y-11341603D01*
X10181134Y-11093984D02*
X10200182Y-11093984D01*
X10200182Y-11093984D02*
X10219229Y-11103508D01*
X10219229Y-11103508D02*
X10228753Y-11113031D01*
X10228753Y-11113031D02*
X10238277Y-11132079D01*
X10238277Y-11132079D02*
X10247801Y-11170174D01*
X10247801Y-11170174D02*
X10247801Y-11217793D01*
X10247801Y-11217793D02*
X10238277Y-11255888D01*
X10238277Y-11255888D02*
X10228753Y-11274936D01*
X10228753Y-11274936D02*
X10219229Y-11284460D01*
X10219229Y-11284460D02*
X10200182Y-11293984D01*
X10200182Y-11293984D02*
X10181134Y-11293984D01*
X10181134Y-11293984D02*
X10162087Y-11284460D01*
X10162087Y-11284460D02*
X10152563Y-11274936D01*
X10152563Y-11274936D02*
X10143039Y-11255888D01*
X10143039Y-11255888D02*
X10133515Y-11217793D01*
X10133515Y-11217793D02*
X10133515Y-11170174D01*
X10133515Y-11170174D02*
X10143039Y-11132079D01*
X10143039Y-11132079D02*
X10152563Y-11113031D01*
X10152563Y-11113031D02*
X10162087Y-11103508D01*
X10162087Y-11103508D02*
X10181134Y-11093984D01*
X10333515Y-11274936D02*
X10343039Y-11284460D01*
X10343039Y-11284460D02*
X10333515Y-11293984D01*
X10333515Y-11293984D02*
X10323991Y-11284460D01*
X10323991Y-11284460D02*
X10333515Y-11274936D01*
X10333515Y-11274936D02*
X10333515Y-11293984D01*
X10466848Y-11093984D02*
X10485896Y-11093984D01*
X10485896Y-11093984D02*
X10504944Y-11103508D01*
X10504944Y-11103508D02*
X10514468Y-11113031D01*
X10514468Y-11113031D02*
X10523991Y-11132079D01*
X10523991Y-11132079D02*
X10533515Y-11170174D01*
X10533515Y-11170174D02*
X10533515Y-11217793D01*
X10533515Y-11217793D02*
X10523991Y-11255888D01*
X10523991Y-11255888D02*
X10514468Y-11274936D01*
X10514468Y-11274936D02*
X10504944Y-11284460D01*
X10504944Y-11284460D02*
X10485896Y-11293984D01*
X10485896Y-11293984D02*
X10466848Y-11293984D01*
X10466848Y-11293984D02*
X10447801Y-11284460D01*
X10447801Y-11284460D02*
X10438277Y-11274936D01*
X10438277Y-11274936D02*
X10428753Y-11255888D01*
X10428753Y-11255888D02*
X10419229Y-11217793D01*
X10419229Y-11217793D02*
X10419229Y-11170174D01*
X10419229Y-11170174D02*
X10428753Y-11132079D01*
X10428753Y-11132079D02*
X10438277Y-11113031D01*
X10438277Y-11113031D02*
X10447801Y-11103508D01*
X10447801Y-11103508D02*
X10466848Y-11093984D01*
X10723991Y-11293984D02*
X10609706Y-11293984D01*
X10666848Y-11293984D02*
X10666848Y-11093984D01*
X10666848Y-11093984D02*
X10647801Y-11122555D01*
X10647801Y-11122555D02*
X10628753Y-11141603D01*
X10628753Y-11141603D02*
X10609706Y-11151127D01*
X10904944Y-11093984D02*
X10809706Y-11093984D01*
X10809706Y-11093984D02*
X10800182Y-11189222D01*
X10800182Y-11189222D02*
X10809706Y-11179698D01*
X10809706Y-11179698D02*
X10828753Y-11170174D01*
X10828753Y-11170174D02*
X10876372Y-11170174D01*
X10876372Y-11170174D02*
X10895420Y-11179698D01*
X10895420Y-11179698D02*
X10904944Y-11189222D01*
X10904944Y-11189222D02*
X10914468Y-11208269D01*
X10914468Y-11208269D02*
X10914468Y-11255888D01*
X10914468Y-11255888D02*
X10904944Y-11274936D01*
X10904944Y-11274936D02*
X10895420Y-11284460D01*
X10895420Y-11284460D02*
X10876372Y-11293984D01*
X10876372Y-11293984D02*
X10828753Y-11293984D01*
X10828753Y-11293984D02*
X10809706Y-11284460D01*
X10809706Y-11284460D02*
X10800182Y-11274936D01*
X10981134Y-11093984D02*
X11114468Y-11093984D01*
X11114468Y-11093984D02*
X11028753Y-11293984D01*
X11181134Y-11093984D02*
X11181134Y-11132079D01*
X11257325Y-11093984D02*
X11257325Y-11132079D01*
X11552563Y-11370174D02*
X11543039Y-11360650D01*
X11543039Y-11360650D02*
X11523991Y-11332079D01*
X11523991Y-11332079D02*
X11514468Y-11313031D01*
X11514468Y-11313031D02*
X11504944Y-11284460D01*
X11504944Y-11284460D02*
X11495420Y-11236841D01*
X11495420Y-11236841D02*
X11495420Y-11198746D01*
X11495420Y-11198746D02*
X11504944Y-11151127D01*
X11504944Y-11151127D02*
X11514468Y-11122555D01*
X11514468Y-11122555D02*
X11523991Y-11103508D01*
X11523991Y-11103508D02*
X11543039Y-11074936D01*
X11543039Y-11074936D02*
X11552563Y-11065412D01*
X11609706Y-11093984D02*
X11733515Y-11093984D01*
X11733515Y-11093984D02*
X11666848Y-11170174D01*
X11666848Y-11170174D02*
X11695420Y-11170174D01*
X11695420Y-11170174D02*
X11714468Y-11179698D01*
X11714468Y-11179698D02*
X11723991Y-11189222D01*
X11723991Y-11189222D02*
X11733515Y-11208269D01*
X11733515Y-11208269D02*
X11733515Y-11255888D01*
X11733515Y-11255888D02*
X11723991Y-11274936D01*
X11723991Y-11274936D02*
X11714468Y-11284460D01*
X11714468Y-11284460D02*
X11695420Y-11293984D01*
X11695420Y-11293984D02*
X11638277Y-11293984D01*
X11638277Y-11293984D02*
X11619229Y-11284460D01*
X11619229Y-11284460D02*
X11609706Y-11274936D01*
X11809706Y-11113031D02*
X11819229Y-11103508D01*
X11819229Y-11103508D02*
X11838277Y-11093984D01*
X11838277Y-11093984D02*
X11885896Y-11093984D01*
X11885896Y-11093984D02*
X11904944Y-11103508D01*
X11904944Y-11103508D02*
X11914468Y-11113031D01*
X11914468Y-11113031D02*
X11923991Y-11132079D01*
X11923991Y-11132079D02*
X11923991Y-11151127D01*
X11923991Y-11151127D02*
X11914468Y-11179698D01*
X11914468Y-11179698D02*
X11800182Y-11293984D01*
X11800182Y-11293984D02*
X11923991Y-11293984D01*
X12162087Y-11293984D02*
X12162087Y-11093984D01*
X12247801Y-11293984D02*
X12247801Y-11189222D01*
X12247801Y-11189222D02*
X12238277Y-11170174D01*
X12238277Y-11170174D02*
X12219230Y-11160650D01*
X12219230Y-11160650D02*
X12190658Y-11160650D01*
X12190658Y-11160650D02*
X12171610Y-11170174D01*
X12171610Y-11170174D02*
X12162087Y-11179698D01*
X12371610Y-11293984D02*
X12352563Y-11284460D01*
X12352563Y-11284460D02*
X12343039Y-11274936D01*
X12343039Y-11274936D02*
X12333515Y-11255888D01*
X12333515Y-11255888D02*
X12333515Y-11198746D01*
X12333515Y-11198746D02*
X12343039Y-11179698D01*
X12343039Y-11179698D02*
X12352563Y-11170174D01*
X12352563Y-11170174D02*
X12371610Y-11160650D01*
X12371610Y-11160650D02*
X12400182Y-11160650D01*
X12400182Y-11160650D02*
X12419230Y-11170174D01*
X12419230Y-11170174D02*
X12428753Y-11179698D01*
X12428753Y-11179698D02*
X12438277Y-11198746D01*
X12438277Y-11198746D02*
X12438277Y-11255888D01*
X12438277Y-11255888D02*
X12428753Y-11274936D01*
X12428753Y-11274936D02*
X12419230Y-11284460D01*
X12419230Y-11284460D02*
X12400182Y-11293984D01*
X12400182Y-11293984D02*
X12371610Y-11293984D01*
X12552563Y-11293984D02*
X12533515Y-11284460D01*
X12533515Y-11284460D02*
X12523991Y-11265412D01*
X12523991Y-11265412D02*
X12523991Y-11093984D01*
X12704944Y-11284460D02*
X12685896Y-11293984D01*
X12685896Y-11293984D02*
X12647801Y-11293984D01*
X12647801Y-11293984D02*
X12628753Y-11284460D01*
X12628753Y-11284460D02*
X12619230Y-11265412D01*
X12619230Y-11265412D02*
X12619230Y-11189222D01*
X12619230Y-11189222D02*
X12628753Y-11170174D01*
X12628753Y-11170174D02*
X12647801Y-11160650D01*
X12647801Y-11160650D02*
X12685896Y-11160650D01*
X12685896Y-11160650D02*
X12704944Y-11170174D01*
X12704944Y-11170174D02*
X12714468Y-11189222D01*
X12714468Y-11189222D02*
X12714468Y-11208269D01*
X12714468Y-11208269D02*
X12619230Y-11227317D01*
X12790658Y-11284460D02*
X12809706Y-11293984D01*
X12809706Y-11293984D02*
X12847801Y-11293984D01*
X12847801Y-11293984D02*
X12866849Y-11284460D01*
X12866849Y-11284460D02*
X12876372Y-11265412D01*
X12876372Y-11265412D02*
X12876372Y-11255888D01*
X12876372Y-11255888D02*
X12866849Y-11236841D01*
X12866849Y-11236841D02*
X12847801Y-11227317D01*
X12847801Y-11227317D02*
X12819230Y-11227317D01*
X12819230Y-11227317D02*
X12800182Y-11217793D01*
X12800182Y-11217793D02*
X12790658Y-11198746D01*
X12790658Y-11198746D02*
X12790658Y-11189222D01*
X12790658Y-11189222D02*
X12800182Y-11170174D01*
X12800182Y-11170174D02*
X12819230Y-11160650D01*
X12819230Y-11160650D02*
X12847801Y-11160650D01*
X12847801Y-11160650D02*
X12866849Y-11170174D01*
X12943039Y-11370174D02*
X12952563Y-11360650D01*
X12952563Y-11360650D02*
X12971611Y-11332079D01*
X12971611Y-11332079D02*
X12981134Y-11313031D01*
X12981134Y-11313031D02*
X12990658Y-11284460D01*
X12990658Y-11284460D02*
X13000182Y-11236841D01*
X13000182Y-11236841D02*
X13000182Y-11198746D01*
X13000182Y-11198746D02*
X12990658Y-11151127D01*
X12990658Y-11151127D02*
X12981134Y-11122555D01*
X12981134Y-11122555D02*
X12971611Y-11103508D01*
X12971611Y-11103508D02*
X12952563Y-11074936D01*
X12952563Y-11074936D02*
X12943039Y-11065412D01*
D12*
X7977500Y-11466500D02*
G75*
G02*
X7897500Y-11466500I-40000J0D01*
G01*
X7897500Y-11466500D02*
G75*
G02*
X7977500Y-11466500I40000J0D01*
G01*
D11*
X8276372Y-11357984D02*
X8295420Y-11357984D01*
X8295420Y-11357984D02*
X8314467Y-11367508D01*
X8314467Y-11367508D02*
X8323991Y-11377031D01*
X8323991Y-11377031D02*
X8333515Y-11396079D01*
X8333515Y-11396079D02*
X8343039Y-11434174D01*
X8343039Y-11434174D02*
X8343039Y-11481793D01*
X8343039Y-11481793D02*
X8333515Y-11519888D01*
X8333515Y-11519888D02*
X8323991Y-11538936D01*
X8323991Y-11538936D02*
X8314467Y-11548460D01*
X8314467Y-11548460D02*
X8295420Y-11557984D01*
X8295420Y-11557984D02*
X8276372Y-11557984D01*
X8276372Y-11557984D02*
X8257324Y-11548460D01*
X8257324Y-11548460D02*
X8247801Y-11538936D01*
X8247801Y-11538936D02*
X8238277Y-11519888D01*
X8238277Y-11519888D02*
X8228753Y-11481793D01*
X8228753Y-11481793D02*
X8228753Y-11434174D01*
X8228753Y-11434174D02*
X8238277Y-11396079D01*
X8238277Y-11396079D02*
X8247801Y-11377031D01*
X8247801Y-11377031D02*
X8257324Y-11367508D01*
X8257324Y-11367508D02*
X8276372Y-11357984D01*
X8428753Y-11538936D02*
X8438277Y-11548460D01*
X8438277Y-11548460D02*
X8428753Y-11557984D01*
X8428753Y-11557984D02*
X8419229Y-11548460D01*
X8419229Y-11548460D02*
X8428753Y-11538936D01*
X8428753Y-11538936D02*
X8428753Y-11557984D01*
X8552563Y-11443698D02*
X8533515Y-11434174D01*
X8533515Y-11434174D02*
X8523991Y-11424650D01*
X8523991Y-11424650D02*
X8514467Y-11405603D01*
X8514467Y-11405603D02*
X8514467Y-11396079D01*
X8514467Y-11396079D02*
X8523991Y-11377031D01*
X8523991Y-11377031D02*
X8533515Y-11367508D01*
X8533515Y-11367508D02*
X8552563Y-11357984D01*
X8552563Y-11357984D02*
X8590658Y-11357984D01*
X8590658Y-11357984D02*
X8609705Y-11367508D01*
X8609705Y-11367508D02*
X8619229Y-11377031D01*
X8619229Y-11377031D02*
X8628753Y-11396079D01*
X8628753Y-11396079D02*
X8628753Y-11405603D01*
X8628753Y-11405603D02*
X8619229Y-11424650D01*
X8619229Y-11424650D02*
X8609705Y-11434174D01*
X8609705Y-11434174D02*
X8590658Y-11443698D01*
X8590658Y-11443698D02*
X8552563Y-11443698D01*
X8552563Y-11443698D02*
X8533515Y-11453222D01*
X8533515Y-11453222D02*
X8523991Y-11462746D01*
X8523991Y-11462746D02*
X8514467Y-11481793D01*
X8514467Y-11481793D02*
X8514467Y-11519888D01*
X8514467Y-11519888D02*
X8523991Y-11538936D01*
X8523991Y-11538936D02*
X8533515Y-11548460D01*
X8533515Y-11548460D02*
X8552563Y-11557984D01*
X8552563Y-11557984D02*
X8590658Y-11557984D01*
X8590658Y-11557984D02*
X8609705Y-11548460D01*
X8609705Y-11548460D02*
X8619229Y-11538936D01*
X8619229Y-11538936D02*
X8628753Y-11519888D01*
X8628753Y-11519888D02*
X8628753Y-11481793D01*
X8628753Y-11481793D02*
X8619229Y-11462746D01*
X8619229Y-11462746D02*
X8609705Y-11453222D01*
X8609705Y-11453222D02*
X8590658Y-11443698D01*
X8752563Y-11357984D02*
X8771610Y-11357984D01*
X8771610Y-11357984D02*
X8790658Y-11367508D01*
X8790658Y-11367508D02*
X8800182Y-11377031D01*
X8800182Y-11377031D02*
X8809705Y-11396079D01*
X8809705Y-11396079D02*
X8819229Y-11434174D01*
X8819229Y-11434174D02*
X8819229Y-11481793D01*
X8819229Y-11481793D02*
X8809705Y-11519888D01*
X8809705Y-11519888D02*
X8800182Y-11538936D01*
X8800182Y-11538936D02*
X8790658Y-11548460D01*
X8790658Y-11548460D02*
X8771610Y-11557984D01*
X8771610Y-11557984D02*
X8752563Y-11557984D01*
X8752563Y-11557984D02*
X8733515Y-11548460D01*
X8733515Y-11548460D02*
X8723991Y-11538936D01*
X8723991Y-11538936D02*
X8714467Y-11519888D01*
X8714467Y-11519888D02*
X8704944Y-11481793D01*
X8704944Y-11481793D02*
X8704944Y-11434174D01*
X8704944Y-11434174D02*
X8714467Y-11396079D01*
X8714467Y-11396079D02*
X8723991Y-11377031D01*
X8723991Y-11377031D02*
X8733515Y-11367508D01*
X8733515Y-11367508D02*
X8752563Y-11357984D01*
X8943039Y-11357984D02*
X8962086Y-11357984D01*
X8962086Y-11357984D02*
X8981134Y-11367508D01*
X8981134Y-11367508D02*
X8990658Y-11377031D01*
X8990658Y-11377031D02*
X9000182Y-11396079D01*
X9000182Y-11396079D02*
X9009705Y-11434174D01*
X9009705Y-11434174D02*
X9009705Y-11481793D01*
X9009705Y-11481793D02*
X9000182Y-11519888D01*
X9000182Y-11519888D02*
X8990658Y-11538936D01*
X8990658Y-11538936D02*
X8981134Y-11548460D01*
X8981134Y-11548460D02*
X8962086Y-11557984D01*
X8962086Y-11557984D02*
X8943039Y-11557984D01*
X8943039Y-11557984D02*
X8923991Y-11548460D01*
X8923991Y-11548460D02*
X8914467Y-11538936D01*
X8914467Y-11538936D02*
X8904944Y-11519888D01*
X8904944Y-11519888D02*
X8895420Y-11481793D01*
X8895420Y-11481793D02*
X8895420Y-11434174D01*
X8895420Y-11434174D02*
X8904944Y-11396079D01*
X8904944Y-11396079D02*
X8914467Y-11377031D01*
X8914467Y-11377031D02*
X8923991Y-11367508D01*
X8923991Y-11367508D02*
X8943039Y-11357984D01*
X9095420Y-11557984D02*
X9095420Y-11424650D01*
X9095420Y-11443698D02*
X9104944Y-11434174D01*
X9104944Y-11434174D02*
X9123991Y-11424650D01*
X9123991Y-11424650D02*
X9152563Y-11424650D01*
X9152563Y-11424650D02*
X9171610Y-11434174D01*
X9171610Y-11434174D02*
X9181134Y-11453222D01*
X9181134Y-11453222D02*
X9181134Y-11557984D01*
X9181134Y-11453222D02*
X9190658Y-11434174D01*
X9190658Y-11434174D02*
X9209705Y-11424650D01*
X9209705Y-11424650D02*
X9238277Y-11424650D01*
X9238277Y-11424650D02*
X9257325Y-11434174D01*
X9257325Y-11434174D02*
X9266848Y-11453222D01*
X9266848Y-11453222D02*
X9266848Y-11557984D01*
X9362086Y-11557984D02*
X9362086Y-11424650D01*
X9362086Y-11443698D02*
X9371610Y-11434174D01*
X9371610Y-11434174D02*
X9390658Y-11424650D01*
X9390658Y-11424650D02*
X9419229Y-11424650D01*
X9419229Y-11424650D02*
X9438277Y-11434174D01*
X9438277Y-11434174D02*
X9447801Y-11453222D01*
X9447801Y-11453222D02*
X9447801Y-11557984D01*
X9447801Y-11453222D02*
X9457325Y-11434174D01*
X9457325Y-11434174D02*
X9476372Y-11424650D01*
X9476372Y-11424650D02*
X9504944Y-11424650D01*
X9504944Y-11424650D02*
X9523991Y-11434174D01*
X9523991Y-11434174D02*
X9533515Y-11453222D01*
X9533515Y-11453222D02*
X9533515Y-11557984D01*
X9923991Y-11348460D02*
X9752563Y-11605603D01*
X10181134Y-11357984D02*
X10200182Y-11357984D01*
X10200182Y-11357984D02*
X10219229Y-11367508D01*
X10219229Y-11367508D02*
X10228753Y-11377031D01*
X10228753Y-11377031D02*
X10238277Y-11396079D01*
X10238277Y-11396079D02*
X10247801Y-11434174D01*
X10247801Y-11434174D02*
X10247801Y-11481793D01*
X10247801Y-11481793D02*
X10238277Y-11519888D01*
X10238277Y-11519888D02*
X10228753Y-11538936D01*
X10228753Y-11538936D02*
X10219229Y-11548460D01*
X10219229Y-11548460D02*
X10200182Y-11557984D01*
X10200182Y-11557984D02*
X10181134Y-11557984D01*
X10181134Y-11557984D02*
X10162087Y-11548460D01*
X10162087Y-11548460D02*
X10152563Y-11538936D01*
X10152563Y-11538936D02*
X10143039Y-11519888D01*
X10143039Y-11519888D02*
X10133515Y-11481793D01*
X10133515Y-11481793D02*
X10133515Y-11434174D01*
X10133515Y-11434174D02*
X10143039Y-11396079D01*
X10143039Y-11396079D02*
X10152563Y-11377031D01*
X10152563Y-11377031D02*
X10162087Y-11367508D01*
X10162087Y-11367508D02*
X10181134Y-11357984D01*
X10333515Y-11538936D02*
X10343039Y-11548460D01*
X10343039Y-11548460D02*
X10333515Y-11557984D01*
X10333515Y-11557984D02*
X10323991Y-11548460D01*
X10323991Y-11548460D02*
X10333515Y-11538936D01*
X10333515Y-11538936D02*
X10333515Y-11557984D01*
X10466848Y-11357984D02*
X10485896Y-11357984D01*
X10485896Y-11357984D02*
X10504944Y-11367508D01*
X10504944Y-11367508D02*
X10514468Y-11377031D01*
X10514468Y-11377031D02*
X10523991Y-11396079D01*
X10523991Y-11396079D02*
X10533515Y-11434174D01*
X10533515Y-11434174D02*
X10533515Y-11481793D01*
X10533515Y-11481793D02*
X10523991Y-11519888D01*
X10523991Y-11519888D02*
X10514468Y-11538936D01*
X10514468Y-11538936D02*
X10504944Y-11548460D01*
X10504944Y-11548460D02*
X10485896Y-11557984D01*
X10485896Y-11557984D02*
X10466848Y-11557984D01*
X10466848Y-11557984D02*
X10447801Y-11548460D01*
X10447801Y-11548460D02*
X10438277Y-11538936D01*
X10438277Y-11538936D02*
X10428753Y-11519888D01*
X10428753Y-11519888D02*
X10419229Y-11481793D01*
X10419229Y-11481793D02*
X10419229Y-11434174D01*
X10419229Y-11434174D02*
X10428753Y-11396079D01*
X10428753Y-11396079D02*
X10438277Y-11377031D01*
X10438277Y-11377031D02*
X10447801Y-11367508D01*
X10447801Y-11367508D02*
X10466848Y-11357984D01*
X10600182Y-11357984D02*
X10723991Y-11357984D01*
X10723991Y-11357984D02*
X10657325Y-11434174D01*
X10657325Y-11434174D02*
X10685896Y-11434174D01*
X10685896Y-11434174D02*
X10704944Y-11443698D01*
X10704944Y-11443698D02*
X10714468Y-11453222D01*
X10714468Y-11453222D02*
X10723991Y-11472269D01*
X10723991Y-11472269D02*
X10723991Y-11519888D01*
X10723991Y-11519888D02*
X10714468Y-11538936D01*
X10714468Y-11538936D02*
X10704944Y-11548460D01*
X10704944Y-11548460D02*
X10685896Y-11557984D01*
X10685896Y-11557984D02*
X10628753Y-11557984D01*
X10628753Y-11557984D02*
X10609706Y-11548460D01*
X10609706Y-11548460D02*
X10600182Y-11538936D01*
X10914468Y-11557984D02*
X10800182Y-11557984D01*
X10857325Y-11557984D02*
X10857325Y-11357984D01*
X10857325Y-11357984D02*
X10838277Y-11386555D01*
X10838277Y-11386555D02*
X10819229Y-11405603D01*
X10819229Y-11405603D02*
X10800182Y-11415127D01*
X11095420Y-11357984D02*
X11000182Y-11357984D01*
X11000182Y-11357984D02*
X10990658Y-11453222D01*
X10990658Y-11453222D02*
X11000182Y-11443698D01*
X11000182Y-11443698D02*
X11019229Y-11434174D01*
X11019229Y-11434174D02*
X11066849Y-11434174D01*
X11066849Y-11434174D02*
X11085896Y-11443698D01*
X11085896Y-11443698D02*
X11095420Y-11453222D01*
X11095420Y-11453222D02*
X11104944Y-11472269D01*
X11104944Y-11472269D02*
X11104944Y-11519888D01*
X11104944Y-11519888D02*
X11095420Y-11538936D01*
X11095420Y-11538936D02*
X11085896Y-11548460D01*
X11085896Y-11548460D02*
X11066849Y-11557984D01*
X11066849Y-11557984D02*
X11019229Y-11557984D01*
X11019229Y-11557984D02*
X11000182Y-11548460D01*
X11000182Y-11548460D02*
X10990658Y-11538936D01*
X11181134Y-11357984D02*
X11181134Y-11396079D01*
X11257325Y-11357984D02*
X11257325Y-11396079D01*
X11552563Y-11634174D02*
X11543039Y-11624650D01*
X11543039Y-11624650D02*
X11523991Y-11596079D01*
X11523991Y-11596079D02*
X11514468Y-11577031D01*
X11514468Y-11577031D02*
X11504944Y-11548460D01*
X11504944Y-11548460D02*
X11495420Y-11500841D01*
X11495420Y-11500841D02*
X11495420Y-11462746D01*
X11495420Y-11462746D02*
X11504944Y-11415127D01*
X11504944Y-11415127D02*
X11514468Y-11386555D01*
X11514468Y-11386555D02*
X11523991Y-11367508D01*
X11523991Y-11367508D02*
X11543039Y-11338936D01*
X11543039Y-11338936D02*
X11552563Y-11329412D01*
X11609706Y-11357984D02*
X11733515Y-11357984D01*
X11733515Y-11357984D02*
X11666848Y-11434174D01*
X11666848Y-11434174D02*
X11695420Y-11434174D01*
X11695420Y-11434174D02*
X11714468Y-11443698D01*
X11714468Y-11443698D02*
X11723991Y-11453222D01*
X11723991Y-11453222D02*
X11733515Y-11472269D01*
X11733515Y-11472269D02*
X11733515Y-11519888D01*
X11733515Y-11519888D02*
X11723991Y-11538936D01*
X11723991Y-11538936D02*
X11714468Y-11548460D01*
X11714468Y-11548460D02*
X11695420Y-11557984D01*
X11695420Y-11557984D02*
X11638277Y-11557984D01*
X11638277Y-11557984D02*
X11619229Y-11548460D01*
X11619229Y-11548460D02*
X11609706Y-11538936D01*
X11857325Y-11357984D02*
X11876372Y-11357984D01*
X11876372Y-11357984D02*
X11895420Y-11367508D01*
X11895420Y-11367508D02*
X11904944Y-11377031D01*
X11904944Y-11377031D02*
X11914468Y-11396079D01*
X11914468Y-11396079D02*
X11923991Y-11434174D01*
X11923991Y-11434174D02*
X11923991Y-11481793D01*
X11923991Y-11481793D02*
X11914468Y-11519888D01*
X11914468Y-11519888D02*
X11904944Y-11538936D01*
X11904944Y-11538936D02*
X11895420Y-11548460D01*
X11895420Y-11548460D02*
X11876372Y-11557984D01*
X11876372Y-11557984D02*
X11857325Y-11557984D01*
X11857325Y-11557984D02*
X11838277Y-11548460D01*
X11838277Y-11548460D02*
X11828753Y-11538936D01*
X11828753Y-11538936D02*
X11819229Y-11519888D01*
X11819229Y-11519888D02*
X11809706Y-11481793D01*
X11809706Y-11481793D02*
X11809706Y-11434174D01*
X11809706Y-11434174D02*
X11819229Y-11396079D01*
X11819229Y-11396079D02*
X11828753Y-11377031D01*
X11828753Y-11377031D02*
X11838277Y-11367508D01*
X11838277Y-11367508D02*
X11857325Y-11357984D01*
X12162087Y-11557984D02*
X12162087Y-11357984D01*
X12247801Y-11557984D02*
X12247801Y-11453222D01*
X12247801Y-11453222D02*
X12238277Y-11434174D01*
X12238277Y-11434174D02*
X12219230Y-11424650D01*
X12219230Y-11424650D02*
X12190658Y-11424650D01*
X12190658Y-11424650D02*
X12171610Y-11434174D01*
X12171610Y-11434174D02*
X12162087Y-11443698D01*
X12371610Y-11557984D02*
X12352563Y-11548460D01*
X12352563Y-11548460D02*
X12343039Y-11538936D01*
X12343039Y-11538936D02*
X12333515Y-11519888D01*
X12333515Y-11519888D02*
X12333515Y-11462746D01*
X12333515Y-11462746D02*
X12343039Y-11443698D01*
X12343039Y-11443698D02*
X12352563Y-11434174D01*
X12352563Y-11434174D02*
X12371610Y-11424650D01*
X12371610Y-11424650D02*
X12400182Y-11424650D01*
X12400182Y-11424650D02*
X12419230Y-11434174D01*
X12419230Y-11434174D02*
X12428753Y-11443698D01*
X12428753Y-11443698D02*
X12438277Y-11462746D01*
X12438277Y-11462746D02*
X12438277Y-11519888D01*
X12438277Y-11519888D02*
X12428753Y-11538936D01*
X12428753Y-11538936D02*
X12419230Y-11548460D01*
X12419230Y-11548460D02*
X12400182Y-11557984D01*
X12400182Y-11557984D02*
X12371610Y-11557984D01*
X12552563Y-11557984D02*
X12533515Y-11548460D01*
X12533515Y-11548460D02*
X12523991Y-11529412D01*
X12523991Y-11529412D02*
X12523991Y-11357984D01*
X12704944Y-11548460D02*
X12685896Y-11557984D01*
X12685896Y-11557984D02*
X12647801Y-11557984D01*
X12647801Y-11557984D02*
X12628753Y-11548460D01*
X12628753Y-11548460D02*
X12619230Y-11529412D01*
X12619230Y-11529412D02*
X12619230Y-11453222D01*
X12619230Y-11453222D02*
X12628753Y-11434174D01*
X12628753Y-11434174D02*
X12647801Y-11424650D01*
X12647801Y-11424650D02*
X12685896Y-11424650D01*
X12685896Y-11424650D02*
X12704944Y-11434174D01*
X12704944Y-11434174D02*
X12714468Y-11453222D01*
X12714468Y-11453222D02*
X12714468Y-11472269D01*
X12714468Y-11472269D02*
X12619230Y-11491317D01*
X12790658Y-11548460D02*
X12809706Y-11557984D01*
X12809706Y-11557984D02*
X12847801Y-11557984D01*
X12847801Y-11557984D02*
X12866849Y-11548460D01*
X12866849Y-11548460D02*
X12876372Y-11529412D01*
X12876372Y-11529412D02*
X12876372Y-11519888D01*
X12876372Y-11519888D02*
X12866849Y-11500841D01*
X12866849Y-11500841D02*
X12847801Y-11491317D01*
X12847801Y-11491317D02*
X12819230Y-11491317D01*
X12819230Y-11491317D02*
X12800182Y-11481793D01*
X12800182Y-11481793D02*
X12790658Y-11462746D01*
X12790658Y-11462746D02*
X12790658Y-11453222D01*
X12790658Y-11453222D02*
X12800182Y-11434174D01*
X12800182Y-11434174D02*
X12819230Y-11424650D01*
X12819230Y-11424650D02*
X12847801Y-11424650D01*
X12847801Y-11424650D02*
X12866849Y-11434174D01*
X12943039Y-11634174D02*
X12952563Y-11624650D01*
X12952563Y-11624650D02*
X12971611Y-11596079D01*
X12971611Y-11596079D02*
X12981134Y-11577031D01*
X12981134Y-11577031D02*
X12990658Y-11548460D01*
X12990658Y-11548460D02*
X13000182Y-11500841D01*
X13000182Y-11500841D02*
X13000182Y-11462746D01*
X13000182Y-11462746D02*
X12990658Y-11415127D01*
X12990658Y-11415127D02*
X12981134Y-11386555D01*
X12981134Y-11386555D02*
X12971611Y-11367508D01*
X12971611Y-11367508D02*
X12952563Y-11338936D01*
X12952563Y-11338936D02*
X12943039Y-11329412D01*
D12*
X7927500Y-11680500D02*
X7927500Y-11780500D01*
X7877500Y-11730500D02*
X7977500Y-11730500D01*
D11*
X8343039Y-11821984D02*
X8228753Y-11821984D01*
X8285896Y-11821984D02*
X8285896Y-11621984D01*
X8285896Y-11621984D02*
X8266848Y-11650555D01*
X8266848Y-11650555D02*
X8247801Y-11669603D01*
X8247801Y-11669603D02*
X8228753Y-11679127D01*
X8428753Y-11802936D02*
X8438277Y-11812460D01*
X8438277Y-11812460D02*
X8428753Y-11821984D01*
X8428753Y-11821984D02*
X8419229Y-11812460D01*
X8419229Y-11812460D02*
X8428753Y-11802936D01*
X8428753Y-11802936D02*
X8428753Y-11821984D01*
X8562086Y-11621984D02*
X8581134Y-11621984D01*
X8581134Y-11621984D02*
X8600182Y-11631508D01*
X8600182Y-11631508D02*
X8609705Y-11641031D01*
X8609705Y-11641031D02*
X8619229Y-11660079D01*
X8619229Y-11660079D02*
X8628753Y-11698174D01*
X8628753Y-11698174D02*
X8628753Y-11745793D01*
X8628753Y-11745793D02*
X8619229Y-11783888D01*
X8619229Y-11783888D02*
X8609705Y-11802936D01*
X8609705Y-11802936D02*
X8600182Y-11812460D01*
X8600182Y-11812460D02*
X8581134Y-11821984D01*
X8581134Y-11821984D02*
X8562086Y-11821984D01*
X8562086Y-11821984D02*
X8543039Y-11812460D01*
X8543039Y-11812460D02*
X8533515Y-11802936D01*
X8533515Y-11802936D02*
X8523991Y-11783888D01*
X8523991Y-11783888D02*
X8514467Y-11745793D01*
X8514467Y-11745793D02*
X8514467Y-11698174D01*
X8514467Y-11698174D02*
X8523991Y-11660079D01*
X8523991Y-11660079D02*
X8533515Y-11641031D01*
X8533515Y-11641031D02*
X8543039Y-11631508D01*
X8543039Y-11631508D02*
X8562086Y-11621984D01*
X8752563Y-11621984D02*
X8771610Y-11621984D01*
X8771610Y-11621984D02*
X8790658Y-11631508D01*
X8790658Y-11631508D02*
X8800182Y-11641031D01*
X8800182Y-11641031D02*
X8809705Y-11660079D01*
X8809705Y-11660079D02*
X8819229Y-11698174D01*
X8819229Y-11698174D02*
X8819229Y-11745793D01*
X8819229Y-11745793D02*
X8809705Y-11783888D01*
X8809705Y-11783888D02*
X8800182Y-11802936D01*
X8800182Y-11802936D02*
X8790658Y-11812460D01*
X8790658Y-11812460D02*
X8771610Y-11821984D01*
X8771610Y-11821984D02*
X8752563Y-11821984D01*
X8752563Y-11821984D02*
X8733515Y-11812460D01*
X8733515Y-11812460D02*
X8723991Y-11802936D01*
X8723991Y-11802936D02*
X8714467Y-11783888D01*
X8714467Y-11783888D02*
X8704944Y-11745793D01*
X8704944Y-11745793D02*
X8704944Y-11698174D01*
X8704944Y-11698174D02*
X8714467Y-11660079D01*
X8714467Y-11660079D02*
X8723991Y-11641031D01*
X8723991Y-11641031D02*
X8733515Y-11631508D01*
X8733515Y-11631508D02*
X8752563Y-11621984D01*
X8943039Y-11621984D02*
X8962086Y-11621984D01*
X8962086Y-11621984D02*
X8981134Y-11631508D01*
X8981134Y-11631508D02*
X8990658Y-11641031D01*
X8990658Y-11641031D02*
X9000182Y-11660079D01*
X9000182Y-11660079D02*
X9009705Y-11698174D01*
X9009705Y-11698174D02*
X9009705Y-11745793D01*
X9009705Y-11745793D02*
X9000182Y-11783888D01*
X9000182Y-11783888D02*
X8990658Y-11802936D01*
X8990658Y-11802936D02*
X8981134Y-11812460D01*
X8981134Y-11812460D02*
X8962086Y-11821984D01*
X8962086Y-11821984D02*
X8943039Y-11821984D01*
X8943039Y-11821984D02*
X8923991Y-11812460D01*
X8923991Y-11812460D02*
X8914467Y-11802936D01*
X8914467Y-11802936D02*
X8904944Y-11783888D01*
X8904944Y-11783888D02*
X8895420Y-11745793D01*
X8895420Y-11745793D02*
X8895420Y-11698174D01*
X8895420Y-11698174D02*
X8904944Y-11660079D01*
X8904944Y-11660079D02*
X8914467Y-11641031D01*
X8914467Y-11641031D02*
X8923991Y-11631508D01*
X8923991Y-11631508D02*
X8943039Y-11621984D01*
X9095420Y-11821984D02*
X9095420Y-11688650D01*
X9095420Y-11707698D02*
X9104944Y-11698174D01*
X9104944Y-11698174D02*
X9123991Y-11688650D01*
X9123991Y-11688650D02*
X9152563Y-11688650D01*
X9152563Y-11688650D02*
X9171610Y-11698174D01*
X9171610Y-11698174D02*
X9181134Y-11717222D01*
X9181134Y-11717222D02*
X9181134Y-11821984D01*
X9181134Y-11717222D02*
X9190658Y-11698174D01*
X9190658Y-11698174D02*
X9209705Y-11688650D01*
X9209705Y-11688650D02*
X9238277Y-11688650D01*
X9238277Y-11688650D02*
X9257325Y-11698174D01*
X9257325Y-11698174D02*
X9266848Y-11717222D01*
X9266848Y-11717222D02*
X9266848Y-11821984D01*
X9362086Y-11821984D02*
X9362086Y-11688650D01*
X9362086Y-11707698D02*
X9371610Y-11698174D01*
X9371610Y-11698174D02*
X9390658Y-11688650D01*
X9390658Y-11688650D02*
X9419229Y-11688650D01*
X9419229Y-11688650D02*
X9438277Y-11698174D01*
X9438277Y-11698174D02*
X9447801Y-11717222D01*
X9447801Y-11717222D02*
X9447801Y-11821984D01*
X9447801Y-11717222D02*
X9457325Y-11698174D01*
X9457325Y-11698174D02*
X9476372Y-11688650D01*
X9476372Y-11688650D02*
X9504944Y-11688650D01*
X9504944Y-11688650D02*
X9523991Y-11698174D01*
X9523991Y-11698174D02*
X9533515Y-11717222D01*
X9533515Y-11717222D02*
X9533515Y-11821984D01*
X9923991Y-11612460D02*
X9752563Y-11869603D01*
X10181134Y-11621984D02*
X10200182Y-11621984D01*
X10200182Y-11621984D02*
X10219229Y-11631508D01*
X10219229Y-11631508D02*
X10228753Y-11641031D01*
X10228753Y-11641031D02*
X10238277Y-11660079D01*
X10238277Y-11660079D02*
X10247801Y-11698174D01*
X10247801Y-11698174D02*
X10247801Y-11745793D01*
X10247801Y-11745793D02*
X10238277Y-11783888D01*
X10238277Y-11783888D02*
X10228753Y-11802936D01*
X10228753Y-11802936D02*
X10219229Y-11812460D01*
X10219229Y-11812460D02*
X10200182Y-11821984D01*
X10200182Y-11821984D02*
X10181134Y-11821984D01*
X10181134Y-11821984D02*
X10162087Y-11812460D01*
X10162087Y-11812460D02*
X10152563Y-11802936D01*
X10152563Y-11802936D02*
X10143039Y-11783888D01*
X10143039Y-11783888D02*
X10133515Y-11745793D01*
X10133515Y-11745793D02*
X10133515Y-11698174D01*
X10133515Y-11698174D02*
X10143039Y-11660079D01*
X10143039Y-11660079D02*
X10152563Y-11641031D01*
X10152563Y-11641031D02*
X10162087Y-11631508D01*
X10162087Y-11631508D02*
X10181134Y-11621984D01*
X10333515Y-11802936D02*
X10343039Y-11812460D01*
X10343039Y-11812460D02*
X10333515Y-11821984D01*
X10333515Y-11821984D02*
X10323991Y-11812460D01*
X10323991Y-11812460D02*
X10333515Y-11802936D01*
X10333515Y-11802936D02*
X10333515Y-11821984D01*
X10466848Y-11621984D02*
X10485896Y-11621984D01*
X10485896Y-11621984D02*
X10504944Y-11631508D01*
X10504944Y-11631508D02*
X10514468Y-11641031D01*
X10514468Y-11641031D02*
X10523991Y-11660079D01*
X10523991Y-11660079D02*
X10533515Y-11698174D01*
X10533515Y-11698174D02*
X10533515Y-11745793D01*
X10533515Y-11745793D02*
X10523991Y-11783888D01*
X10523991Y-11783888D02*
X10514468Y-11802936D01*
X10514468Y-11802936D02*
X10504944Y-11812460D01*
X10504944Y-11812460D02*
X10485896Y-11821984D01*
X10485896Y-11821984D02*
X10466848Y-11821984D01*
X10466848Y-11821984D02*
X10447801Y-11812460D01*
X10447801Y-11812460D02*
X10438277Y-11802936D01*
X10438277Y-11802936D02*
X10428753Y-11783888D01*
X10428753Y-11783888D02*
X10419229Y-11745793D01*
X10419229Y-11745793D02*
X10419229Y-11698174D01*
X10419229Y-11698174D02*
X10428753Y-11660079D01*
X10428753Y-11660079D02*
X10438277Y-11641031D01*
X10438277Y-11641031D02*
X10447801Y-11631508D01*
X10447801Y-11631508D02*
X10466848Y-11621984D01*
X10600182Y-11621984D02*
X10723991Y-11621984D01*
X10723991Y-11621984D02*
X10657325Y-11698174D01*
X10657325Y-11698174D02*
X10685896Y-11698174D01*
X10685896Y-11698174D02*
X10704944Y-11707698D01*
X10704944Y-11707698D02*
X10714468Y-11717222D01*
X10714468Y-11717222D02*
X10723991Y-11736269D01*
X10723991Y-11736269D02*
X10723991Y-11783888D01*
X10723991Y-11783888D02*
X10714468Y-11802936D01*
X10714468Y-11802936D02*
X10704944Y-11812460D01*
X10704944Y-11812460D02*
X10685896Y-11821984D01*
X10685896Y-11821984D02*
X10628753Y-11821984D01*
X10628753Y-11821984D02*
X10609706Y-11812460D01*
X10609706Y-11812460D02*
X10600182Y-11802936D01*
X10819229Y-11821984D02*
X10857325Y-11821984D01*
X10857325Y-11821984D02*
X10876372Y-11812460D01*
X10876372Y-11812460D02*
X10885896Y-11802936D01*
X10885896Y-11802936D02*
X10904944Y-11774365D01*
X10904944Y-11774365D02*
X10914468Y-11736269D01*
X10914468Y-11736269D02*
X10914468Y-11660079D01*
X10914468Y-11660079D02*
X10904944Y-11641031D01*
X10904944Y-11641031D02*
X10895420Y-11631508D01*
X10895420Y-11631508D02*
X10876372Y-11621984D01*
X10876372Y-11621984D02*
X10838277Y-11621984D01*
X10838277Y-11621984D02*
X10819229Y-11631508D01*
X10819229Y-11631508D02*
X10809706Y-11641031D01*
X10809706Y-11641031D02*
X10800182Y-11660079D01*
X10800182Y-11660079D02*
X10800182Y-11707698D01*
X10800182Y-11707698D02*
X10809706Y-11726746D01*
X10809706Y-11726746D02*
X10819229Y-11736269D01*
X10819229Y-11736269D02*
X10838277Y-11745793D01*
X10838277Y-11745793D02*
X10876372Y-11745793D01*
X10876372Y-11745793D02*
X10895420Y-11736269D01*
X10895420Y-11736269D02*
X10904944Y-11726746D01*
X10904944Y-11726746D02*
X10914468Y-11707698D01*
X11085896Y-11688650D02*
X11085896Y-11821984D01*
X11038277Y-11612460D02*
X10990658Y-11755317D01*
X10990658Y-11755317D02*
X11114468Y-11755317D01*
X11181134Y-11621984D02*
X11181134Y-11660079D01*
X11257325Y-11621984D02*
X11257325Y-11660079D01*
X11552563Y-11898174D02*
X11543039Y-11888650D01*
X11543039Y-11888650D02*
X11523991Y-11860079D01*
X11523991Y-11860079D02*
X11514468Y-11841031D01*
X11514468Y-11841031D02*
X11504944Y-11812460D01*
X11504944Y-11812460D02*
X11495420Y-11764841D01*
X11495420Y-11764841D02*
X11495420Y-11726746D01*
X11495420Y-11726746D02*
X11504944Y-11679127D01*
X11504944Y-11679127D02*
X11514468Y-11650555D01*
X11514468Y-11650555D02*
X11523991Y-11631508D01*
X11523991Y-11631508D02*
X11543039Y-11602936D01*
X11543039Y-11602936D02*
X11552563Y-11593412D01*
X11638277Y-11821984D02*
X11676372Y-11821984D01*
X11676372Y-11821984D02*
X11695420Y-11812460D01*
X11695420Y-11812460D02*
X11704944Y-11802936D01*
X11704944Y-11802936D02*
X11723991Y-11774365D01*
X11723991Y-11774365D02*
X11733515Y-11736269D01*
X11733515Y-11736269D02*
X11733515Y-11660079D01*
X11733515Y-11660079D02*
X11723991Y-11641031D01*
X11723991Y-11641031D02*
X11714468Y-11631508D01*
X11714468Y-11631508D02*
X11695420Y-11621984D01*
X11695420Y-11621984D02*
X11657325Y-11621984D01*
X11657325Y-11621984D02*
X11638277Y-11631508D01*
X11638277Y-11631508D02*
X11628753Y-11641031D01*
X11628753Y-11641031D02*
X11619229Y-11660079D01*
X11619229Y-11660079D02*
X11619229Y-11707698D01*
X11619229Y-11707698D02*
X11628753Y-11726746D01*
X11628753Y-11726746D02*
X11638277Y-11736269D01*
X11638277Y-11736269D02*
X11657325Y-11745793D01*
X11657325Y-11745793D02*
X11695420Y-11745793D01*
X11695420Y-11745793D02*
X11714468Y-11736269D01*
X11714468Y-11736269D02*
X11723991Y-11726746D01*
X11723991Y-11726746D02*
X11733515Y-11707698D01*
X11971610Y-11821984D02*
X11971610Y-11621984D01*
X12057325Y-11821984D02*
X12057325Y-11717222D01*
X12057325Y-11717222D02*
X12047801Y-11698174D01*
X12047801Y-11698174D02*
X12028753Y-11688650D01*
X12028753Y-11688650D02*
X12000182Y-11688650D01*
X12000182Y-11688650D02*
X11981134Y-11698174D01*
X11981134Y-11698174D02*
X11971610Y-11707698D01*
X12181134Y-11821984D02*
X12162087Y-11812460D01*
X12162087Y-11812460D02*
X12152563Y-11802936D01*
X12152563Y-11802936D02*
X12143039Y-11783888D01*
X12143039Y-11783888D02*
X12143039Y-11726746D01*
X12143039Y-11726746D02*
X12152563Y-11707698D01*
X12152563Y-11707698D02*
X12162087Y-11698174D01*
X12162087Y-11698174D02*
X12181134Y-11688650D01*
X12181134Y-11688650D02*
X12209706Y-11688650D01*
X12209706Y-11688650D02*
X12228753Y-11698174D01*
X12228753Y-11698174D02*
X12238277Y-11707698D01*
X12238277Y-11707698D02*
X12247801Y-11726746D01*
X12247801Y-11726746D02*
X12247801Y-11783888D01*
X12247801Y-11783888D02*
X12238277Y-11802936D01*
X12238277Y-11802936D02*
X12228753Y-11812460D01*
X12228753Y-11812460D02*
X12209706Y-11821984D01*
X12209706Y-11821984D02*
X12181134Y-11821984D01*
X12362087Y-11821984D02*
X12343039Y-11812460D01*
X12343039Y-11812460D02*
X12333515Y-11793412D01*
X12333515Y-11793412D02*
X12333515Y-11621984D01*
X12514468Y-11812460D02*
X12495420Y-11821984D01*
X12495420Y-11821984D02*
X12457325Y-11821984D01*
X12457325Y-11821984D02*
X12438277Y-11812460D01*
X12438277Y-11812460D02*
X12428753Y-11793412D01*
X12428753Y-11793412D02*
X12428753Y-11717222D01*
X12428753Y-11717222D02*
X12438277Y-11698174D01*
X12438277Y-11698174D02*
X12457325Y-11688650D01*
X12457325Y-11688650D02*
X12495420Y-11688650D01*
X12495420Y-11688650D02*
X12514468Y-11698174D01*
X12514468Y-11698174D02*
X12523991Y-11717222D01*
X12523991Y-11717222D02*
X12523991Y-11736269D01*
X12523991Y-11736269D02*
X12428753Y-11755317D01*
X12600182Y-11812460D02*
X12619230Y-11821984D01*
X12619230Y-11821984D02*
X12657325Y-11821984D01*
X12657325Y-11821984D02*
X12676372Y-11812460D01*
X12676372Y-11812460D02*
X12685896Y-11793412D01*
X12685896Y-11793412D02*
X12685896Y-11783888D01*
X12685896Y-11783888D02*
X12676372Y-11764841D01*
X12676372Y-11764841D02*
X12657325Y-11755317D01*
X12657325Y-11755317D02*
X12628753Y-11755317D01*
X12628753Y-11755317D02*
X12609706Y-11745793D01*
X12609706Y-11745793D02*
X12600182Y-11726746D01*
X12600182Y-11726746D02*
X12600182Y-11717222D01*
X12600182Y-11717222D02*
X12609706Y-11698174D01*
X12609706Y-11698174D02*
X12628753Y-11688650D01*
X12628753Y-11688650D02*
X12657325Y-11688650D01*
X12657325Y-11688650D02*
X12676372Y-11698174D01*
X12752563Y-11898174D02*
X12762087Y-11888650D01*
X12762087Y-11888650D02*
X12781134Y-11860079D01*
X12781134Y-11860079D02*
X12790658Y-11841031D01*
X12790658Y-11841031D02*
X12800182Y-11812460D01*
X12800182Y-11812460D02*
X12809706Y-11764841D01*
X12809706Y-11764841D02*
X12809706Y-11726746D01*
X12809706Y-11726746D02*
X12800182Y-11679127D01*
X12800182Y-11679127D02*
X12790658Y-11650555D01*
X12790658Y-11650555D02*
X12781134Y-11631508D01*
X12781134Y-11631508D02*
X12762087Y-11602936D01*
X12762087Y-11602936D02*
X12752563Y-11593412D01*
X7948211Y-12065211D02*
X7948211Y-11923789D01*
X7806789Y-11923789D01*
X7806789Y-12065211D01*
X7948211Y-12065211D01*
X8228753Y-11905031D02*
X8238277Y-11895508D01*
X8238277Y-11895508D02*
X8257324Y-11885984D01*
X8257324Y-11885984D02*
X8304943Y-11885984D01*
X8304943Y-11885984D02*
X8323991Y-11895508D01*
X8323991Y-11895508D02*
X8333515Y-11905031D01*
X8333515Y-11905031D02*
X8343039Y-11924079D01*
X8343039Y-11924079D02*
X8343039Y-11943127D01*
X8343039Y-11943127D02*
X8333515Y-11971698D01*
X8333515Y-11971698D02*
X8219229Y-12085984D01*
X8219229Y-12085984D02*
X8343039Y-12085984D01*
X8428753Y-12066936D02*
X8438277Y-12076460D01*
X8438277Y-12076460D02*
X8428753Y-12085984D01*
X8428753Y-12085984D02*
X8419229Y-12076460D01*
X8419229Y-12076460D02*
X8428753Y-12066936D01*
X8428753Y-12066936D02*
X8428753Y-12085984D01*
X8562086Y-11885984D02*
X8581134Y-11885984D01*
X8581134Y-11885984D02*
X8600182Y-11895508D01*
X8600182Y-11895508D02*
X8609705Y-11905031D01*
X8609705Y-11905031D02*
X8619229Y-11924079D01*
X8619229Y-11924079D02*
X8628753Y-11962174D01*
X8628753Y-11962174D02*
X8628753Y-12009793D01*
X8628753Y-12009793D02*
X8619229Y-12047888D01*
X8619229Y-12047888D02*
X8609705Y-12066936D01*
X8609705Y-12066936D02*
X8600182Y-12076460D01*
X8600182Y-12076460D02*
X8581134Y-12085984D01*
X8581134Y-12085984D02*
X8562086Y-12085984D01*
X8562086Y-12085984D02*
X8543039Y-12076460D01*
X8543039Y-12076460D02*
X8533515Y-12066936D01*
X8533515Y-12066936D02*
X8523991Y-12047888D01*
X8523991Y-12047888D02*
X8514467Y-12009793D01*
X8514467Y-12009793D02*
X8514467Y-11962174D01*
X8514467Y-11962174D02*
X8523991Y-11924079D01*
X8523991Y-11924079D02*
X8533515Y-11905031D01*
X8533515Y-11905031D02*
X8543039Y-11895508D01*
X8543039Y-11895508D02*
X8562086Y-11885984D01*
X8752563Y-11885984D02*
X8771610Y-11885984D01*
X8771610Y-11885984D02*
X8790658Y-11895508D01*
X8790658Y-11895508D02*
X8800182Y-11905031D01*
X8800182Y-11905031D02*
X8809705Y-11924079D01*
X8809705Y-11924079D02*
X8819229Y-11962174D01*
X8819229Y-11962174D02*
X8819229Y-12009793D01*
X8819229Y-12009793D02*
X8809705Y-12047888D01*
X8809705Y-12047888D02*
X8800182Y-12066936D01*
X8800182Y-12066936D02*
X8790658Y-12076460D01*
X8790658Y-12076460D02*
X8771610Y-12085984D01*
X8771610Y-12085984D02*
X8752563Y-12085984D01*
X8752563Y-12085984D02*
X8733515Y-12076460D01*
X8733515Y-12076460D02*
X8723991Y-12066936D01*
X8723991Y-12066936D02*
X8714467Y-12047888D01*
X8714467Y-12047888D02*
X8704944Y-12009793D01*
X8704944Y-12009793D02*
X8704944Y-11962174D01*
X8704944Y-11962174D02*
X8714467Y-11924079D01*
X8714467Y-11924079D02*
X8723991Y-11905031D01*
X8723991Y-11905031D02*
X8733515Y-11895508D01*
X8733515Y-11895508D02*
X8752563Y-11885984D01*
X8943039Y-11885984D02*
X8962086Y-11885984D01*
X8962086Y-11885984D02*
X8981134Y-11895508D01*
X8981134Y-11895508D02*
X8990658Y-11905031D01*
X8990658Y-11905031D02*
X9000182Y-11924079D01*
X9000182Y-11924079D02*
X9009705Y-11962174D01*
X9009705Y-11962174D02*
X9009705Y-12009793D01*
X9009705Y-12009793D02*
X9000182Y-12047888D01*
X9000182Y-12047888D02*
X8990658Y-12066936D01*
X8990658Y-12066936D02*
X8981134Y-12076460D01*
X8981134Y-12076460D02*
X8962086Y-12085984D01*
X8962086Y-12085984D02*
X8943039Y-12085984D01*
X8943039Y-12085984D02*
X8923991Y-12076460D01*
X8923991Y-12076460D02*
X8914467Y-12066936D01*
X8914467Y-12066936D02*
X8904944Y-12047888D01*
X8904944Y-12047888D02*
X8895420Y-12009793D01*
X8895420Y-12009793D02*
X8895420Y-11962174D01*
X8895420Y-11962174D02*
X8904944Y-11924079D01*
X8904944Y-11924079D02*
X8914467Y-11905031D01*
X8914467Y-11905031D02*
X8923991Y-11895508D01*
X8923991Y-11895508D02*
X8943039Y-11885984D01*
X9095420Y-12085984D02*
X9095420Y-11952650D01*
X9095420Y-11971698D02*
X9104944Y-11962174D01*
X9104944Y-11962174D02*
X9123991Y-11952650D01*
X9123991Y-11952650D02*
X9152563Y-11952650D01*
X9152563Y-11952650D02*
X9171610Y-11962174D01*
X9171610Y-11962174D02*
X9181134Y-11981222D01*
X9181134Y-11981222D02*
X9181134Y-12085984D01*
X9181134Y-11981222D02*
X9190658Y-11962174D01*
X9190658Y-11962174D02*
X9209705Y-11952650D01*
X9209705Y-11952650D02*
X9238277Y-11952650D01*
X9238277Y-11952650D02*
X9257325Y-11962174D01*
X9257325Y-11962174D02*
X9266848Y-11981222D01*
X9266848Y-11981222D02*
X9266848Y-12085984D01*
X9362086Y-12085984D02*
X9362086Y-11952650D01*
X9362086Y-11971698D02*
X9371610Y-11962174D01*
X9371610Y-11962174D02*
X9390658Y-11952650D01*
X9390658Y-11952650D02*
X9419229Y-11952650D01*
X9419229Y-11952650D02*
X9438277Y-11962174D01*
X9438277Y-11962174D02*
X9447801Y-11981222D01*
X9447801Y-11981222D02*
X9447801Y-12085984D01*
X9447801Y-11981222D02*
X9457325Y-11962174D01*
X9457325Y-11962174D02*
X9476372Y-11952650D01*
X9476372Y-11952650D02*
X9504944Y-11952650D01*
X9504944Y-11952650D02*
X9523991Y-11962174D01*
X9523991Y-11962174D02*
X9533515Y-11981222D01*
X9533515Y-11981222D02*
X9533515Y-12085984D01*
X9923991Y-11876460D02*
X9752563Y-12133603D01*
X10181134Y-11885984D02*
X10200182Y-11885984D01*
X10200182Y-11885984D02*
X10219229Y-11895508D01*
X10219229Y-11895508D02*
X10228753Y-11905031D01*
X10228753Y-11905031D02*
X10238277Y-11924079D01*
X10238277Y-11924079D02*
X10247801Y-11962174D01*
X10247801Y-11962174D02*
X10247801Y-12009793D01*
X10247801Y-12009793D02*
X10238277Y-12047888D01*
X10238277Y-12047888D02*
X10228753Y-12066936D01*
X10228753Y-12066936D02*
X10219229Y-12076460D01*
X10219229Y-12076460D02*
X10200182Y-12085984D01*
X10200182Y-12085984D02*
X10181134Y-12085984D01*
X10181134Y-12085984D02*
X10162087Y-12076460D01*
X10162087Y-12076460D02*
X10152563Y-12066936D01*
X10152563Y-12066936D02*
X10143039Y-12047888D01*
X10143039Y-12047888D02*
X10133515Y-12009793D01*
X10133515Y-12009793D02*
X10133515Y-11962174D01*
X10133515Y-11962174D02*
X10143039Y-11924079D01*
X10143039Y-11924079D02*
X10152563Y-11905031D01*
X10152563Y-11905031D02*
X10162087Y-11895508D01*
X10162087Y-11895508D02*
X10181134Y-11885984D01*
X10333515Y-12066936D02*
X10343039Y-12076460D01*
X10343039Y-12076460D02*
X10333515Y-12085984D01*
X10333515Y-12085984D02*
X10323991Y-12076460D01*
X10323991Y-12076460D02*
X10333515Y-12066936D01*
X10333515Y-12066936D02*
X10333515Y-12085984D01*
X10466848Y-11885984D02*
X10485896Y-11885984D01*
X10485896Y-11885984D02*
X10504944Y-11895508D01*
X10504944Y-11895508D02*
X10514468Y-11905031D01*
X10514468Y-11905031D02*
X10523991Y-11924079D01*
X10523991Y-11924079D02*
X10533515Y-11962174D01*
X10533515Y-11962174D02*
X10533515Y-12009793D01*
X10533515Y-12009793D02*
X10523991Y-12047888D01*
X10523991Y-12047888D02*
X10514468Y-12066936D01*
X10514468Y-12066936D02*
X10504944Y-12076460D01*
X10504944Y-12076460D02*
X10485896Y-12085984D01*
X10485896Y-12085984D02*
X10466848Y-12085984D01*
X10466848Y-12085984D02*
X10447801Y-12076460D01*
X10447801Y-12076460D02*
X10438277Y-12066936D01*
X10438277Y-12066936D02*
X10428753Y-12047888D01*
X10428753Y-12047888D02*
X10419229Y-12009793D01*
X10419229Y-12009793D02*
X10419229Y-11962174D01*
X10419229Y-11962174D02*
X10428753Y-11924079D01*
X10428753Y-11924079D02*
X10438277Y-11905031D01*
X10438277Y-11905031D02*
X10447801Y-11895508D01*
X10447801Y-11895508D02*
X10466848Y-11885984D01*
X10600182Y-11885984D02*
X10733515Y-11885984D01*
X10733515Y-11885984D02*
X10647801Y-12085984D01*
X10838277Y-11971698D02*
X10819229Y-11962174D01*
X10819229Y-11962174D02*
X10809706Y-11952650D01*
X10809706Y-11952650D02*
X10800182Y-11933603D01*
X10800182Y-11933603D02*
X10800182Y-11924079D01*
X10800182Y-11924079D02*
X10809706Y-11905031D01*
X10809706Y-11905031D02*
X10819229Y-11895508D01*
X10819229Y-11895508D02*
X10838277Y-11885984D01*
X10838277Y-11885984D02*
X10876372Y-11885984D01*
X10876372Y-11885984D02*
X10895420Y-11895508D01*
X10895420Y-11895508D02*
X10904944Y-11905031D01*
X10904944Y-11905031D02*
X10914468Y-11924079D01*
X10914468Y-11924079D02*
X10914468Y-11933603D01*
X10914468Y-11933603D02*
X10904944Y-11952650D01*
X10904944Y-11952650D02*
X10895420Y-11962174D01*
X10895420Y-11962174D02*
X10876372Y-11971698D01*
X10876372Y-11971698D02*
X10838277Y-11971698D01*
X10838277Y-11971698D02*
X10819229Y-11981222D01*
X10819229Y-11981222D02*
X10809706Y-11990746D01*
X10809706Y-11990746D02*
X10800182Y-12009793D01*
X10800182Y-12009793D02*
X10800182Y-12047888D01*
X10800182Y-12047888D02*
X10809706Y-12066936D01*
X10809706Y-12066936D02*
X10819229Y-12076460D01*
X10819229Y-12076460D02*
X10838277Y-12085984D01*
X10838277Y-12085984D02*
X10876372Y-12085984D01*
X10876372Y-12085984D02*
X10895420Y-12076460D01*
X10895420Y-12076460D02*
X10904944Y-12066936D01*
X10904944Y-12066936D02*
X10914468Y-12047888D01*
X10914468Y-12047888D02*
X10914468Y-12009793D01*
X10914468Y-12009793D02*
X10904944Y-11990746D01*
X10904944Y-11990746D02*
X10895420Y-11981222D01*
X10895420Y-11981222D02*
X10876372Y-11971698D01*
X10981134Y-11885984D02*
X11114468Y-11885984D01*
X11114468Y-11885984D02*
X11028753Y-12085984D01*
X11181134Y-11885984D02*
X11181134Y-11924079D01*
X11257325Y-11885984D02*
X11257325Y-11924079D01*
X11552563Y-12162174D02*
X11543039Y-12152650D01*
X11543039Y-12152650D02*
X11523991Y-12124079D01*
X11523991Y-12124079D02*
X11514468Y-12105031D01*
X11514468Y-12105031D02*
X11504944Y-12076460D01*
X11504944Y-12076460D02*
X11495420Y-12028841D01*
X11495420Y-12028841D02*
X11495420Y-11990746D01*
X11495420Y-11990746D02*
X11504944Y-11943127D01*
X11504944Y-11943127D02*
X11514468Y-11914555D01*
X11514468Y-11914555D02*
X11523991Y-11895508D01*
X11523991Y-11895508D02*
X11543039Y-11866936D01*
X11543039Y-11866936D02*
X11552563Y-11857412D01*
X11714468Y-11952650D02*
X11714468Y-12085984D01*
X11666848Y-11876460D02*
X11619229Y-12019317D01*
X11619229Y-12019317D02*
X11743039Y-12019317D01*
X11971610Y-12085984D02*
X11971610Y-11885984D01*
X12057325Y-12085984D02*
X12057325Y-11981222D01*
X12057325Y-11981222D02*
X12047801Y-11962174D01*
X12047801Y-11962174D02*
X12028753Y-11952650D01*
X12028753Y-11952650D02*
X12000182Y-11952650D01*
X12000182Y-11952650D02*
X11981134Y-11962174D01*
X11981134Y-11962174D02*
X11971610Y-11971698D01*
X12181134Y-12085984D02*
X12162087Y-12076460D01*
X12162087Y-12076460D02*
X12152563Y-12066936D01*
X12152563Y-12066936D02*
X12143039Y-12047888D01*
X12143039Y-12047888D02*
X12143039Y-11990746D01*
X12143039Y-11990746D02*
X12152563Y-11971698D01*
X12152563Y-11971698D02*
X12162087Y-11962174D01*
X12162087Y-11962174D02*
X12181134Y-11952650D01*
X12181134Y-11952650D02*
X12209706Y-11952650D01*
X12209706Y-11952650D02*
X12228753Y-11962174D01*
X12228753Y-11962174D02*
X12238277Y-11971698D01*
X12238277Y-11971698D02*
X12247801Y-11990746D01*
X12247801Y-11990746D02*
X12247801Y-12047888D01*
X12247801Y-12047888D02*
X12238277Y-12066936D01*
X12238277Y-12066936D02*
X12228753Y-12076460D01*
X12228753Y-12076460D02*
X12209706Y-12085984D01*
X12209706Y-12085984D02*
X12181134Y-12085984D01*
X12362087Y-12085984D02*
X12343039Y-12076460D01*
X12343039Y-12076460D02*
X12333515Y-12057412D01*
X12333515Y-12057412D02*
X12333515Y-11885984D01*
X12514468Y-12076460D02*
X12495420Y-12085984D01*
X12495420Y-12085984D02*
X12457325Y-12085984D01*
X12457325Y-12085984D02*
X12438277Y-12076460D01*
X12438277Y-12076460D02*
X12428753Y-12057412D01*
X12428753Y-12057412D02*
X12428753Y-11981222D01*
X12428753Y-11981222D02*
X12438277Y-11962174D01*
X12438277Y-11962174D02*
X12457325Y-11952650D01*
X12457325Y-11952650D02*
X12495420Y-11952650D01*
X12495420Y-11952650D02*
X12514468Y-11962174D01*
X12514468Y-11962174D02*
X12523991Y-11981222D01*
X12523991Y-11981222D02*
X12523991Y-12000269D01*
X12523991Y-12000269D02*
X12428753Y-12019317D01*
X12600182Y-12076460D02*
X12619230Y-12085984D01*
X12619230Y-12085984D02*
X12657325Y-12085984D01*
X12657325Y-12085984D02*
X12676372Y-12076460D01*
X12676372Y-12076460D02*
X12685896Y-12057412D01*
X12685896Y-12057412D02*
X12685896Y-12047888D01*
X12685896Y-12047888D02*
X12676372Y-12028841D01*
X12676372Y-12028841D02*
X12657325Y-12019317D01*
X12657325Y-12019317D02*
X12628753Y-12019317D01*
X12628753Y-12019317D02*
X12609706Y-12009793D01*
X12609706Y-12009793D02*
X12600182Y-11990746D01*
X12600182Y-11990746D02*
X12600182Y-11981222D01*
X12600182Y-11981222D02*
X12609706Y-11962174D01*
X12609706Y-11962174D02*
X12628753Y-11952650D01*
X12628753Y-11952650D02*
X12657325Y-11952650D01*
X12657325Y-11952650D02*
X12676372Y-11962174D01*
X12752563Y-12162174D02*
X12762087Y-12152650D01*
X12762087Y-12152650D02*
X12781134Y-12124079D01*
X12781134Y-12124079D02*
X12790658Y-12105031D01*
X12790658Y-12105031D02*
X12800182Y-12076460D01*
X12800182Y-12076460D02*
X12809706Y-12028841D01*
X12809706Y-12028841D02*
X12809706Y-11990746D01*
X12809706Y-11990746D02*
X12800182Y-11943127D01*
X12800182Y-11943127D02*
X12790658Y-11914555D01*
X12790658Y-11914555D02*
X12781134Y-11895508D01*
X12781134Y-11895508D02*
X12762087Y-11866936D01*
X12762087Y-11866936D02*
X12752563Y-11857412D01*
M02*
