M48
; DRILL file {KiCad 9.0.1} date 2025-04-27T05:08:37+0200
; FORMAT={-:-/ absolute / metric / decimal}
; #@! TF.CreationDate,2025-04-27T05:08:37+02:00
; #@! TF.GenerationSoftware,Kicad,Pcbnew,9.0.1
; #@! TF.FileFunction,NonPlated,1,2,NPTH
FMAT,2
METRIC
; #@! TA.AperFunction,NonPlated,NPTH,ComponentDrill
T1C1.702
; #@! TA.AperFunction,NonPlated,NPTH,ComponentDrill
T2C3.000
; #@! TA.AperFunction,NonPlated,NPTH,ComponentDrill
T3C3.988
%
G90
G05
T1
X84.92Y-50.0
X84.92Y-69.1
X84.92Y-88.14
X95.08Y-50.0
X95.08Y-69.1
X95.08Y-88.14
X103.92Y-50.0
X103.92Y-69.1
X103.92Y-88.14
X114.08Y-50.0
X114.08Y-69.1
X114.08Y-88.14
X122.92Y-50.0
X122.92Y-69.1
X122.92Y-88.14
X133.08Y-50.0
X133.08Y-69.1
X133.08Y-88.14
X141.92Y-50.0
X141.92Y-69.1
X141.92Y-88.14
X152.08Y-50.0
X152.08Y-69.1
X152.08Y-88.14
X160.92Y-50.0
X160.92Y-69.1
X160.92Y-88.14
X171.08Y-50.0
X171.08Y-69.1
X171.08Y-88.14
T2
X86.19Y-47.46
X86.19Y-52.54
X86.19Y-66.56
X86.19Y-71.64
X86.19Y-85.6
X86.19Y-90.68
X92.54Y-44.92
X92.54Y-55.08
X92.54Y-64.02
X92.54Y-74.18
X92.54Y-83.06
X92.54Y-93.22
X105.19Y-47.46
X105.19Y-52.54
X105.19Y-66.56
X105.19Y-71.64
X105.19Y-85.6
X105.19Y-90.68
X111.54Y-44.92
X111.54Y-55.08
X111.54Y-64.02
X111.54Y-74.18
X111.54Y-83.06
X111.54Y-93.22
X124.19Y-47.46
X124.19Y-52.54
X124.19Y-66.56
X124.19Y-71.64
X124.19Y-85.6
X124.19Y-90.68
X130.54Y-44.92
X130.54Y-55.08
X130.54Y-64.02
X130.54Y-74.18
X130.54Y-83.06
X130.54Y-93.22
X143.19Y-47.46
X143.19Y-52.54
X143.19Y-66.56
X143.19Y-71.64
X143.19Y-85.6
X143.19Y-90.68
X149.54Y-44.92
X149.54Y-55.08
X149.54Y-64.02
X149.54Y-74.18
X149.54Y-83.06
X149.54Y-93.22
X162.19Y-47.46
X162.19Y-52.54
X162.19Y-66.56
X162.19Y-71.64
X162.19Y-85.6
X162.19Y-90.68
X168.54Y-44.92
X168.54Y-55.08
X168.54Y-64.02
X168.54Y-74.18
X168.54Y-83.06
X168.54Y-93.22
T3
X90.0Y-50.0
X90.0Y-69.1
X90.0Y-88.14
X109.0Y-50.0
X109.0Y-69.1
X109.0Y-88.14
X128.0Y-50.0
X128.0Y-69.1
X128.0Y-88.14
X147.0Y-50.0
X147.0Y-69.1
X147.0Y-88.14
X166.0Y-50.0
X166.0Y-69.1
X166.0Y-88.14
M30
