G04 #@! TF.GenerationSoftware,KiCad,Pcbnew,9.0.1*
G04 #@! TF.CreationDate,2025-04-27T05:08:37+02:00*
G04 #@! TF.ProjectId,testing-split-kb-3w-guard-pours,74657374-696e-4672-9d73-706c69742d6b,rev?*
G04 #@! TF.SameCoordinates,Original*
G04 #@! TF.FileFunction,Soldermask,Top*
G04 #@! TF.FilePolarity,Negative*
%FSLAX46Y46*%
G04 Gerber Fmt 4.6, Leading zero omitted, Abs format (unit mm)*
G04 Created by KiCad (PCBNEW 9.0.1) date 2025-04-27 05:08:37*
%MOMM*%
%LPD*%
G01*
G04 APERTURE LIST*
%ADD10C,0.300000*%
%ADD11R,1.600000X1.600000*%
%ADD12O,1.600000X1.600000*%
%ADD13C,4.000000*%
%ADD14C,1.701800*%
%ADD15C,3.000000*%
%ADD16C,3.987800*%
%ADD17R,2.550000X2.500000*%
%ADD18R,1.700000X1.700000*%
%ADD19C,1.700000*%
G04 APERTURE END LIST*
D10*
X159354510Y-103650828D02*
X159354510Y-102150828D01*
X159354510Y-102722257D02*
X159497368Y-102650828D01*
X159497368Y-102650828D02*
X159783082Y-102650828D01*
X159783082Y-102650828D02*
X159925939Y-102722257D01*
X159925939Y-102722257D02*
X159997368Y-102793685D01*
X159997368Y-102793685D02*
X160068796Y-102936542D01*
X160068796Y-102936542D02*
X160068796Y-103365114D01*
X160068796Y-103365114D02*
X159997368Y-103507971D01*
X159997368Y-103507971D02*
X159925939Y-103579400D01*
X159925939Y-103579400D02*
X159783082Y-103650828D01*
X159783082Y-103650828D02*
X159497368Y-103650828D01*
X159497368Y-103650828D02*
X159354510Y-103579400D01*
X160568796Y-102650828D02*
X160925939Y-103650828D01*
X161283082Y-102650828D02*
X160925939Y-103650828D01*
X160925939Y-103650828D02*
X160783082Y-104007971D01*
X160783082Y-104007971D02*
X160711653Y-104079400D01*
X160711653Y-104079400D02*
X160568796Y-104150828D01*
X163640225Y-103650828D02*
X163640225Y-102150828D01*
X163640225Y-103579400D02*
X163497367Y-103650828D01*
X163497367Y-103650828D02*
X163211653Y-103650828D01*
X163211653Y-103650828D02*
X163068796Y-103579400D01*
X163068796Y-103579400D02*
X162997367Y-103507971D01*
X162997367Y-103507971D02*
X162925939Y-103365114D01*
X162925939Y-103365114D02*
X162925939Y-102936542D01*
X162925939Y-102936542D02*
X162997367Y-102793685D01*
X162997367Y-102793685D02*
X163068796Y-102722257D01*
X163068796Y-102722257D02*
X163211653Y-102650828D01*
X163211653Y-102650828D02*
X163497367Y-102650828D01*
X163497367Y-102650828D02*
X163640225Y-102722257D01*
X164925939Y-103579400D02*
X164783082Y-103650828D01*
X164783082Y-103650828D02*
X164497368Y-103650828D01*
X164497368Y-103650828D02*
X164354510Y-103579400D01*
X164354510Y-103579400D02*
X164283082Y-103436542D01*
X164283082Y-103436542D02*
X164283082Y-102865114D01*
X164283082Y-102865114D02*
X164354510Y-102722257D01*
X164354510Y-102722257D02*
X164497368Y-102650828D01*
X164497368Y-102650828D02*
X164783082Y-102650828D01*
X164783082Y-102650828D02*
X164925939Y-102722257D01*
X164925939Y-102722257D02*
X164997368Y-102865114D01*
X164997368Y-102865114D02*
X164997368Y-103007971D01*
X164997368Y-103007971D02*
X164283082Y-103150828D01*
X165497367Y-102650828D02*
X165854510Y-103650828D01*
X165854510Y-103650828D02*
X166211653Y-102650828D01*
X167425939Y-103579400D02*
X167283081Y-103650828D01*
X167283081Y-103650828D02*
X166997367Y-103650828D01*
X166997367Y-103650828D02*
X166854510Y-103579400D01*
X166854510Y-103579400D02*
X166783081Y-103507971D01*
X166783081Y-103507971D02*
X166711653Y-103365114D01*
X166711653Y-103365114D02*
X166711653Y-102936542D01*
X166711653Y-102936542D02*
X166783081Y-102793685D01*
X166783081Y-102793685D02*
X166854510Y-102722257D01*
X166854510Y-102722257D02*
X166997367Y-102650828D01*
X166997367Y-102650828D02*
X167283081Y-102650828D01*
X167283081Y-102650828D02*
X167425939Y-102722257D01*
X168640224Y-103579400D02*
X168497367Y-103650828D01*
X168497367Y-103650828D02*
X168211653Y-103650828D01*
X168211653Y-103650828D02*
X168068795Y-103579400D01*
X168068795Y-103579400D02*
X167997367Y-103436542D01*
X167997367Y-103436542D02*
X167997367Y-102865114D01*
X167997367Y-102865114D02*
X168068795Y-102722257D01*
X168068795Y-102722257D02*
X168211653Y-102650828D01*
X168211653Y-102650828D02*
X168497367Y-102650828D01*
X168497367Y-102650828D02*
X168640224Y-102722257D01*
X168640224Y-102722257D02*
X168711653Y-102865114D01*
X168711653Y-102865114D02*
X168711653Y-103007971D01*
X168711653Y-103007971D02*
X167997367Y-103150828D01*
X169211652Y-103650828D02*
X169997367Y-102650828D01*
X169211652Y-102650828D02*
X169997367Y-103650828D01*
X170425938Y-103650828D02*
X171211653Y-102650828D01*
X170425938Y-102650828D02*
X171211653Y-103650828D01*
D11*
G04 #@! TO.C,D5*
X170000000Y-37300000D03*
D12*
X162380000Y-37300000D03*
G04 #@! TD*
D13*
G04 #@! TO.C,*
X84300000Y-101100000D03*
G04 #@! TD*
D14*
G04 #@! TO.C,SW11*
X84920000Y-88140000D03*
D15*
X86190000Y-85600000D03*
X86190000Y-90680000D03*
D16*
X90000000Y-88140000D03*
D15*
X92540000Y-83060000D03*
X92540000Y-93220000D03*
D14*
X95080000Y-88140000D03*
D17*
X96290000Y-93220000D03*
X82440000Y-90680000D03*
G04 #@! TD*
D14*
G04 #@! TO.C,SW15*
X160920000Y-88140000D03*
D15*
X162190000Y-85600000D03*
X162190000Y-90680000D03*
D16*
X166000000Y-88140000D03*
D15*
X168540000Y-83060000D03*
X168540000Y-93220000D03*
D14*
X171080000Y-88140000D03*
D17*
X172290000Y-93220000D03*
X158440000Y-90680000D03*
G04 #@! TD*
D14*
G04 #@! TO.C,SW1*
X84920000Y-50000000D03*
D15*
X86190000Y-47460000D03*
X86190000Y-52540000D03*
D16*
X90000000Y-50000000D03*
D15*
X92540000Y-44920000D03*
X92540000Y-55080000D03*
D14*
X95080000Y-50000000D03*
D17*
X96290000Y-55080000D03*
X82440000Y-52540000D03*
G04 #@! TD*
D14*
G04 #@! TO.C,SW5*
X160920000Y-50000000D03*
D15*
X162190000Y-47460000D03*
X162190000Y-52540000D03*
D16*
X166000000Y-50000000D03*
D15*
X168540000Y-44920000D03*
X168540000Y-55080000D03*
D14*
X171080000Y-50000000D03*
D17*
X172290000Y-55080000D03*
X158440000Y-52540000D03*
G04 #@! TD*
D14*
G04 #@! TO.C,SW2*
X103920000Y-50000000D03*
D15*
X105190000Y-47460000D03*
X105190000Y-52540000D03*
D16*
X109000000Y-50000000D03*
D15*
X111540000Y-44920000D03*
X111540000Y-55080000D03*
D14*
X114080000Y-50000000D03*
D17*
X115290000Y-55080000D03*
X101440000Y-52540000D03*
G04 #@! TD*
D11*
G04 #@! TO.C,D6*
X100110000Y-59600000D03*
D12*
X92490000Y-59600000D03*
G04 #@! TD*
D11*
G04 #@! TO.C,D7*
X119410000Y-59600000D03*
D12*
X111790000Y-59600000D03*
G04 #@! TD*
D11*
G04 #@! TO.C,D14*
X157410000Y-78600000D03*
D12*
X149790000Y-78600000D03*
G04 #@! TD*
D14*
G04 #@! TO.C,SW9*
X141920000Y-69100000D03*
D15*
X143190000Y-66560000D03*
X143190000Y-71640000D03*
D16*
X147000000Y-69100000D03*
D15*
X149540000Y-64020000D03*
X149540000Y-74180000D03*
D14*
X152080000Y-69100000D03*
D17*
X153290000Y-74180000D03*
X139440000Y-71640000D03*
G04 #@! TD*
D14*
G04 #@! TO.C,SW14*
X141920000Y-88140000D03*
D15*
X143190000Y-85600000D03*
X143190000Y-90680000D03*
D16*
X147000000Y-88140000D03*
D15*
X149540000Y-83060000D03*
X149540000Y-93220000D03*
D14*
X152080000Y-88140000D03*
D17*
X153290000Y-93220000D03*
X139440000Y-90680000D03*
G04 #@! TD*
D11*
G04 #@! TO.C,D4*
X150800000Y-37200000D03*
D12*
X143180000Y-37200000D03*
G04 #@! TD*
D11*
G04 #@! TO.C,D8*
X138300000Y-59600000D03*
D12*
X130680000Y-59600000D03*
G04 #@! TD*
D14*
G04 #@! TO.C,SW4*
X141920000Y-50000000D03*
D15*
X143190000Y-47460000D03*
X143190000Y-52540000D03*
D16*
X147000000Y-50000000D03*
D15*
X149540000Y-44920000D03*
X149540000Y-55080000D03*
D14*
X152080000Y-50000000D03*
D17*
X153290000Y-55080000D03*
X139440000Y-52540000D03*
G04 #@! TD*
D14*
G04 #@! TO.C,SW6*
X84920000Y-69100000D03*
D15*
X86190000Y-66560000D03*
X86190000Y-71640000D03*
D16*
X90000000Y-69100000D03*
D15*
X92540000Y-64020000D03*
X92540000Y-74180000D03*
D14*
X95080000Y-69100000D03*
D17*
X96290000Y-74180000D03*
X82440000Y-71640000D03*
G04 #@! TD*
D11*
G04 #@! TO.C,D9*
X157410000Y-59500000D03*
D12*
X149790000Y-59500000D03*
G04 #@! TD*
D14*
G04 #@! TO.C,SW8*
X122920000Y-69100000D03*
D15*
X124190000Y-66560000D03*
X124190000Y-71640000D03*
D16*
X128000000Y-69100000D03*
D15*
X130540000Y-64020000D03*
X130540000Y-74180000D03*
D14*
X133080000Y-69100000D03*
D17*
X134290000Y-74180000D03*
X120440000Y-71640000D03*
G04 #@! TD*
D14*
G04 #@! TO.C,SW7*
X103920000Y-69100000D03*
D15*
X105190000Y-66560000D03*
X105190000Y-71640000D03*
D16*
X109000000Y-69100000D03*
D15*
X111540000Y-64020000D03*
X111540000Y-74180000D03*
D14*
X114080000Y-69100000D03*
D17*
X115290000Y-74180000D03*
X101440000Y-71640000D03*
G04 #@! TD*
D13*
G04 #@! TO.C,*
X176600000Y-37000000D03*
G04 #@! TD*
D14*
G04 #@! TO.C,SW10*
X160920000Y-69100000D03*
D15*
X162190000Y-66560000D03*
X162190000Y-71640000D03*
D16*
X166000000Y-69100000D03*
D15*
X168540000Y-64020000D03*
X168540000Y-74180000D03*
D14*
X171080000Y-69100000D03*
D17*
X172290000Y-74180000D03*
X158440000Y-71640000D03*
G04 #@! TD*
D13*
G04 #@! TO.C,*
X176650000Y-101100000D03*
G04 #@! TD*
D11*
G04 #@! TO.C,D3*
X131600000Y-37100000D03*
D12*
X123980000Y-37100000D03*
G04 #@! TD*
D11*
G04 #@! TO.C,D12*
X119510000Y-78900000D03*
D12*
X111890000Y-78900000D03*
G04 #@! TD*
D13*
G04 #@! TO.C,*
X84300000Y-37000000D03*
G04 #@! TD*
D18*
G04 #@! TO.C,J1*
X177900000Y-57860000D03*
D19*
X177900000Y-60400000D03*
X177900000Y-62940000D03*
X177900000Y-65480000D03*
X177900000Y-68020000D03*
X177900000Y-70560000D03*
X177900000Y-73100000D03*
X177900000Y-75640000D03*
X177900000Y-78180000D03*
G04 #@! TD*
D14*
G04 #@! TO.C,SW13*
X122920000Y-88140000D03*
D15*
X124190000Y-85600000D03*
X124190000Y-90680000D03*
D16*
X128000000Y-88140000D03*
D15*
X130540000Y-83060000D03*
X130540000Y-93220000D03*
D14*
X133080000Y-88140000D03*
D17*
X134290000Y-93220000D03*
X120440000Y-90680000D03*
G04 #@! TD*
D11*
G04 #@! TO.C,D11*
X100410000Y-78800000D03*
D12*
X92790000Y-78800000D03*
G04 #@! TD*
D11*
G04 #@! TO.C,D1*
X99510000Y-35650000D03*
D12*
X91890000Y-35650000D03*
G04 #@! TD*
D11*
G04 #@! TO.C,D15*
X171110000Y-78600000D03*
D12*
X163490000Y-78600000D03*
G04 #@! TD*
D14*
G04 #@! TO.C,SW12*
X103920000Y-88140000D03*
D15*
X105190000Y-85600000D03*
X105190000Y-90680000D03*
D16*
X109000000Y-88140000D03*
D15*
X111540000Y-83060000D03*
X111540000Y-93220000D03*
D14*
X114080000Y-88140000D03*
D17*
X115290000Y-93220000D03*
X101440000Y-90680000D03*
G04 #@! TD*
D11*
G04 #@! TO.C,D13*
X138410000Y-78600000D03*
D12*
X130790000Y-78600000D03*
G04 #@! TD*
D11*
G04 #@! TO.C,D2*
X113000000Y-37100000D03*
D12*
X105380000Y-37100000D03*
G04 #@! TD*
D11*
G04 #@! TO.C,D10*
X172300000Y-59450000D03*
D12*
X164680000Y-59450000D03*
G04 #@! TD*
D14*
G04 #@! TO.C,SW3*
X122920000Y-50000000D03*
D15*
X124190000Y-47460000D03*
X124190000Y-52540000D03*
D16*
X128000000Y-50000000D03*
D15*
X130540000Y-44920000D03*
X130540000Y-55080000D03*
D14*
X133080000Y-50000000D03*
D17*
X134290000Y-55080000D03*
X120440000Y-52540000D03*
G04 #@! TD*
M02*
