%TF.GenerationSoftware,KiCad,Pcbnew,9.0.1*%
%TF.CreationDate,2025-04-27T05:08:37+02:00*%
%TF.ProjectId,testing-split-kb-3w-guard-pours,74657374-696e-4672-9d73-706c69742d6b,rev?*%
%TF.SameCoordinates,Original*%
%TF.FileFunction,Drillmap*%
%TF.FilePolarity,Positive*%
%FSLAX45Y45*%
G04 Gerber Fmt 4.5, Leading zero omitted, Abs format (unit mm)*
G04 Created by KiCad (PCBNEW 9.0.1) date 2025-04-27 05:08:37*
%MOMM*%
%LPD*%
G01*
G04 APERTURE LIST*
%ADD10C,0.050000*%
%ADD11C,0.200000*%
%ADD12C,0.170180*%
%ADD13C,0.300000*%
%ADD14C,0.398780*%
G04 APERTURE END LIST*
D10*
X7980000Y-3450000D02*
X7980000Y-10360000D01*
X7980000Y-3450000D02*
G75*
G02*
X8180000Y-3250000I200000J0D01*
G01*
X17550000Y-3250000D02*
X17920000Y-3250000D01*
X8180000Y-10560000D02*
G75*
G02*
X7980000Y-10360000I0J200000D01*
G01*
X8180000Y-3250000D02*
X17550000Y-3250000D01*
X18120000Y-3450000D02*
X18120000Y-10360000D01*
X18120000Y-10360000D02*
G75*
G02*
X17920000Y-10560000I-200000J0D01*
G01*
X8180000Y-10560000D02*
X17920000Y-10560000D01*
X17920000Y-3250000D02*
G75*
G02*
X18120000Y-3450000I0J-200000D01*
G01*
D11*
D12*
X8406910Y-4914910D02*
X8577090Y-5085090D01*
X8577090Y-4914910D02*
X8406910Y-5085090D01*
X8406910Y-6824910D02*
X8577090Y-6995090D01*
X8577090Y-6824910D02*
X8406910Y-6995090D01*
X8406910Y-8728910D02*
X8577090Y-8899090D01*
X8577090Y-8728910D02*
X8406910Y-8899090D01*
X9422910Y-4914910D02*
X9593090Y-5085090D01*
X9593090Y-4914910D02*
X9422910Y-5085090D01*
X9422910Y-6824910D02*
X9593090Y-6995090D01*
X9593090Y-6824910D02*
X9422910Y-6995090D01*
X9422910Y-8728910D02*
X9593090Y-8899090D01*
X9593090Y-8728910D02*
X9422910Y-8899090D01*
X10306910Y-4914910D02*
X10477090Y-5085090D01*
X10477090Y-4914910D02*
X10306910Y-5085090D01*
X10306910Y-6824910D02*
X10477090Y-6995090D01*
X10477090Y-6824910D02*
X10306910Y-6995090D01*
X10306910Y-8728910D02*
X10477090Y-8899090D01*
X10477090Y-8728910D02*
X10306910Y-8899090D01*
X11322910Y-4914910D02*
X11493090Y-5085090D01*
X11493090Y-4914910D02*
X11322910Y-5085090D01*
X11322910Y-6824910D02*
X11493090Y-6995090D01*
X11493090Y-6824910D02*
X11322910Y-6995090D01*
X11322910Y-8728910D02*
X11493090Y-8899090D01*
X11493090Y-8728910D02*
X11322910Y-8899090D01*
X12206910Y-4914910D02*
X12377090Y-5085090D01*
X12377090Y-4914910D02*
X12206910Y-5085090D01*
X12206910Y-6824910D02*
X12377090Y-6995090D01*
X12377090Y-6824910D02*
X12206910Y-6995090D01*
X12206910Y-8728910D02*
X12377090Y-8899090D01*
X12377090Y-8728910D02*
X12206910Y-8899090D01*
X13222910Y-4914910D02*
X13393090Y-5085090D01*
X13393090Y-4914910D02*
X13222910Y-5085090D01*
X13222910Y-6824910D02*
X13393090Y-6995090D01*
X13393090Y-6824910D02*
X13222910Y-6995090D01*
X13222910Y-8728910D02*
X13393090Y-8899090D01*
X13393090Y-8728910D02*
X13222910Y-8899090D01*
X14106910Y-4914910D02*
X14277090Y-5085090D01*
X14277090Y-4914910D02*
X14106910Y-5085090D01*
X14106910Y-6824910D02*
X14277090Y-6995090D01*
X14277090Y-6824910D02*
X14106910Y-6995090D01*
X14106910Y-8728910D02*
X14277090Y-8899090D01*
X14277090Y-8728910D02*
X14106910Y-8899090D01*
X15122910Y-4914910D02*
X15293090Y-5085090D01*
X15293090Y-4914910D02*
X15122910Y-5085090D01*
X15122910Y-6824910D02*
X15293090Y-6995090D01*
X15293090Y-6824910D02*
X15122910Y-6995090D01*
X15122910Y-8728910D02*
X15293090Y-8899090D01*
X15293090Y-8728910D02*
X15122910Y-8899090D01*
X16006910Y-4914910D02*
X16177090Y-5085090D01*
X16177090Y-4914910D02*
X16006910Y-5085090D01*
X16006910Y-6824910D02*
X16177090Y-6995090D01*
X16177090Y-6824910D02*
X16006910Y-6995090D01*
X16006910Y-8728910D02*
X16177090Y-8899090D01*
X16177090Y-8728910D02*
X16006910Y-8899090D01*
X17022910Y-4914910D02*
X17193090Y-5085090D01*
X17193090Y-4914910D02*
X17022910Y-5085090D01*
X17022910Y-6824910D02*
X17193090Y-6995090D01*
X17193090Y-6824910D02*
X17022910Y-6995090D01*
X17022910Y-8728910D02*
X17193090Y-8899090D01*
X17193090Y-8728910D02*
X17022910Y-8899090D01*
D13*
X8769000Y-4746000D02*
G75*
G02*
X8469000Y-4746000I-150000J0D01*
G01*
X8469000Y-4746000D02*
G75*
G02*
X8769000Y-4746000I150000J0D01*
G01*
X8769000Y-5254000D02*
G75*
G02*
X8469000Y-5254000I-150000J0D01*
G01*
X8469000Y-5254000D02*
G75*
G02*
X8769000Y-5254000I150000J0D01*
G01*
X8769000Y-6656000D02*
G75*
G02*
X8469000Y-6656000I-150000J0D01*
G01*
X8469000Y-6656000D02*
G75*
G02*
X8769000Y-6656000I150000J0D01*
G01*
X8769000Y-7164000D02*
G75*
G02*
X8469000Y-7164000I-150000J0D01*
G01*
X8469000Y-7164000D02*
G75*
G02*
X8769000Y-7164000I150000J0D01*
G01*
X8769000Y-8560000D02*
G75*
G02*
X8469000Y-8560000I-150000J0D01*
G01*
X8469000Y-8560000D02*
G75*
G02*
X8769000Y-8560000I150000J0D01*
G01*
X8769000Y-9068000D02*
G75*
G02*
X8469000Y-9068000I-150000J0D01*
G01*
X8469000Y-9068000D02*
G75*
G02*
X8769000Y-9068000I150000J0D01*
G01*
X9404000Y-4492000D02*
G75*
G02*
X9104000Y-4492000I-150000J0D01*
G01*
X9104000Y-4492000D02*
G75*
G02*
X9404000Y-4492000I150000J0D01*
G01*
X9404000Y-5508000D02*
G75*
G02*
X9104000Y-5508000I-150000J0D01*
G01*
X9104000Y-5508000D02*
G75*
G02*
X9404000Y-5508000I150000J0D01*
G01*
X9404000Y-6402000D02*
G75*
G02*
X9104000Y-6402000I-150000J0D01*
G01*
X9104000Y-6402000D02*
G75*
G02*
X9404000Y-6402000I150000J0D01*
G01*
X9404000Y-7418000D02*
G75*
G02*
X9104000Y-7418000I-150000J0D01*
G01*
X9104000Y-7418000D02*
G75*
G02*
X9404000Y-7418000I150000J0D01*
G01*
X9404000Y-8306000D02*
G75*
G02*
X9104000Y-8306000I-150000J0D01*
G01*
X9104000Y-8306000D02*
G75*
G02*
X9404000Y-8306000I150000J0D01*
G01*
X9404000Y-9322000D02*
G75*
G02*
X9104000Y-9322000I-150000J0D01*
G01*
X9104000Y-9322000D02*
G75*
G02*
X9404000Y-9322000I150000J0D01*
G01*
X10669000Y-4746000D02*
G75*
G02*
X10369000Y-4746000I-150000J0D01*
G01*
X10369000Y-4746000D02*
G75*
G02*
X10669000Y-4746000I150000J0D01*
G01*
X10669000Y-5254000D02*
G75*
G02*
X10369000Y-5254000I-150000J0D01*
G01*
X10369000Y-5254000D02*
G75*
G02*
X10669000Y-5254000I150000J0D01*
G01*
X10669000Y-6656000D02*
G75*
G02*
X10369000Y-6656000I-150000J0D01*
G01*
X10369000Y-6656000D02*
G75*
G02*
X10669000Y-6656000I150000J0D01*
G01*
X10669000Y-7164000D02*
G75*
G02*
X10369000Y-7164000I-150000J0D01*
G01*
X10369000Y-7164000D02*
G75*
G02*
X10669000Y-7164000I150000J0D01*
G01*
X10669000Y-8560000D02*
G75*
G02*
X10369000Y-8560000I-150000J0D01*
G01*
X10369000Y-8560000D02*
G75*
G02*
X10669000Y-8560000I150000J0D01*
G01*
X10669000Y-9068000D02*
G75*
G02*
X10369000Y-9068000I-150000J0D01*
G01*
X10369000Y-9068000D02*
G75*
G02*
X10669000Y-9068000I150000J0D01*
G01*
X11304000Y-4492000D02*
G75*
G02*
X11004000Y-4492000I-150000J0D01*
G01*
X11004000Y-4492000D02*
G75*
G02*
X11304000Y-4492000I150000J0D01*
G01*
X11304000Y-5508000D02*
G75*
G02*
X11004000Y-5508000I-150000J0D01*
G01*
X11004000Y-5508000D02*
G75*
G02*
X11304000Y-5508000I150000J0D01*
G01*
X11304000Y-6402000D02*
G75*
G02*
X11004000Y-6402000I-150000J0D01*
G01*
X11004000Y-6402000D02*
G75*
G02*
X11304000Y-6402000I150000J0D01*
G01*
X11304000Y-7418000D02*
G75*
G02*
X11004000Y-7418000I-150000J0D01*
G01*
X11004000Y-7418000D02*
G75*
G02*
X11304000Y-7418000I150000J0D01*
G01*
X11304000Y-8306000D02*
G75*
G02*
X11004000Y-8306000I-150000J0D01*
G01*
X11004000Y-8306000D02*
G75*
G02*
X11304000Y-8306000I150000J0D01*
G01*
X11304000Y-9322000D02*
G75*
G02*
X11004000Y-9322000I-150000J0D01*
G01*
X11004000Y-9322000D02*
G75*
G02*
X11304000Y-9322000I150000J0D01*
G01*
X12569000Y-4746000D02*
G75*
G02*
X12269000Y-4746000I-150000J0D01*
G01*
X12269000Y-4746000D02*
G75*
G02*
X12569000Y-4746000I150000J0D01*
G01*
X12569000Y-5254000D02*
G75*
G02*
X12269000Y-5254000I-150000J0D01*
G01*
X12269000Y-5254000D02*
G75*
G02*
X12569000Y-5254000I150000J0D01*
G01*
X12569000Y-6656000D02*
G75*
G02*
X12269000Y-6656000I-150000J0D01*
G01*
X12269000Y-6656000D02*
G75*
G02*
X12569000Y-6656000I150000J0D01*
G01*
X12569000Y-7164000D02*
G75*
G02*
X12269000Y-7164000I-150000J0D01*
G01*
X12269000Y-7164000D02*
G75*
G02*
X12569000Y-7164000I150000J0D01*
G01*
X12569000Y-8560000D02*
G75*
G02*
X12269000Y-8560000I-150000J0D01*
G01*
X12269000Y-8560000D02*
G75*
G02*
X12569000Y-8560000I150000J0D01*
G01*
X12569000Y-9068000D02*
G75*
G02*
X12269000Y-9068000I-150000J0D01*
G01*
X12269000Y-9068000D02*
G75*
G02*
X12569000Y-9068000I150000J0D01*
G01*
X13204000Y-4492000D02*
G75*
G02*
X12904000Y-4492000I-150000J0D01*
G01*
X12904000Y-4492000D02*
G75*
G02*
X13204000Y-4492000I150000J0D01*
G01*
X13204000Y-5508000D02*
G75*
G02*
X12904000Y-5508000I-150000J0D01*
G01*
X12904000Y-5508000D02*
G75*
G02*
X13204000Y-5508000I150000J0D01*
G01*
X13204000Y-6402000D02*
G75*
G02*
X12904000Y-6402000I-150000J0D01*
G01*
X12904000Y-6402000D02*
G75*
G02*
X13204000Y-6402000I150000J0D01*
G01*
X13204000Y-7418000D02*
G75*
G02*
X12904000Y-7418000I-150000J0D01*
G01*
X12904000Y-7418000D02*
G75*
G02*
X13204000Y-7418000I150000J0D01*
G01*
X13204000Y-8306000D02*
G75*
G02*
X12904000Y-8306000I-150000J0D01*
G01*
X12904000Y-8306000D02*
G75*
G02*
X13204000Y-8306000I150000J0D01*
G01*
X13204000Y-9322000D02*
G75*
G02*
X12904000Y-9322000I-150000J0D01*
G01*
X12904000Y-9322000D02*
G75*
G02*
X13204000Y-9322000I150000J0D01*
G01*
X14469000Y-4746000D02*
G75*
G02*
X14169000Y-4746000I-150000J0D01*
G01*
X14169000Y-4746000D02*
G75*
G02*
X14469000Y-4746000I150000J0D01*
G01*
X14469000Y-5254000D02*
G75*
G02*
X14169000Y-5254000I-150000J0D01*
G01*
X14169000Y-5254000D02*
G75*
G02*
X14469000Y-5254000I150000J0D01*
G01*
X14469000Y-6656000D02*
G75*
G02*
X14169000Y-6656000I-150000J0D01*
G01*
X14169000Y-6656000D02*
G75*
G02*
X14469000Y-6656000I150000J0D01*
G01*
X14469000Y-7164000D02*
G75*
G02*
X14169000Y-7164000I-150000J0D01*
G01*
X14169000Y-7164000D02*
G75*
G02*
X14469000Y-7164000I150000J0D01*
G01*
X14469000Y-8560000D02*
G75*
G02*
X14169000Y-8560000I-150000J0D01*
G01*
X14169000Y-8560000D02*
G75*
G02*
X14469000Y-8560000I150000J0D01*
G01*
X14469000Y-9068000D02*
G75*
G02*
X14169000Y-9068000I-150000J0D01*
G01*
X14169000Y-9068000D02*
G75*
G02*
X14469000Y-9068000I150000J0D01*
G01*
X15104000Y-4492000D02*
G75*
G02*
X14804000Y-4492000I-150000J0D01*
G01*
X14804000Y-4492000D02*
G75*
G02*
X15104000Y-4492000I150000J0D01*
G01*
X15104000Y-5508000D02*
G75*
G02*
X14804000Y-5508000I-150000J0D01*
G01*
X14804000Y-5508000D02*
G75*
G02*
X15104000Y-5508000I150000J0D01*
G01*
X15104000Y-6402000D02*
G75*
G02*
X14804000Y-6402000I-150000J0D01*
G01*
X14804000Y-6402000D02*
G75*
G02*
X15104000Y-6402000I150000J0D01*
G01*
X15104000Y-7418000D02*
G75*
G02*
X14804000Y-7418000I-150000J0D01*
G01*
X14804000Y-7418000D02*
G75*
G02*
X15104000Y-7418000I150000J0D01*
G01*
X15104000Y-8306000D02*
G75*
G02*
X14804000Y-8306000I-150000J0D01*
G01*
X14804000Y-8306000D02*
G75*
G02*
X15104000Y-8306000I150000J0D01*
G01*
X15104000Y-9322000D02*
G75*
G02*
X14804000Y-9322000I-150000J0D01*
G01*
X14804000Y-9322000D02*
G75*
G02*
X15104000Y-9322000I150000J0D01*
G01*
X16369000Y-4746000D02*
G75*
G02*
X16069000Y-4746000I-150000J0D01*
G01*
X16069000Y-4746000D02*
G75*
G02*
X16369000Y-4746000I150000J0D01*
G01*
X16369000Y-5254000D02*
G75*
G02*
X16069000Y-5254000I-150000J0D01*
G01*
X16069000Y-5254000D02*
G75*
G02*
X16369000Y-5254000I150000J0D01*
G01*
X16369000Y-6656000D02*
G75*
G02*
X16069000Y-6656000I-150000J0D01*
G01*
X16069000Y-6656000D02*
G75*
G02*
X16369000Y-6656000I150000J0D01*
G01*
X16369000Y-7164000D02*
G75*
G02*
X16069000Y-7164000I-150000J0D01*
G01*
X16069000Y-7164000D02*
G75*
G02*
X16369000Y-7164000I150000J0D01*
G01*
X16369000Y-8560000D02*
G75*
G02*
X16069000Y-8560000I-150000J0D01*
G01*
X16069000Y-8560000D02*
G75*
G02*
X16369000Y-8560000I150000J0D01*
G01*
X16369000Y-9068000D02*
G75*
G02*
X16069000Y-9068000I-150000J0D01*
G01*
X16069000Y-9068000D02*
G75*
G02*
X16369000Y-9068000I150000J0D01*
G01*
X17004000Y-4492000D02*
G75*
G02*
X16704000Y-4492000I-150000J0D01*
G01*
X16704000Y-4492000D02*
G75*
G02*
X17004000Y-4492000I150000J0D01*
G01*
X17004000Y-5508000D02*
G75*
G02*
X16704000Y-5508000I-150000J0D01*
G01*
X16704000Y-5508000D02*
G75*
G02*
X17004000Y-5508000I150000J0D01*
G01*
X17004000Y-6402000D02*
G75*
G02*
X16704000Y-6402000I-150000J0D01*
G01*
X16704000Y-6402000D02*
G75*
G02*
X17004000Y-6402000I150000J0D01*
G01*
X17004000Y-7418000D02*
G75*
G02*
X16704000Y-7418000I-150000J0D01*
G01*
X16704000Y-7418000D02*
G75*
G02*
X17004000Y-7418000I150000J0D01*
G01*
X17004000Y-8306000D02*
G75*
G02*
X16704000Y-8306000I-150000J0D01*
G01*
X16704000Y-8306000D02*
G75*
G02*
X17004000Y-8306000I150000J0D01*
G01*
X17004000Y-9322000D02*
G75*
G02*
X16704000Y-9322000I-150000J0D01*
G01*
X16704000Y-9322000D02*
G75*
G02*
X17004000Y-9322000I150000J0D01*
G01*
D14*
X9000000Y-4800610D02*
X9000000Y-5199390D01*
X8800610Y-5000000D02*
X9199390Y-5000000D01*
X9000000Y-6710610D02*
X9000000Y-7109390D01*
X8800610Y-6910000D02*
X9199390Y-6910000D01*
X9000000Y-8614610D02*
X9000000Y-9013390D01*
X8800610Y-8814000D02*
X9199390Y-8814000D01*
X10900000Y-4800610D02*
X10900000Y-5199390D01*
X10700610Y-5000000D02*
X11099390Y-5000000D01*
X10900000Y-6710610D02*
X10900000Y-7109390D01*
X10700610Y-6910000D02*
X11099390Y-6910000D01*
X10900000Y-8614610D02*
X10900000Y-9013390D01*
X10700610Y-8814000D02*
X11099390Y-8814000D01*
X12800000Y-4800610D02*
X12800000Y-5199390D01*
X12600610Y-5000000D02*
X12999390Y-5000000D01*
X12800000Y-6710610D02*
X12800000Y-7109390D01*
X12600610Y-6910000D02*
X12999390Y-6910000D01*
X12800000Y-8614610D02*
X12800000Y-9013390D01*
X12600610Y-8814000D02*
X12999390Y-8814000D01*
X14700000Y-4800610D02*
X14700000Y-5199390D01*
X14500610Y-5000000D02*
X14899390Y-5000000D01*
X14700000Y-6710610D02*
X14700000Y-7109390D01*
X14500610Y-6910000D02*
X14899390Y-6910000D01*
X14700000Y-8614610D02*
X14700000Y-9013390D01*
X14500610Y-8814000D02*
X14899390Y-8814000D01*
X16600000Y-4800610D02*
X16600000Y-5199390D01*
X16400610Y-5000000D02*
X16799390Y-5000000D01*
X16600000Y-6710610D02*
X16600000Y-7109390D01*
X16400610Y-6910000D02*
X16799390Y-6910000D01*
X16600000Y-8614610D02*
X16600000Y-9013390D01*
X16400610Y-8814000D02*
X16799390Y-8814000D01*
D11*
X8238277Y-10873984D02*
X8238277Y-10673984D01*
X8238277Y-10673984D02*
X8285896Y-10673984D01*
X8285896Y-10673984D02*
X8314467Y-10683508D01*
X8314467Y-10683508D02*
X8333515Y-10702555D01*
X8333515Y-10702555D02*
X8343039Y-10721603D01*
X8343039Y-10721603D02*
X8352562Y-10759698D01*
X8352562Y-10759698D02*
X8352562Y-10788270D01*
X8352562Y-10788270D02*
X8343039Y-10826365D01*
X8343039Y-10826365D02*
X8333515Y-10845412D01*
X8333515Y-10845412D02*
X8314467Y-10864460D01*
X8314467Y-10864460D02*
X8285896Y-10873984D01*
X8285896Y-10873984D02*
X8238277Y-10873984D01*
X8438277Y-10873984D02*
X8438277Y-10740650D01*
X8438277Y-10778746D02*
X8447801Y-10759698D01*
X8447801Y-10759698D02*
X8457324Y-10750174D01*
X8457324Y-10750174D02*
X8476372Y-10740650D01*
X8476372Y-10740650D02*
X8495420Y-10740650D01*
X8562086Y-10873984D02*
X8562086Y-10740650D01*
X8562086Y-10673984D02*
X8552563Y-10683508D01*
X8552563Y-10683508D02*
X8562086Y-10693031D01*
X8562086Y-10693031D02*
X8571610Y-10683508D01*
X8571610Y-10683508D02*
X8562086Y-10673984D01*
X8562086Y-10673984D02*
X8562086Y-10693031D01*
X8685896Y-10873984D02*
X8666848Y-10864460D01*
X8666848Y-10864460D02*
X8657324Y-10845412D01*
X8657324Y-10845412D02*
X8657324Y-10673984D01*
X8790658Y-10873984D02*
X8771610Y-10864460D01*
X8771610Y-10864460D02*
X8762086Y-10845412D01*
X8762086Y-10845412D02*
X8762086Y-10673984D01*
X9019229Y-10873984D02*
X9019229Y-10673984D01*
X9019229Y-10673984D02*
X9085896Y-10816841D01*
X9085896Y-10816841D02*
X9152563Y-10673984D01*
X9152563Y-10673984D02*
X9152563Y-10873984D01*
X9333515Y-10873984D02*
X9333515Y-10769222D01*
X9333515Y-10769222D02*
X9323991Y-10750174D01*
X9323991Y-10750174D02*
X9304944Y-10740650D01*
X9304944Y-10740650D02*
X9266848Y-10740650D01*
X9266848Y-10740650D02*
X9247801Y-10750174D01*
X9333515Y-10864460D02*
X9314467Y-10873984D01*
X9314467Y-10873984D02*
X9266848Y-10873984D01*
X9266848Y-10873984D02*
X9247801Y-10864460D01*
X9247801Y-10864460D02*
X9238277Y-10845412D01*
X9238277Y-10845412D02*
X9238277Y-10826365D01*
X9238277Y-10826365D02*
X9247801Y-10807317D01*
X9247801Y-10807317D02*
X9266848Y-10797793D01*
X9266848Y-10797793D02*
X9314467Y-10797793D01*
X9314467Y-10797793D02*
X9333515Y-10788270D01*
X9428753Y-10740650D02*
X9428753Y-10940650D01*
X9428753Y-10750174D02*
X9447801Y-10740650D01*
X9447801Y-10740650D02*
X9485896Y-10740650D01*
X9485896Y-10740650D02*
X9504944Y-10750174D01*
X9504944Y-10750174D02*
X9514467Y-10759698D01*
X9514467Y-10759698D02*
X9523991Y-10778746D01*
X9523991Y-10778746D02*
X9523991Y-10835889D01*
X9523991Y-10835889D02*
X9514467Y-10854936D01*
X9514467Y-10854936D02*
X9504944Y-10864460D01*
X9504944Y-10864460D02*
X9485896Y-10873984D01*
X9485896Y-10873984D02*
X9447801Y-10873984D01*
X9447801Y-10873984D02*
X9428753Y-10864460D01*
X9609705Y-10854936D02*
X9619229Y-10864460D01*
X9619229Y-10864460D02*
X9609705Y-10873984D01*
X9609705Y-10873984D02*
X9600182Y-10864460D01*
X9600182Y-10864460D02*
X9609705Y-10854936D01*
X9609705Y-10854936D02*
X9609705Y-10873984D01*
X9609705Y-10750174D02*
X9619229Y-10759698D01*
X9619229Y-10759698D02*
X9609705Y-10769222D01*
X9609705Y-10769222D02*
X9600182Y-10759698D01*
X9600182Y-10759698D02*
X9609705Y-10750174D01*
X9609705Y-10750174D02*
X9609705Y-10769222D01*
D12*
X7807320Y-11117410D02*
X7977500Y-11287590D01*
X7977500Y-11117410D02*
X7807320Y-11287590D01*
D11*
X8343039Y-11293984D02*
X8228753Y-11293984D01*
X8285896Y-11293984D02*
X8285896Y-11093984D01*
X8285896Y-11093984D02*
X8266848Y-11122555D01*
X8266848Y-11122555D02*
X8247801Y-11141603D01*
X8247801Y-11141603D02*
X8228753Y-11151127D01*
X8428753Y-11274936D02*
X8438277Y-11284460D01*
X8438277Y-11284460D02*
X8428753Y-11293984D01*
X8428753Y-11293984D02*
X8419229Y-11284460D01*
X8419229Y-11284460D02*
X8428753Y-11274936D01*
X8428753Y-11274936D02*
X8428753Y-11293984D01*
X8504944Y-11093984D02*
X8638277Y-11093984D01*
X8638277Y-11093984D02*
X8552563Y-11293984D01*
X8752563Y-11093984D02*
X8771610Y-11093984D01*
X8771610Y-11093984D02*
X8790658Y-11103508D01*
X8790658Y-11103508D02*
X8800182Y-11113031D01*
X8800182Y-11113031D02*
X8809705Y-11132079D01*
X8809705Y-11132079D02*
X8819229Y-11170174D01*
X8819229Y-11170174D02*
X8819229Y-11217793D01*
X8819229Y-11217793D02*
X8809705Y-11255888D01*
X8809705Y-11255888D02*
X8800182Y-11274936D01*
X8800182Y-11274936D02*
X8790658Y-11284460D01*
X8790658Y-11284460D02*
X8771610Y-11293984D01*
X8771610Y-11293984D02*
X8752563Y-11293984D01*
X8752563Y-11293984D02*
X8733515Y-11284460D01*
X8733515Y-11284460D02*
X8723991Y-11274936D01*
X8723991Y-11274936D02*
X8714467Y-11255888D01*
X8714467Y-11255888D02*
X8704944Y-11217793D01*
X8704944Y-11217793D02*
X8704944Y-11170174D01*
X8704944Y-11170174D02*
X8714467Y-11132079D01*
X8714467Y-11132079D02*
X8723991Y-11113031D01*
X8723991Y-11113031D02*
X8733515Y-11103508D01*
X8733515Y-11103508D02*
X8752563Y-11093984D01*
X8895420Y-11113031D02*
X8904944Y-11103508D01*
X8904944Y-11103508D02*
X8923991Y-11093984D01*
X8923991Y-11093984D02*
X8971610Y-11093984D01*
X8971610Y-11093984D02*
X8990658Y-11103508D01*
X8990658Y-11103508D02*
X9000182Y-11113031D01*
X9000182Y-11113031D02*
X9009705Y-11132079D01*
X9009705Y-11132079D02*
X9009705Y-11151127D01*
X9009705Y-11151127D02*
X9000182Y-11179698D01*
X9000182Y-11179698D02*
X8885896Y-11293984D01*
X8885896Y-11293984D02*
X9009705Y-11293984D01*
X9095420Y-11293984D02*
X9095420Y-11160650D01*
X9095420Y-11179698D02*
X9104944Y-11170174D01*
X9104944Y-11170174D02*
X9123991Y-11160650D01*
X9123991Y-11160650D02*
X9152563Y-11160650D01*
X9152563Y-11160650D02*
X9171610Y-11170174D01*
X9171610Y-11170174D02*
X9181134Y-11189222D01*
X9181134Y-11189222D02*
X9181134Y-11293984D01*
X9181134Y-11189222D02*
X9190658Y-11170174D01*
X9190658Y-11170174D02*
X9209705Y-11160650D01*
X9209705Y-11160650D02*
X9238277Y-11160650D01*
X9238277Y-11160650D02*
X9257325Y-11170174D01*
X9257325Y-11170174D02*
X9266848Y-11189222D01*
X9266848Y-11189222D02*
X9266848Y-11293984D01*
X9362086Y-11293984D02*
X9362086Y-11160650D01*
X9362086Y-11179698D02*
X9371610Y-11170174D01*
X9371610Y-11170174D02*
X9390658Y-11160650D01*
X9390658Y-11160650D02*
X9419229Y-11160650D01*
X9419229Y-11160650D02*
X9438277Y-11170174D01*
X9438277Y-11170174D02*
X9447801Y-11189222D01*
X9447801Y-11189222D02*
X9447801Y-11293984D01*
X9447801Y-11189222D02*
X9457325Y-11170174D01*
X9457325Y-11170174D02*
X9476372Y-11160650D01*
X9476372Y-11160650D02*
X9504944Y-11160650D01*
X9504944Y-11160650D02*
X9523991Y-11170174D01*
X9523991Y-11170174D02*
X9533515Y-11189222D01*
X9533515Y-11189222D02*
X9533515Y-11293984D01*
X9923991Y-11084460D02*
X9752563Y-11341603D01*
X10181134Y-11093984D02*
X10200182Y-11093984D01*
X10200182Y-11093984D02*
X10219229Y-11103508D01*
X10219229Y-11103508D02*
X10228753Y-11113031D01*
X10228753Y-11113031D02*
X10238277Y-11132079D01*
X10238277Y-11132079D02*
X10247801Y-11170174D01*
X10247801Y-11170174D02*
X10247801Y-11217793D01*
X10247801Y-11217793D02*
X10238277Y-11255888D01*
X10238277Y-11255888D02*
X10228753Y-11274936D01*
X10228753Y-11274936D02*
X10219229Y-11284460D01*
X10219229Y-11284460D02*
X10200182Y-11293984D01*
X10200182Y-11293984D02*
X10181134Y-11293984D01*
X10181134Y-11293984D02*
X10162087Y-11284460D01*
X10162087Y-11284460D02*
X10152563Y-11274936D01*
X10152563Y-11274936D02*
X10143039Y-11255888D01*
X10143039Y-11255888D02*
X10133515Y-11217793D01*
X10133515Y-11217793D02*
X10133515Y-11170174D01*
X10133515Y-11170174D02*
X10143039Y-11132079D01*
X10143039Y-11132079D02*
X10152563Y-11113031D01*
X10152563Y-11113031D02*
X10162087Y-11103508D01*
X10162087Y-11103508D02*
X10181134Y-11093984D01*
X10333515Y-11274936D02*
X10343039Y-11284460D01*
X10343039Y-11284460D02*
X10333515Y-11293984D01*
X10333515Y-11293984D02*
X10323991Y-11284460D01*
X10323991Y-11284460D02*
X10333515Y-11274936D01*
X10333515Y-11274936D02*
X10333515Y-11293984D01*
X10466848Y-11093984D02*
X10485896Y-11093984D01*
X10485896Y-11093984D02*
X10504944Y-11103508D01*
X10504944Y-11103508D02*
X10514468Y-11113031D01*
X10514468Y-11113031D02*
X10523991Y-11132079D01*
X10523991Y-11132079D02*
X10533515Y-11170174D01*
X10533515Y-11170174D02*
X10533515Y-11217793D01*
X10533515Y-11217793D02*
X10523991Y-11255888D01*
X10523991Y-11255888D02*
X10514468Y-11274936D01*
X10514468Y-11274936D02*
X10504944Y-11284460D01*
X10504944Y-11284460D02*
X10485896Y-11293984D01*
X10485896Y-11293984D02*
X10466848Y-11293984D01*
X10466848Y-11293984D02*
X10447801Y-11284460D01*
X10447801Y-11284460D02*
X10438277Y-11274936D01*
X10438277Y-11274936D02*
X10428753Y-11255888D01*
X10428753Y-11255888D02*
X10419229Y-11217793D01*
X10419229Y-11217793D02*
X10419229Y-11170174D01*
X10419229Y-11170174D02*
X10428753Y-11132079D01*
X10428753Y-11132079D02*
X10438277Y-11113031D01*
X10438277Y-11113031D02*
X10447801Y-11103508D01*
X10447801Y-11103508D02*
X10466848Y-11093984D01*
X10704944Y-11093984D02*
X10666848Y-11093984D01*
X10666848Y-11093984D02*
X10647801Y-11103508D01*
X10647801Y-11103508D02*
X10638277Y-11113031D01*
X10638277Y-11113031D02*
X10619229Y-11141603D01*
X10619229Y-11141603D02*
X10609706Y-11179698D01*
X10609706Y-11179698D02*
X10609706Y-11255888D01*
X10609706Y-11255888D02*
X10619229Y-11274936D01*
X10619229Y-11274936D02*
X10628753Y-11284460D01*
X10628753Y-11284460D02*
X10647801Y-11293984D01*
X10647801Y-11293984D02*
X10685896Y-11293984D01*
X10685896Y-11293984D02*
X10704944Y-11284460D01*
X10704944Y-11284460D02*
X10714468Y-11274936D01*
X10714468Y-11274936D02*
X10723991Y-11255888D01*
X10723991Y-11255888D02*
X10723991Y-11208269D01*
X10723991Y-11208269D02*
X10714468Y-11189222D01*
X10714468Y-11189222D02*
X10704944Y-11179698D01*
X10704944Y-11179698D02*
X10685896Y-11170174D01*
X10685896Y-11170174D02*
X10647801Y-11170174D01*
X10647801Y-11170174D02*
X10628753Y-11179698D01*
X10628753Y-11179698D02*
X10619229Y-11189222D01*
X10619229Y-11189222D02*
X10609706Y-11208269D01*
X10790658Y-11093984D02*
X10923991Y-11093984D01*
X10923991Y-11093984D02*
X10838277Y-11293984D01*
X11038277Y-11093984D02*
X11057325Y-11093984D01*
X11057325Y-11093984D02*
X11076372Y-11103508D01*
X11076372Y-11103508D02*
X11085896Y-11113031D01*
X11085896Y-11113031D02*
X11095420Y-11132079D01*
X11095420Y-11132079D02*
X11104944Y-11170174D01*
X11104944Y-11170174D02*
X11104944Y-11217793D01*
X11104944Y-11217793D02*
X11095420Y-11255888D01*
X11095420Y-11255888D02*
X11085896Y-11274936D01*
X11085896Y-11274936D02*
X11076372Y-11284460D01*
X11076372Y-11284460D02*
X11057325Y-11293984D01*
X11057325Y-11293984D02*
X11038277Y-11293984D01*
X11038277Y-11293984D02*
X11019229Y-11284460D01*
X11019229Y-11284460D02*
X11009706Y-11274936D01*
X11009706Y-11274936D02*
X11000182Y-11255888D01*
X11000182Y-11255888D02*
X10990658Y-11217793D01*
X10990658Y-11217793D02*
X10990658Y-11170174D01*
X10990658Y-11170174D02*
X11000182Y-11132079D01*
X11000182Y-11132079D02*
X11009706Y-11113031D01*
X11009706Y-11113031D02*
X11019229Y-11103508D01*
X11019229Y-11103508D02*
X11038277Y-11093984D01*
X11181134Y-11093984D02*
X11181134Y-11132079D01*
X11257325Y-11093984D02*
X11257325Y-11132079D01*
X11552563Y-11370174D02*
X11543039Y-11360650D01*
X11543039Y-11360650D02*
X11523991Y-11332079D01*
X11523991Y-11332079D02*
X11514468Y-11313031D01*
X11514468Y-11313031D02*
X11504944Y-11284460D01*
X11504944Y-11284460D02*
X11495420Y-11236841D01*
X11495420Y-11236841D02*
X11495420Y-11198746D01*
X11495420Y-11198746D02*
X11504944Y-11151127D01*
X11504944Y-11151127D02*
X11514468Y-11122555D01*
X11514468Y-11122555D02*
X11523991Y-11103508D01*
X11523991Y-11103508D02*
X11543039Y-11074936D01*
X11543039Y-11074936D02*
X11552563Y-11065412D01*
X11609706Y-11093984D02*
X11733515Y-11093984D01*
X11733515Y-11093984D02*
X11666848Y-11170174D01*
X11666848Y-11170174D02*
X11695420Y-11170174D01*
X11695420Y-11170174D02*
X11714468Y-11179698D01*
X11714468Y-11179698D02*
X11723991Y-11189222D01*
X11723991Y-11189222D02*
X11733515Y-11208269D01*
X11733515Y-11208269D02*
X11733515Y-11255888D01*
X11733515Y-11255888D02*
X11723991Y-11274936D01*
X11723991Y-11274936D02*
X11714468Y-11284460D01*
X11714468Y-11284460D02*
X11695420Y-11293984D01*
X11695420Y-11293984D02*
X11638277Y-11293984D01*
X11638277Y-11293984D02*
X11619229Y-11284460D01*
X11619229Y-11284460D02*
X11609706Y-11274936D01*
X11857325Y-11093984D02*
X11876372Y-11093984D01*
X11876372Y-11093984D02*
X11895420Y-11103508D01*
X11895420Y-11103508D02*
X11904944Y-11113031D01*
X11904944Y-11113031D02*
X11914468Y-11132079D01*
X11914468Y-11132079D02*
X11923991Y-11170174D01*
X11923991Y-11170174D02*
X11923991Y-11217793D01*
X11923991Y-11217793D02*
X11914468Y-11255888D01*
X11914468Y-11255888D02*
X11904944Y-11274936D01*
X11904944Y-11274936D02*
X11895420Y-11284460D01*
X11895420Y-11284460D02*
X11876372Y-11293984D01*
X11876372Y-11293984D02*
X11857325Y-11293984D01*
X11857325Y-11293984D02*
X11838277Y-11284460D01*
X11838277Y-11284460D02*
X11828753Y-11274936D01*
X11828753Y-11274936D02*
X11819229Y-11255888D01*
X11819229Y-11255888D02*
X11809706Y-11217793D01*
X11809706Y-11217793D02*
X11809706Y-11170174D01*
X11809706Y-11170174D02*
X11819229Y-11132079D01*
X11819229Y-11132079D02*
X11828753Y-11113031D01*
X11828753Y-11113031D02*
X11838277Y-11103508D01*
X11838277Y-11103508D02*
X11857325Y-11093984D01*
X12162087Y-11293984D02*
X12162087Y-11093984D01*
X12247801Y-11293984D02*
X12247801Y-11189222D01*
X12247801Y-11189222D02*
X12238277Y-11170174D01*
X12238277Y-11170174D02*
X12219230Y-11160650D01*
X12219230Y-11160650D02*
X12190658Y-11160650D01*
X12190658Y-11160650D02*
X12171610Y-11170174D01*
X12171610Y-11170174D02*
X12162087Y-11179698D01*
X12371610Y-11293984D02*
X12352563Y-11284460D01*
X12352563Y-11284460D02*
X12343039Y-11274936D01*
X12343039Y-11274936D02*
X12333515Y-11255888D01*
X12333515Y-11255888D02*
X12333515Y-11198746D01*
X12333515Y-11198746D02*
X12343039Y-11179698D01*
X12343039Y-11179698D02*
X12352563Y-11170174D01*
X12352563Y-11170174D02*
X12371610Y-11160650D01*
X12371610Y-11160650D02*
X12400182Y-11160650D01*
X12400182Y-11160650D02*
X12419230Y-11170174D01*
X12419230Y-11170174D02*
X12428753Y-11179698D01*
X12428753Y-11179698D02*
X12438277Y-11198746D01*
X12438277Y-11198746D02*
X12438277Y-11255888D01*
X12438277Y-11255888D02*
X12428753Y-11274936D01*
X12428753Y-11274936D02*
X12419230Y-11284460D01*
X12419230Y-11284460D02*
X12400182Y-11293984D01*
X12400182Y-11293984D02*
X12371610Y-11293984D01*
X12552563Y-11293984D02*
X12533515Y-11284460D01*
X12533515Y-11284460D02*
X12523991Y-11265412D01*
X12523991Y-11265412D02*
X12523991Y-11093984D01*
X12704944Y-11284460D02*
X12685896Y-11293984D01*
X12685896Y-11293984D02*
X12647801Y-11293984D01*
X12647801Y-11293984D02*
X12628753Y-11284460D01*
X12628753Y-11284460D02*
X12619230Y-11265412D01*
X12619230Y-11265412D02*
X12619230Y-11189222D01*
X12619230Y-11189222D02*
X12628753Y-11170174D01*
X12628753Y-11170174D02*
X12647801Y-11160650D01*
X12647801Y-11160650D02*
X12685896Y-11160650D01*
X12685896Y-11160650D02*
X12704944Y-11170174D01*
X12704944Y-11170174D02*
X12714468Y-11189222D01*
X12714468Y-11189222D02*
X12714468Y-11208269D01*
X12714468Y-11208269D02*
X12619230Y-11227317D01*
X12790658Y-11284460D02*
X12809706Y-11293984D01*
X12809706Y-11293984D02*
X12847801Y-11293984D01*
X12847801Y-11293984D02*
X12866849Y-11284460D01*
X12866849Y-11284460D02*
X12876372Y-11265412D01*
X12876372Y-11265412D02*
X12876372Y-11255888D01*
X12876372Y-11255888D02*
X12866849Y-11236841D01*
X12866849Y-11236841D02*
X12847801Y-11227317D01*
X12847801Y-11227317D02*
X12819230Y-11227317D01*
X12819230Y-11227317D02*
X12800182Y-11217793D01*
X12800182Y-11217793D02*
X12790658Y-11198746D01*
X12790658Y-11198746D02*
X12790658Y-11189222D01*
X12790658Y-11189222D02*
X12800182Y-11170174D01*
X12800182Y-11170174D02*
X12819230Y-11160650D01*
X12819230Y-11160650D02*
X12847801Y-11160650D01*
X12847801Y-11160650D02*
X12866849Y-11170174D01*
X12943039Y-11370174D02*
X12952563Y-11360650D01*
X12952563Y-11360650D02*
X12971611Y-11332079D01*
X12971611Y-11332079D02*
X12981134Y-11313031D01*
X12981134Y-11313031D02*
X12990658Y-11284460D01*
X12990658Y-11284460D02*
X13000182Y-11236841D01*
X13000182Y-11236841D02*
X13000182Y-11198746D01*
X13000182Y-11198746D02*
X12990658Y-11151127D01*
X12990658Y-11151127D02*
X12981134Y-11122555D01*
X12981134Y-11122555D02*
X12971611Y-11103508D01*
X12971611Y-11103508D02*
X12952563Y-11074936D01*
X12952563Y-11074936D02*
X12943039Y-11065412D01*
X13304944Y-11370174D02*
X13295420Y-11360650D01*
X13295420Y-11360650D02*
X13276372Y-11332079D01*
X13276372Y-11332079D02*
X13266849Y-11313031D01*
X13266849Y-11313031D02*
X13257325Y-11284460D01*
X13257325Y-11284460D02*
X13247801Y-11236841D01*
X13247801Y-11236841D02*
X13247801Y-11198746D01*
X13247801Y-11198746D02*
X13257325Y-11151127D01*
X13257325Y-11151127D02*
X13266849Y-11122555D01*
X13266849Y-11122555D02*
X13276372Y-11103508D01*
X13276372Y-11103508D02*
X13295420Y-11074936D01*
X13295420Y-11074936D02*
X13304944Y-11065412D01*
X13381134Y-11160650D02*
X13381134Y-11293984D01*
X13381134Y-11179698D02*
X13390658Y-11170174D01*
X13390658Y-11170174D02*
X13409706Y-11160650D01*
X13409706Y-11160650D02*
X13438277Y-11160650D01*
X13438277Y-11160650D02*
X13457325Y-11170174D01*
X13457325Y-11170174D02*
X13466849Y-11189222D01*
X13466849Y-11189222D02*
X13466849Y-11293984D01*
X13590658Y-11293984D02*
X13571611Y-11284460D01*
X13571611Y-11284460D02*
X13562087Y-11274936D01*
X13562087Y-11274936D02*
X13552563Y-11255888D01*
X13552563Y-11255888D02*
X13552563Y-11198746D01*
X13552563Y-11198746D02*
X13562087Y-11179698D01*
X13562087Y-11179698D02*
X13571611Y-11170174D01*
X13571611Y-11170174D02*
X13590658Y-11160650D01*
X13590658Y-11160650D02*
X13619230Y-11160650D01*
X13619230Y-11160650D02*
X13638277Y-11170174D01*
X13638277Y-11170174D02*
X13647801Y-11179698D01*
X13647801Y-11179698D02*
X13657325Y-11198746D01*
X13657325Y-11198746D02*
X13657325Y-11255888D01*
X13657325Y-11255888D02*
X13647801Y-11274936D01*
X13647801Y-11274936D02*
X13638277Y-11284460D01*
X13638277Y-11284460D02*
X13619230Y-11293984D01*
X13619230Y-11293984D02*
X13590658Y-11293984D01*
X13714468Y-11160650D02*
X13790658Y-11160650D01*
X13743039Y-11093984D02*
X13743039Y-11265412D01*
X13743039Y-11265412D02*
X13752563Y-11284460D01*
X13752563Y-11284460D02*
X13771611Y-11293984D01*
X13771611Y-11293984D02*
X13790658Y-11293984D01*
X14009706Y-11160650D02*
X14009706Y-11360650D01*
X14009706Y-11170174D02*
X14028753Y-11160650D01*
X14028753Y-11160650D02*
X14066849Y-11160650D01*
X14066849Y-11160650D02*
X14085896Y-11170174D01*
X14085896Y-11170174D02*
X14095420Y-11179698D01*
X14095420Y-11179698D02*
X14104944Y-11198746D01*
X14104944Y-11198746D02*
X14104944Y-11255888D01*
X14104944Y-11255888D02*
X14095420Y-11274936D01*
X14095420Y-11274936D02*
X14085896Y-11284460D01*
X14085896Y-11284460D02*
X14066849Y-11293984D01*
X14066849Y-11293984D02*
X14028753Y-11293984D01*
X14028753Y-11293984D02*
X14009706Y-11284460D01*
X14219230Y-11293984D02*
X14200182Y-11284460D01*
X14200182Y-11284460D02*
X14190658Y-11265412D01*
X14190658Y-11265412D02*
X14190658Y-11093984D01*
X14381134Y-11293984D02*
X14381134Y-11189222D01*
X14381134Y-11189222D02*
X14371611Y-11170174D01*
X14371611Y-11170174D02*
X14352563Y-11160650D01*
X14352563Y-11160650D02*
X14314468Y-11160650D01*
X14314468Y-11160650D02*
X14295420Y-11170174D01*
X14381134Y-11284460D02*
X14362087Y-11293984D01*
X14362087Y-11293984D02*
X14314468Y-11293984D01*
X14314468Y-11293984D02*
X14295420Y-11284460D01*
X14295420Y-11284460D02*
X14285896Y-11265412D01*
X14285896Y-11265412D02*
X14285896Y-11246365D01*
X14285896Y-11246365D02*
X14295420Y-11227317D01*
X14295420Y-11227317D02*
X14314468Y-11217793D01*
X14314468Y-11217793D02*
X14362087Y-11217793D01*
X14362087Y-11217793D02*
X14381134Y-11208269D01*
X14447801Y-11160650D02*
X14523992Y-11160650D01*
X14476373Y-11093984D02*
X14476373Y-11265412D01*
X14476373Y-11265412D02*
X14485896Y-11284460D01*
X14485896Y-11284460D02*
X14504944Y-11293984D01*
X14504944Y-11293984D02*
X14523992Y-11293984D01*
X14666849Y-11284460D02*
X14647801Y-11293984D01*
X14647801Y-11293984D02*
X14609706Y-11293984D01*
X14609706Y-11293984D02*
X14590658Y-11284460D01*
X14590658Y-11284460D02*
X14581134Y-11265412D01*
X14581134Y-11265412D02*
X14581134Y-11189222D01*
X14581134Y-11189222D02*
X14590658Y-11170174D01*
X14590658Y-11170174D02*
X14609706Y-11160650D01*
X14609706Y-11160650D02*
X14647801Y-11160650D01*
X14647801Y-11160650D02*
X14666849Y-11170174D01*
X14666849Y-11170174D02*
X14676373Y-11189222D01*
X14676373Y-11189222D02*
X14676373Y-11208269D01*
X14676373Y-11208269D02*
X14581134Y-11227317D01*
X14847801Y-11293984D02*
X14847801Y-11093984D01*
X14847801Y-11284460D02*
X14828754Y-11293984D01*
X14828754Y-11293984D02*
X14790658Y-11293984D01*
X14790658Y-11293984D02*
X14771611Y-11284460D01*
X14771611Y-11284460D02*
X14762087Y-11274936D01*
X14762087Y-11274936D02*
X14752563Y-11255888D01*
X14752563Y-11255888D02*
X14752563Y-11198746D01*
X14752563Y-11198746D02*
X14762087Y-11179698D01*
X14762087Y-11179698D02*
X14771611Y-11170174D01*
X14771611Y-11170174D02*
X14790658Y-11160650D01*
X14790658Y-11160650D02*
X14828754Y-11160650D01*
X14828754Y-11160650D02*
X14847801Y-11170174D01*
X14923992Y-11370174D02*
X14933515Y-11360650D01*
X14933515Y-11360650D02*
X14952563Y-11332079D01*
X14952563Y-11332079D02*
X14962087Y-11313031D01*
X14962087Y-11313031D02*
X14971611Y-11284460D01*
X14971611Y-11284460D02*
X14981134Y-11236841D01*
X14981134Y-11236841D02*
X14981134Y-11198746D01*
X14981134Y-11198746D02*
X14971611Y-11151127D01*
X14971611Y-11151127D02*
X14962087Y-11122555D01*
X14962087Y-11122555D02*
X14952563Y-11103508D01*
X14952563Y-11103508D02*
X14933515Y-11074936D01*
X14933515Y-11074936D02*
X14923992Y-11065412D01*
X7977500Y-11492680D02*
G75*
G02*
X7777500Y-11492680I-100000J0D01*
G01*
X7777500Y-11492680D02*
G75*
G02*
X7977500Y-11492680I100000J0D01*
G01*
X8219229Y-11384164D02*
X8343039Y-11384164D01*
X8343039Y-11384164D02*
X8276372Y-11460354D01*
X8276372Y-11460354D02*
X8304943Y-11460354D01*
X8304943Y-11460354D02*
X8323991Y-11469878D01*
X8323991Y-11469878D02*
X8333515Y-11479402D01*
X8333515Y-11479402D02*
X8343039Y-11498449D01*
X8343039Y-11498449D02*
X8343039Y-11546068D01*
X8343039Y-11546068D02*
X8333515Y-11565116D01*
X8333515Y-11565116D02*
X8323991Y-11574640D01*
X8323991Y-11574640D02*
X8304943Y-11584164D01*
X8304943Y-11584164D02*
X8247801Y-11584164D01*
X8247801Y-11584164D02*
X8228753Y-11574640D01*
X8228753Y-11574640D02*
X8219229Y-11565116D01*
X8428753Y-11565116D02*
X8438277Y-11574640D01*
X8438277Y-11574640D02*
X8428753Y-11584164D01*
X8428753Y-11584164D02*
X8419229Y-11574640D01*
X8419229Y-11574640D02*
X8428753Y-11565116D01*
X8428753Y-11565116D02*
X8428753Y-11584164D01*
X8562086Y-11384164D02*
X8581134Y-11384164D01*
X8581134Y-11384164D02*
X8600182Y-11393688D01*
X8600182Y-11393688D02*
X8609705Y-11403211D01*
X8609705Y-11403211D02*
X8619229Y-11422259D01*
X8619229Y-11422259D02*
X8628753Y-11460354D01*
X8628753Y-11460354D02*
X8628753Y-11507973D01*
X8628753Y-11507973D02*
X8619229Y-11546068D01*
X8619229Y-11546068D02*
X8609705Y-11565116D01*
X8609705Y-11565116D02*
X8600182Y-11574640D01*
X8600182Y-11574640D02*
X8581134Y-11584164D01*
X8581134Y-11584164D02*
X8562086Y-11584164D01*
X8562086Y-11584164D02*
X8543039Y-11574640D01*
X8543039Y-11574640D02*
X8533515Y-11565116D01*
X8533515Y-11565116D02*
X8523991Y-11546068D01*
X8523991Y-11546068D02*
X8514467Y-11507973D01*
X8514467Y-11507973D02*
X8514467Y-11460354D01*
X8514467Y-11460354D02*
X8523991Y-11422259D01*
X8523991Y-11422259D02*
X8533515Y-11403211D01*
X8533515Y-11403211D02*
X8543039Y-11393688D01*
X8543039Y-11393688D02*
X8562086Y-11384164D01*
X8752563Y-11384164D02*
X8771610Y-11384164D01*
X8771610Y-11384164D02*
X8790658Y-11393688D01*
X8790658Y-11393688D02*
X8800182Y-11403211D01*
X8800182Y-11403211D02*
X8809705Y-11422259D01*
X8809705Y-11422259D02*
X8819229Y-11460354D01*
X8819229Y-11460354D02*
X8819229Y-11507973D01*
X8819229Y-11507973D02*
X8809705Y-11546068D01*
X8809705Y-11546068D02*
X8800182Y-11565116D01*
X8800182Y-11565116D02*
X8790658Y-11574640D01*
X8790658Y-11574640D02*
X8771610Y-11584164D01*
X8771610Y-11584164D02*
X8752563Y-11584164D01*
X8752563Y-11584164D02*
X8733515Y-11574640D01*
X8733515Y-11574640D02*
X8723991Y-11565116D01*
X8723991Y-11565116D02*
X8714467Y-11546068D01*
X8714467Y-11546068D02*
X8704944Y-11507973D01*
X8704944Y-11507973D02*
X8704944Y-11460354D01*
X8704944Y-11460354D02*
X8714467Y-11422259D01*
X8714467Y-11422259D02*
X8723991Y-11403211D01*
X8723991Y-11403211D02*
X8733515Y-11393688D01*
X8733515Y-11393688D02*
X8752563Y-11384164D01*
X8943039Y-11384164D02*
X8962086Y-11384164D01*
X8962086Y-11384164D02*
X8981134Y-11393688D01*
X8981134Y-11393688D02*
X8990658Y-11403211D01*
X8990658Y-11403211D02*
X9000182Y-11422259D01*
X9000182Y-11422259D02*
X9009705Y-11460354D01*
X9009705Y-11460354D02*
X9009705Y-11507973D01*
X9009705Y-11507973D02*
X9000182Y-11546068D01*
X9000182Y-11546068D02*
X8990658Y-11565116D01*
X8990658Y-11565116D02*
X8981134Y-11574640D01*
X8981134Y-11574640D02*
X8962086Y-11584164D01*
X8962086Y-11584164D02*
X8943039Y-11584164D01*
X8943039Y-11584164D02*
X8923991Y-11574640D01*
X8923991Y-11574640D02*
X8914467Y-11565116D01*
X8914467Y-11565116D02*
X8904944Y-11546068D01*
X8904944Y-11546068D02*
X8895420Y-11507973D01*
X8895420Y-11507973D02*
X8895420Y-11460354D01*
X8895420Y-11460354D02*
X8904944Y-11422259D01*
X8904944Y-11422259D02*
X8914467Y-11403211D01*
X8914467Y-11403211D02*
X8923991Y-11393688D01*
X8923991Y-11393688D02*
X8943039Y-11384164D01*
X9095420Y-11584164D02*
X9095420Y-11450830D01*
X9095420Y-11469878D02*
X9104944Y-11460354D01*
X9104944Y-11460354D02*
X9123991Y-11450830D01*
X9123991Y-11450830D02*
X9152563Y-11450830D01*
X9152563Y-11450830D02*
X9171610Y-11460354D01*
X9171610Y-11460354D02*
X9181134Y-11479402D01*
X9181134Y-11479402D02*
X9181134Y-11584164D01*
X9181134Y-11479402D02*
X9190658Y-11460354D01*
X9190658Y-11460354D02*
X9209705Y-11450830D01*
X9209705Y-11450830D02*
X9238277Y-11450830D01*
X9238277Y-11450830D02*
X9257325Y-11460354D01*
X9257325Y-11460354D02*
X9266848Y-11479402D01*
X9266848Y-11479402D02*
X9266848Y-11584164D01*
X9362086Y-11584164D02*
X9362086Y-11450830D01*
X9362086Y-11469878D02*
X9371610Y-11460354D01*
X9371610Y-11460354D02*
X9390658Y-11450830D01*
X9390658Y-11450830D02*
X9419229Y-11450830D01*
X9419229Y-11450830D02*
X9438277Y-11460354D01*
X9438277Y-11460354D02*
X9447801Y-11479402D01*
X9447801Y-11479402D02*
X9447801Y-11584164D01*
X9447801Y-11479402D02*
X9457325Y-11460354D01*
X9457325Y-11460354D02*
X9476372Y-11450830D01*
X9476372Y-11450830D02*
X9504944Y-11450830D01*
X9504944Y-11450830D02*
X9523991Y-11460354D01*
X9523991Y-11460354D02*
X9533515Y-11479402D01*
X9533515Y-11479402D02*
X9533515Y-11584164D01*
X9923991Y-11374640D02*
X9752563Y-11631783D01*
X10181134Y-11384164D02*
X10200182Y-11384164D01*
X10200182Y-11384164D02*
X10219229Y-11393688D01*
X10219229Y-11393688D02*
X10228753Y-11403211D01*
X10228753Y-11403211D02*
X10238277Y-11422259D01*
X10238277Y-11422259D02*
X10247801Y-11460354D01*
X10247801Y-11460354D02*
X10247801Y-11507973D01*
X10247801Y-11507973D02*
X10238277Y-11546068D01*
X10238277Y-11546068D02*
X10228753Y-11565116D01*
X10228753Y-11565116D02*
X10219229Y-11574640D01*
X10219229Y-11574640D02*
X10200182Y-11584164D01*
X10200182Y-11584164D02*
X10181134Y-11584164D01*
X10181134Y-11584164D02*
X10162087Y-11574640D01*
X10162087Y-11574640D02*
X10152563Y-11565116D01*
X10152563Y-11565116D02*
X10143039Y-11546068D01*
X10143039Y-11546068D02*
X10133515Y-11507973D01*
X10133515Y-11507973D02*
X10133515Y-11460354D01*
X10133515Y-11460354D02*
X10143039Y-11422259D01*
X10143039Y-11422259D02*
X10152563Y-11403211D01*
X10152563Y-11403211D02*
X10162087Y-11393688D01*
X10162087Y-11393688D02*
X10181134Y-11384164D01*
X10333515Y-11565116D02*
X10343039Y-11574640D01*
X10343039Y-11574640D02*
X10333515Y-11584164D01*
X10333515Y-11584164D02*
X10323991Y-11574640D01*
X10323991Y-11574640D02*
X10333515Y-11565116D01*
X10333515Y-11565116D02*
X10333515Y-11584164D01*
X10533515Y-11584164D02*
X10419229Y-11584164D01*
X10476372Y-11584164D02*
X10476372Y-11384164D01*
X10476372Y-11384164D02*
X10457325Y-11412735D01*
X10457325Y-11412735D02*
X10438277Y-11431783D01*
X10438277Y-11431783D02*
X10419229Y-11441307D01*
X10723991Y-11584164D02*
X10609706Y-11584164D01*
X10666848Y-11584164D02*
X10666848Y-11384164D01*
X10666848Y-11384164D02*
X10647801Y-11412735D01*
X10647801Y-11412735D02*
X10628753Y-11431783D01*
X10628753Y-11431783D02*
X10609706Y-11441307D01*
X10838277Y-11469878D02*
X10819229Y-11460354D01*
X10819229Y-11460354D02*
X10809706Y-11450830D01*
X10809706Y-11450830D02*
X10800182Y-11431783D01*
X10800182Y-11431783D02*
X10800182Y-11422259D01*
X10800182Y-11422259D02*
X10809706Y-11403211D01*
X10809706Y-11403211D02*
X10819229Y-11393688D01*
X10819229Y-11393688D02*
X10838277Y-11384164D01*
X10838277Y-11384164D02*
X10876372Y-11384164D01*
X10876372Y-11384164D02*
X10895420Y-11393688D01*
X10895420Y-11393688D02*
X10904944Y-11403211D01*
X10904944Y-11403211D02*
X10914468Y-11422259D01*
X10914468Y-11422259D02*
X10914468Y-11431783D01*
X10914468Y-11431783D02*
X10904944Y-11450830D01*
X10904944Y-11450830D02*
X10895420Y-11460354D01*
X10895420Y-11460354D02*
X10876372Y-11469878D01*
X10876372Y-11469878D02*
X10838277Y-11469878D01*
X10838277Y-11469878D02*
X10819229Y-11479402D01*
X10819229Y-11479402D02*
X10809706Y-11488926D01*
X10809706Y-11488926D02*
X10800182Y-11507973D01*
X10800182Y-11507973D02*
X10800182Y-11546068D01*
X10800182Y-11546068D02*
X10809706Y-11565116D01*
X10809706Y-11565116D02*
X10819229Y-11574640D01*
X10819229Y-11574640D02*
X10838277Y-11584164D01*
X10838277Y-11584164D02*
X10876372Y-11584164D01*
X10876372Y-11584164D02*
X10895420Y-11574640D01*
X10895420Y-11574640D02*
X10904944Y-11565116D01*
X10904944Y-11565116D02*
X10914468Y-11546068D01*
X10914468Y-11546068D02*
X10914468Y-11507973D01*
X10914468Y-11507973D02*
X10904944Y-11488926D01*
X10904944Y-11488926D02*
X10895420Y-11479402D01*
X10895420Y-11479402D02*
X10876372Y-11469878D01*
X11104944Y-11584164D02*
X10990658Y-11584164D01*
X11047801Y-11584164D02*
X11047801Y-11384164D01*
X11047801Y-11384164D02*
X11028753Y-11412735D01*
X11028753Y-11412735D02*
X11009706Y-11431783D01*
X11009706Y-11431783D02*
X10990658Y-11441307D01*
X11181134Y-11384164D02*
X11181134Y-11422259D01*
X11257325Y-11384164D02*
X11257325Y-11422259D01*
X11552563Y-11660354D02*
X11543039Y-11650830D01*
X11543039Y-11650830D02*
X11523991Y-11622259D01*
X11523991Y-11622259D02*
X11514468Y-11603211D01*
X11514468Y-11603211D02*
X11504944Y-11574640D01*
X11504944Y-11574640D02*
X11495420Y-11527021D01*
X11495420Y-11527021D02*
X11495420Y-11488926D01*
X11495420Y-11488926D02*
X11504944Y-11441307D01*
X11504944Y-11441307D02*
X11514468Y-11412735D01*
X11514468Y-11412735D02*
X11523991Y-11393688D01*
X11523991Y-11393688D02*
X11543039Y-11365116D01*
X11543039Y-11365116D02*
X11552563Y-11355592D01*
X11714468Y-11384164D02*
X11676372Y-11384164D01*
X11676372Y-11384164D02*
X11657325Y-11393688D01*
X11657325Y-11393688D02*
X11647801Y-11403211D01*
X11647801Y-11403211D02*
X11628753Y-11431783D01*
X11628753Y-11431783D02*
X11619229Y-11469878D01*
X11619229Y-11469878D02*
X11619229Y-11546068D01*
X11619229Y-11546068D02*
X11628753Y-11565116D01*
X11628753Y-11565116D02*
X11638277Y-11574640D01*
X11638277Y-11574640D02*
X11657325Y-11584164D01*
X11657325Y-11584164D02*
X11695420Y-11584164D01*
X11695420Y-11584164D02*
X11714468Y-11574640D01*
X11714468Y-11574640D02*
X11723991Y-11565116D01*
X11723991Y-11565116D02*
X11733515Y-11546068D01*
X11733515Y-11546068D02*
X11733515Y-11498449D01*
X11733515Y-11498449D02*
X11723991Y-11479402D01*
X11723991Y-11479402D02*
X11714468Y-11469878D01*
X11714468Y-11469878D02*
X11695420Y-11460354D01*
X11695420Y-11460354D02*
X11657325Y-11460354D01*
X11657325Y-11460354D02*
X11638277Y-11469878D01*
X11638277Y-11469878D02*
X11628753Y-11479402D01*
X11628753Y-11479402D02*
X11619229Y-11498449D01*
X11857325Y-11384164D02*
X11876372Y-11384164D01*
X11876372Y-11384164D02*
X11895420Y-11393688D01*
X11895420Y-11393688D02*
X11904944Y-11403211D01*
X11904944Y-11403211D02*
X11914468Y-11422259D01*
X11914468Y-11422259D02*
X11923991Y-11460354D01*
X11923991Y-11460354D02*
X11923991Y-11507973D01*
X11923991Y-11507973D02*
X11914468Y-11546068D01*
X11914468Y-11546068D02*
X11904944Y-11565116D01*
X11904944Y-11565116D02*
X11895420Y-11574640D01*
X11895420Y-11574640D02*
X11876372Y-11584164D01*
X11876372Y-11584164D02*
X11857325Y-11584164D01*
X11857325Y-11584164D02*
X11838277Y-11574640D01*
X11838277Y-11574640D02*
X11828753Y-11565116D01*
X11828753Y-11565116D02*
X11819229Y-11546068D01*
X11819229Y-11546068D02*
X11809706Y-11507973D01*
X11809706Y-11507973D02*
X11809706Y-11460354D01*
X11809706Y-11460354D02*
X11819229Y-11422259D01*
X11819229Y-11422259D02*
X11828753Y-11403211D01*
X11828753Y-11403211D02*
X11838277Y-11393688D01*
X11838277Y-11393688D02*
X11857325Y-11384164D01*
X12162087Y-11584164D02*
X12162087Y-11384164D01*
X12247801Y-11584164D02*
X12247801Y-11479402D01*
X12247801Y-11479402D02*
X12238277Y-11460354D01*
X12238277Y-11460354D02*
X12219230Y-11450830D01*
X12219230Y-11450830D02*
X12190658Y-11450830D01*
X12190658Y-11450830D02*
X12171610Y-11460354D01*
X12171610Y-11460354D02*
X12162087Y-11469878D01*
X12371610Y-11584164D02*
X12352563Y-11574640D01*
X12352563Y-11574640D02*
X12343039Y-11565116D01*
X12343039Y-11565116D02*
X12333515Y-11546068D01*
X12333515Y-11546068D02*
X12333515Y-11488926D01*
X12333515Y-11488926D02*
X12343039Y-11469878D01*
X12343039Y-11469878D02*
X12352563Y-11460354D01*
X12352563Y-11460354D02*
X12371610Y-11450830D01*
X12371610Y-11450830D02*
X12400182Y-11450830D01*
X12400182Y-11450830D02*
X12419230Y-11460354D01*
X12419230Y-11460354D02*
X12428753Y-11469878D01*
X12428753Y-11469878D02*
X12438277Y-11488926D01*
X12438277Y-11488926D02*
X12438277Y-11546068D01*
X12438277Y-11546068D02*
X12428753Y-11565116D01*
X12428753Y-11565116D02*
X12419230Y-11574640D01*
X12419230Y-11574640D02*
X12400182Y-11584164D01*
X12400182Y-11584164D02*
X12371610Y-11584164D01*
X12552563Y-11584164D02*
X12533515Y-11574640D01*
X12533515Y-11574640D02*
X12523991Y-11555592D01*
X12523991Y-11555592D02*
X12523991Y-11384164D01*
X12704944Y-11574640D02*
X12685896Y-11584164D01*
X12685896Y-11584164D02*
X12647801Y-11584164D01*
X12647801Y-11584164D02*
X12628753Y-11574640D01*
X12628753Y-11574640D02*
X12619230Y-11555592D01*
X12619230Y-11555592D02*
X12619230Y-11479402D01*
X12619230Y-11479402D02*
X12628753Y-11460354D01*
X12628753Y-11460354D02*
X12647801Y-11450830D01*
X12647801Y-11450830D02*
X12685896Y-11450830D01*
X12685896Y-11450830D02*
X12704944Y-11460354D01*
X12704944Y-11460354D02*
X12714468Y-11479402D01*
X12714468Y-11479402D02*
X12714468Y-11498449D01*
X12714468Y-11498449D02*
X12619230Y-11517497D01*
X12790658Y-11574640D02*
X12809706Y-11584164D01*
X12809706Y-11584164D02*
X12847801Y-11584164D01*
X12847801Y-11584164D02*
X12866849Y-11574640D01*
X12866849Y-11574640D02*
X12876372Y-11555592D01*
X12876372Y-11555592D02*
X12876372Y-11546068D01*
X12876372Y-11546068D02*
X12866849Y-11527021D01*
X12866849Y-11527021D02*
X12847801Y-11517497D01*
X12847801Y-11517497D02*
X12819230Y-11517497D01*
X12819230Y-11517497D02*
X12800182Y-11507973D01*
X12800182Y-11507973D02*
X12790658Y-11488926D01*
X12790658Y-11488926D02*
X12790658Y-11479402D01*
X12790658Y-11479402D02*
X12800182Y-11460354D01*
X12800182Y-11460354D02*
X12819230Y-11450830D01*
X12819230Y-11450830D02*
X12847801Y-11450830D01*
X12847801Y-11450830D02*
X12866849Y-11460354D01*
X12943039Y-11660354D02*
X12952563Y-11650830D01*
X12952563Y-11650830D02*
X12971611Y-11622259D01*
X12971611Y-11622259D02*
X12981134Y-11603211D01*
X12981134Y-11603211D02*
X12990658Y-11574640D01*
X12990658Y-11574640D02*
X13000182Y-11527021D01*
X13000182Y-11527021D02*
X13000182Y-11488926D01*
X13000182Y-11488926D02*
X12990658Y-11441307D01*
X12990658Y-11441307D02*
X12981134Y-11412735D01*
X12981134Y-11412735D02*
X12971611Y-11393688D01*
X12971611Y-11393688D02*
X12952563Y-11365116D01*
X12952563Y-11365116D02*
X12943039Y-11355592D01*
X13304944Y-11660354D02*
X13295420Y-11650830D01*
X13295420Y-11650830D02*
X13276372Y-11622259D01*
X13276372Y-11622259D02*
X13266849Y-11603211D01*
X13266849Y-11603211D02*
X13257325Y-11574640D01*
X13257325Y-11574640D02*
X13247801Y-11527021D01*
X13247801Y-11527021D02*
X13247801Y-11488926D01*
X13247801Y-11488926D02*
X13257325Y-11441307D01*
X13257325Y-11441307D02*
X13266849Y-11412735D01*
X13266849Y-11412735D02*
X13276372Y-11393688D01*
X13276372Y-11393688D02*
X13295420Y-11365116D01*
X13295420Y-11365116D02*
X13304944Y-11355592D01*
X13381134Y-11450830D02*
X13381134Y-11584164D01*
X13381134Y-11469878D02*
X13390658Y-11460354D01*
X13390658Y-11460354D02*
X13409706Y-11450830D01*
X13409706Y-11450830D02*
X13438277Y-11450830D01*
X13438277Y-11450830D02*
X13457325Y-11460354D01*
X13457325Y-11460354D02*
X13466849Y-11479402D01*
X13466849Y-11479402D02*
X13466849Y-11584164D01*
X13590658Y-11584164D02*
X13571611Y-11574640D01*
X13571611Y-11574640D02*
X13562087Y-11565116D01*
X13562087Y-11565116D02*
X13552563Y-11546068D01*
X13552563Y-11546068D02*
X13552563Y-11488926D01*
X13552563Y-11488926D02*
X13562087Y-11469878D01*
X13562087Y-11469878D02*
X13571611Y-11460354D01*
X13571611Y-11460354D02*
X13590658Y-11450830D01*
X13590658Y-11450830D02*
X13619230Y-11450830D01*
X13619230Y-11450830D02*
X13638277Y-11460354D01*
X13638277Y-11460354D02*
X13647801Y-11469878D01*
X13647801Y-11469878D02*
X13657325Y-11488926D01*
X13657325Y-11488926D02*
X13657325Y-11546068D01*
X13657325Y-11546068D02*
X13647801Y-11565116D01*
X13647801Y-11565116D02*
X13638277Y-11574640D01*
X13638277Y-11574640D02*
X13619230Y-11584164D01*
X13619230Y-11584164D02*
X13590658Y-11584164D01*
X13714468Y-11450830D02*
X13790658Y-11450830D01*
X13743039Y-11384164D02*
X13743039Y-11555592D01*
X13743039Y-11555592D02*
X13752563Y-11574640D01*
X13752563Y-11574640D02*
X13771611Y-11584164D01*
X13771611Y-11584164D02*
X13790658Y-11584164D01*
X14009706Y-11450830D02*
X14009706Y-11650830D01*
X14009706Y-11460354D02*
X14028753Y-11450830D01*
X14028753Y-11450830D02*
X14066849Y-11450830D01*
X14066849Y-11450830D02*
X14085896Y-11460354D01*
X14085896Y-11460354D02*
X14095420Y-11469878D01*
X14095420Y-11469878D02*
X14104944Y-11488926D01*
X14104944Y-11488926D02*
X14104944Y-11546068D01*
X14104944Y-11546068D02*
X14095420Y-11565116D01*
X14095420Y-11565116D02*
X14085896Y-11574640D01*
X14085896Y-11574640D02*
X14066849Y-11584164D01*
X14066849Y-11584164D02*
X14028753Y-11584164D01*
X14028753Y-11584164D02*
X14009706Y-11574640D01*
X14219230Y-11584164D02*
X14200182Y-11574640D01*
X14200182Y-11574640D02*
X14190658Y-11555592D01*
X14190658Y-11555592D02*
X14190658Y-11384164D01*
X14381134Y-11584164D02*
X14381134Y-11479402D01*
X14381134Y-11479402D02*
X14371611Y-11460354D01*
X14371611Y-11460354D02*
X14352563Y-11450830D01*
X14352563Y-11450830D02*
X14314468Y-11450830D01*
X14314468Y-11450830D02*
X14295420Y-11460354D01*
X14381134Y-11574640D02*
X14362087Y-11584164D01*
X14362087Y-11584164D02*
X14314468Y-11584164D01*
X14314468Y-11584164D02*
X14295420Y-11574640D01*
X14295420Y-11574640D02*
X14285896Y-11555592D01*
X14285896Y-11555592D02*
X14285896Y-11536545D01*
X14285896Y-11536545D02*
X14295420Y-11517497D01*
X14295420Y-11517497D02*
X14314468Y-11507973D01*
X14314468Y-11507973D02*
X14362087Y-11507973D01*
X14362087Y-11507973D02*
X14381134Y-11498449D01*
X14447801Y-11450830D02*
X14523992Y-11450830D01*
X14476373Y-11384164D02*
X14476373Y-11555592D01*
X14476373Y-11555592D02*
X14485896Y-11574640D01*
X14485896Y-11574640D02*
X14504944Y-11584164D01*
X14504944Y-11584164D02*
X14523992Y-11584164D01*
X14666849Y-11574640D02*
X14647801Y-11584164D01*
X14647801Y-11584164D02*
X14609706Y-11584164D01*
X14609706Y-11584164D02*
X14590658Y-11574640D01*
X14590658Y-11574640D02*
X14581134Y-11555592D01*
X14581134Y-11555592D02*
X14581134Y-11479402D01*
X14581134Y-11479402D02*
X14590658Y-11460354D01*
X14590658Y-11460354D02*
X14609706Y-11450830D01*
X14609706Y-11450830D02*
X14647801Y-11450830D01*
X14647801Y-11450830D02*
X14666849Y-11460354D01*
X14666849Y-11460354D02*
X14676373Y-11479402D01*
X14676373Y-11479402D02*
X14676373Y-11498449D01*
X14676373Y-11498449D02*
X14581134Y-11517497D01*
X14847801Y-11584164D02*
X14847801Y-11384164D01*
X14847801Y-11574640D02*
X14828754Y-11584164D01*
X14828754Y-11584164D02*
X14790658Y-11584164D01*
X14790658Y-11584164D02*
X14771611Y-11574640D01*
X14771611Y-11574640D02*
X14762087Y-11565116D01*
X14762087Y-11565116D02*
X14752563Y-11546068D01*
X14752563Y-11546068D02*
X14752563Y-11488926D01*
X14752563Y-11488926D02*
X14762087Y-11469878D01*
X14762087Y-11469878D02*
X14771611Y-11460354D01*
X14771611Y-11460354D02*
X14790658Y-11450830D01*
X14790658Y-11450830D02*
X14828754Y-11450830D01*
X14828754Y-11450830D02*
X14847801Y-11460354D01*
X14923992Y-11660354D02*
X14933515Y-11650830D01*
X14933515Y-11650830D02*
X14952563Y-11622259D01*
X14952563Y-11622259D02*
X14962087Y-11603211D01*
X14962087Y-11603211D02*
X14971611Y-11574640D01*
X14971611Y-11574640D02*
X14981134Y-11527021D01*
X14981134Y-11527021D02*
X14981134Y-11488926D01*
X14981134Y-11488926D02*
X14971611Y-11441307D01*
X14971611Y-11441307D02*
X14962087Y-11412735D01*
X14962087Y-11412735D02*
X14952563Y-11393688D01*
X14952563Y-11393688D02*
X14933515Y-11365116D01*
X14933515Y-11365116D02*
X14923992Y-11355592D01*
X7877500Y-11712680D02*
X7877500Y-11912680D01*
X7777500Y-11812680D02*
X7977500Y-11812680D01*
X8219229Y-11704164D02*
X8343039Y-11704164D01*
X8343039Y-11704164D02*
X8276372Y-11780354D01*
X8276372Y-11780354D02*
X8304943Y-11780354D01*
X8304943Y-11780354D02*
X8323991Y-11789878D01*
X8323991Y-11789878D02*
X8333515Y-11799402D01*
X8333515Y-11799402D02*
X8343039Y-11818449D01*
X8343039Y-11818449D02*
X8343039Y-11866068D01*
X8343039Y-11866068D02*
X8333515Y-11885116D01*
X8333515Y-11885116D02*
X8323991Y-11894640D01*
X8323991Y-11894640D02*
X8304943Y-11904164D01*
X8304943Y-11904164D02*
X8247801Y-11904164D01*
X8247801Y-11904164D02*
X8228753Y-11894640D01*
X8228753Y-11894640D02*
X8219229Y-11885116D01*
X8428753Y-11885116D02*
X8438277Y-11894640D01*
X8438277Y-11894640D02*
X8428753Y-11904164D01*
X8428753Y-11904164D02*
X8419229Y-11894640D01*
X8419229Y-11894640D02*
X8428753Y-11885116D01*
X8428753Y-11885116D02*
X8428753Y-11904164D01*
X8533515Y-11904164D02*
X8571610Y-11904164D01*
X8571610Y-11904164D02*
X8590658Y-11894640D01*
X8590658Y-11894640D02*
X8600182Y-11885116D01*
X8600182Y-11885116D02*
X8619229Y-11856545D01*
X8619229Y-11856545D02*
X8628753Y-11818449D01*
X8628753Y-11818449D02*
X8628753Y-11742259D01*
X8628753Y-11742259D02*
X8619229Y-11723211D01*
X8619229Y-11723211D02*
X8609705Y-11713688D01*
X8609705Y-11713688D02*
X8590658Y-11704164D01*
X8590658Y-11704164D02*
X8552563Y-11704164D01*
X8552563Y-11704164D02*
X8533515Y-11713688D01*
X8533515Y-11713688D02*
X8523991Y-11723211D01*
X8523991Y-11723211D02*
X8514467Y-11742259D01*
X8514467Y-11742259D02*
X8514467Y-11789878D01*
X8514467Y-11789878D02*
X8523991Y-11808926D01*
X8523991Y-11808926D02*
X8533515Y-11818449D01*
X8533515Y-11818449D02*
X8552563Y-11827973D01*
X8552563Y-11827973D02*
X8590658Y-11827973D01*
X8590658Y-11827973D02*
X8609705Y-11818449D01*
X8609705Y-11818449D02*
X8619229Y-11808926D01*
X8619229Y-11808926D02*
X8628753Y-11789878D01*
X8743039Y-11789878D02*
X8723991Y-11780354D01*
X8723991Y-11780354D02*
X8714467Y-11770830D01*
X8714467Y-11770830D02*
X8704944Y-11751783D01*
X8704944Y-11751783D02*
X8704944Y-11742259D01*
X8704944Y-11742259D02*
X8714467Y-11723211D01*
X8714467Y-11723211D02*
X8723991Y-11713688D01*
X8723991Y-11713688D02*
X8743039Y-11704164D01*
X8743039Y-11704164D02*
X8781134Y-11704164D01*
X8781134Y-11704164D02*
X8800182Y-11713688D01*
X8800182Y-11713688D02*
X8809705Y-11723211D01*
X8809705Y-11723211D02*
X8819229Y-11742259D01*
X8819229Y-11742259D02*
X8819229Y-11751783D01*
X8819229Y-11751783D02*
X8809705Y-11770830D01*
X8809705Y-11770830D02*
X8800182Y-11780354D01*
X8800182Y-11780354D02*
X8781134Y-11789878D01*
X8781134Y-11789878D02*
X8743039Y-11789878D01*
X8743039Y-11789878D02*
X8723991Y-11799402D01*
X8723991Y-11799402D02*
X8714467Y-11808926D01*
X8714467Y-11808926D02*
X8704944Y-11827973D01*
X8704944Y-11827973D02*
X8704944Y-11866068D01*
X8704944Y-11866068D02*
X8714467Y-11885116D01*
X8714467Y-11885116D02*
X8723991Y-11894640D01*
X8723991Y-11894640D02*
X8743039Y-11904164D01*
X8743039Y-11904164D02*
X8781134Y-11904164D01*
X8781134Y-11904164D02*
X8800182Y-11894640D01*
X8800182Y-11894640D02*
X8809705Y-11885116D01*
X8809705Y-11885116D02*
X8819229Y-11866068D01*
X8819229Y-11866068D02*
X8819229Y-11827973D01*
X8819229Y-11827973D02*
X8809705Y-11808926D01*
X8809705Y-11808926D02*
X8800182Y-11799402D01*
X8800182Y-11799402D02*
X8781134Y-11789878D01*
X8933515Y-11789878D02*
X8914467Y-11780354D01*
X8914467Y-11780354D02*
X8904944Y-11770830D01*
X8904944Y-11770830D02*
X8895420Y-11751783D01*
X8895420Y-11751783D02*
X8895420Y-11742259D01*
X8895420Y-11742259D02*
X8904944Y-11723211D01*
X8904944Y-11723211D02*
X8914467Y-11713688D01*
X8914467Y-11713688D02*
X8933515Y-11704164D01*
X8933515Y-11704164D02*
X8971610Y-11704164D01*
X8971610Y-11704164D02*
X8990658Y-11713688D01*
X8990658Y-11713688D02*
X9000182Y-11723211D01*
X9000182Y-11723211D02*
X9009705Y-11742259D01*
X9009705Y-11742259D02*
X9009705Y-11751783D01*
X9009705Y-11751783D02*
X9000182Y-11770830D01*
X9000182Y-11770830D02*
X8990658Y-11780354D01*
X8990658Y-11780354D02*
X8971610Y-11789878D01*
X8971610Y-11789878D02*
X8933515Y-11789878D01*
X8933515Y-11789878D02*
X8914467Y-11799402D01*
X8914467Y-11799402D02*
X8904944Y-11808926D01*
X8904944Y-11808926D02*
X8895420Y-11827973D01*
X8895420Y-11827973D02*
X8895420Y-11866068D01*
X8895420Y-11866068D02*
X8904944Y-11885116D01*
X8904944Y-11885116D02*
X8914467Y-11894640D01*
X8914467Y-11894640D02*
X8933515Y-11904164D01*
X8933515Y-11904164D02*
X8971610Y-11904164D01*
X8971610Y-11904164D02*
X8990658Y-11894640D01*
X8990658Y-11894640D02*
X9000182Y-11885116D01*
X9000182Y-11885116D02*
X9009705Y-11866068D01*
X9009705Y-11866068D02*
X9009705Y-11827973D01*
X9009705Y-11827973D02*
X9000182Y-11808926D01*
X9000182Y-11808926D02*
X8990658Y-11799402D01*
X8990658Y-11799402D02*
X8971610Y-11789878D01*
X9095420Y-11904164D02*
X9095420Y-11770830D01*
X9095420Y-11789878D02*
X9104944Y-11780354D01*
X9104944Y-11780354D02*
X9123991Y-11770830D01*
X9123991Y-11770830D02*
X9152563Y-11770830D01*
X9152563Y-11770830D02*
X9171610Y-11780354D01*
X9171610Y-11780354D02*
X9181134Y-11799402D01*
X9181134Y-11799402D02*
X9181134Y-11904164D01*
X9181134Y-11799402D02*
X9190658Y-11780354D01*
X9190658Y-11780354D02*
X9209705Y-11770830D01*
X9209705Y-11770830D02*
X9238277Y-11770830D01*
X9238277Y-11770830D02*
X9257325Y-11780354D01*
X9257325Y-11780354D02*
X9266848Y-11799402D01*
X9266848Y-11799402D02*
X9266848Y-11904164D01*
X9362086Y-11904164D02*
X9362086Y-11770830D01*
X9362086Y-11789878D02*
X9371610Y-11780354D01*
X9371610Y-11780354D02*
X9390658Y-11770830D01*
X9390658Y-11770830D02*
X9419229Y-11770830D01*
X9419229Y-11770830D02*
X9438277Y-11780354D01*
X9438277Y-11780354D02*
X9447801Y-11799402D01*
X9447801Y-11799402D02*
X9447801Y-11904164D01*
X9447801Y-11799402D02*
X9457325Y-11780354D01*
X9457325Y-11780354D02*
X9476372Y-11770830D01*
X9476372Y-11770830D02*
X9504944Y-11770830D01*
X9504944Y-11770830D02*
X9523991Y-11780354D01*
X9523991Y-11780354D02*
X9533515Y-11799402D01*
X9533515Y-11799402D02*
X9533515Y-11904164D01*
X9923991Y-11694640D02*
X9752563Y-11951783D01*
X10181134Y-11704164D02*
X10200182Y-11704164D01*
X10200182Y-11704164D02*
X10219229Y-11713688D01*
X10219229Y-11713688D02*
X10228753Y-11723211D01*
X10228753Y-11723211D02*
X10238277Y-11742259D01*
X10238277Y-11742259D02*
X10247801Y-11780354D01*
X10247801Y-11780354D02*
X10247801Y-11827973D01*
X10247801Y-11827973D02*
X10238277Y-11866068D01*
X10238277Y-11866068D02*
X10228753Y-11885116D01*
X10228753Y-11885116D02*
X10219229Y-11894640D01*
X10219229Y-11894640D02*
X10200182Y-11904164D01*
X10200182Y-11904164D02*
X10181134Y-11904164D01*
X10181134Y-11904164D02*
X10162087Y-11894640D01*
X10162087Y-11894640D02*
X10152563Y-11885116D01*
X10152563Y-11885116D02*
X10143039Y-11866068D01*
X10143039Y-11866068D02*
X10133515Y-11827973D01*
X10133515Y-11827973D02*
X10133515Y-11780354D01*
X10133515Y-11780354D02*
X10143039Y-11742259D01*
X10143039Y-11742259D02*
X10152563Y-11723211D01*
X10152563Y-11723211D02*
X10162087Y-11713688D01*
X10162087Y-11713688D02*
X10181134Y-11704164D01*
X10333515Y-11885116D02*
X10343039Y-11894640D01*
X10343039Y-11894640D02*
X10333515Y-11904164D01*
X10333515Y-11904164D02*
X10323991Y-11894640D01*
X10323991Y-11894640D02*
X10333515Y-11885116D01*
X10333515Y-11885116D02*
X10333515Y-11904164D01*
X10533515Y-11904164D02*
X10419229Y-11904164D01*
X10476372Y-11904164D02*
X10476372Y-11704164D01*
X10476372Y-11704164D02*
X10457325Y-11732735D01*
X10457325Y-11732735D02*
X10438277Y-11751783D01*
X10438277Y-11751783D02*
X10419229Y-11761307D01*
X10714468Y-11704164D02*
X10619229Y-11704164D01*
X10619229Y-11704164D02*
X10609706Y-11799402D01*
X10609706Y-11799402D02*
X10619229Y-11789878D01*
X10619229Y-11789878D02*
X10638277Y-11780354D01*
X10638277Y-11780354D02*
X10685896Y-11780354D01*
X10685896Y-11780354D02*
X10704944Y-11789878D01*
X10704944Y-11789878D02*
X10714468Y-11799402D01*
X10714468Y-11799402D02*
X10723991Y-11818449D01*
X10723991Y-11818449D02*
X10723991Y-11866068D01*
X10723991Y-11866068D02*
X10714468Y-11885116D01*
X10714468Y-11885116D02*
X10704944Y-11894640D01*
X10704944Y-11894640D02*
X10685896Y-11904164D01*
X10685896Y-11904164D02*
X10638277Y-11904164D01*
X10638277Y-11904164D02*
X10619229Y-11894640D01*
X10619229Y-11894640D02*
X10609706Y-11885116D01*
X10790658Y-11704164D02*
X10923991Y-11704164D01*
X10923991Y-11704164D02*
X10838277Y-11904164D01*
X11038277Y-11704164D02*
X11057325Y-11704164D01*
X11057325Y-11704164D02*
X11076372Y-11713688D01*
X11076372Y-11713688D02*
X11085896Y-11723211D01*
X11085896Y-11723211D02*
X11095420Y-11742259D01*
X11095420Y-11742259D02*
X11104944Y-11780354D01*
X11104944Y-11780354D02*
X11104944Y-11827973D01*
X11104944Y-11827973D02*
X11095420Y-11866068D01*
X11095420Y-11866068D02*
X11085896Y-11885116D01*
X11085896Y-11885116D02*
X11076372Y-11894640D01*
X11076372Y-11894640D02*
X11057325Y-11904164D01*
X11057325Y-11904164D02*
X11038277Y-11904164D01*
X11038277Y-11904164D02*
X11019229Y-11894640D01*
X11019229Y-11894640D02*
X11009706Y-11885116D01*
X11009706Y-11885116D02*
X11000182Y-11866068D01*
X11000182Y-11866068D02*
X10990658Y-11827973D01*
X10990658Y-11827973D02*
X10990658Y-11780354D01*
X10990658Y-11780354D02*
X11000182Y-11742259D01*
X11000182Y-11742259D02*
X11009706Y-11723211D01*
X11009706Y-11723211D02*
X11019229Y-11713688D01*
X11019229Y-11713688D02*
X11038277Y-11704164D01*
X11181134Y-11704164D02*
X11181134Y-11742259D01*
X11257325Y-11704164D02*
X11257325Y-11742259D01*
X11552563Y-11980354D02*
X11543039Y-11970830D01*
X11543039Y-11970830D02*
X11523991Y-11942259D01*
X11523991Y-11942259D02*
X11514468Y-11923211D01*
X11514468Y-11923211D02*
X11504944Y-11894640D01*
X11504944Y-11894640D02*
X11495420Y-11847021D01*
X11495420Y-11847021D02*
X11495420Y-11808926D01*
X11495420Y-11808926D02*
X11504944Y-11761307D01*
X11504944Y-11761307D02*
X11514468Y-11732735D01*
X11514468Y-11732735D02*
X11523991Y-11713688D01*
X11523991Y-11713688D02*
X11543039Y-11685116D01*
X11543039Y-11685116D02*
X11552563Y-11675592D01*
X11733515Y-11904164D02*
X11619229Y-11904164D01*
X11676372Y-11904164D02*
X11676372Y-11704164D01*
X11676372Y-11704164D02*
X11657325Y-11732735D01*
X11657325Y-11732735D02*
X11638277Y-11751783D01*
X11638277Y-11751783D02*
X11619229Y-11761307D01*
X11914468Y-11704164D02*
X11819229Y-11704164D01*
X11819229Y-11704164D02*
X11809706Y-11799402D01*
X11809706Y-11799402D02*
X11819229Y-11789878D01*
X11819229Y-11789878D02*
X11838277Y-11780354D01*
X11838277Y-11780354D02*
X11885896Y-11780354D01*
X11885896Y-11780354D02*
X11904944Y-11789878D01*
X11904944Y-11789878D02*
X11914468Y-11799402D01*
X11914468Y-11799402D02*
X11923991Y-11818449D01*
X11923991Y-11818449D02*
X11923991Y-11866068D01*
X11923991Y-11866068D02*
X11914468Y-11885116D01*
X11914468Y-11885116D02*
X11904944Y-11894640D01*
X11904944Y-11894640D02*
X11885896Y-11904164D01*
X11885896Y-11904164D02*
X11838277Y-11904164D01*
X11838277Y-11904164D02*
X11819229Y-11894640D01*
X11819229Y-11894640D02*
X11809706Y-11885116D01*
X12162087Y-11904164D02*
X12162087Y-11704164D01*
X12247801Y-11904164D02*
X12247801Y-11799402D01*
X12247801Y-11799402D02*
X12238277Y-11780354D01*
X12238277Y-11780354D02*
X12219230Y-11770830D01*
X12219230Y-11770830D02*
X12190658Y-11770830D01*
X12190658Y-11770830D02*
X12171610Y-11780354D01*
X12171610Y-11780354D02*
X12162087Y-11789878D01*
X12371610Y-11904164D02*
X12352563Y-11894640D01*
X12352563Y-11894640D02*
X12343039Y-11885116D01*
X12343039Y-11885116D02*
X12333515Y-11866068D01*
X12333515Y-11866068D02*
X12333515Y-11808926D01*
X12333515Y-11808926D02*
X12343039Y-11789878D01*
X12343039Y-11789878D02*
X12352563Y-11780354D01*
X12352563Y-11780354D02*
X12371610Y-11770830D01*
X12371610Y-11770830D02*
X12400182Y-11770830D01*
X12400182Y-11770830D02*
X12419230Y-11780354D01*
X12419230Y-11780354D02*
X12428753Y-11789878D01*
X12428753Y-11789878D02*
X12438277Y-11808926D01*
X12438277Y-11808926D02*
X12438277Y-11866068D01*
X12438277Y-11866068D02*
X12428753Y-11885116D01*
X12428753Y-11885116D02*
X12419230Y-11894640D01*
X12419230Y-11894640D02*
X12400182Y-11904164D01*
X12400182Y-11904164D02*
X12371610Y-11904164D01*
X12552563Y-11904164D02*
X12533515Y-11894640D01*
X12533515Y-11894640D02*
X12523991Y-11875592D01*
X12523991Y-11875592D02*
X12523991Y-11704164D01*
X12704944Y-11894640D02*
X12685896Y-11904164D01*
X12685896Y-11904164D02*
X12647801Y-11904164D01*
X12647801Y-11904164D02*
X12628753Y-11894640D01*
X12628753Y-11894640D02*
X12619230Y-11875592D01*
X12619230Y-11875592D02*
X12619230Y-11799402D01*
X12619230Y-11799402D02*
X12628753Y-11780354D01*
X12628753Y-11780354D02*
X12647801Y-11770830D01*
X12647801Y-11770830D02*
X12685896Y-11770830D01*
X12685896Y-11770830D02*
X12704944Y-11780354D01*
X12704944Y-11780354D02*
X12714468Y-11799402D01*
X12714468Y-11799402D02*
X12714468Y-11818449D01*
X12714468Y-11818449D02*
X12619230Y-11837497D01*
X12790658Y-11894640D02*
X12809706Y-11904164D01*
X12809706Y-11904164D02*
X12847801Y-11904164D01*
X12847801Y-11904164D02*
X12866849Y-11894640D01*
X12866849Y-11894640D02*
X12876372Y-11875592D01*
X12876372Y-11875592D02*
X12876372Y-11866068D01*
X12876372Y-11866068D02*
X12866849Y-11847021D01*
X12866849Y-11847021D02*
X12847801Y-11837497D01*
X12847801Y-11837497D02*
X12819230Y-11837497D01*
X12819230Y-11837497D02*
X12800182Y-11827973D01*
X12800182Y-11827973D02*
X12790658Y-11808926D01*
X12790658Y-11808926D02*
X12790658Y-11799402D01*
X12790658Y-11799402D02*
X12800182Y-11780354D01*
X12800182Y-11780354D02*
X12819230Y-11770830D01*
X12819230Y-11770830D02*
X12847801Y-11770830D01*
X12847801Y-11770830D02*
X12866849Y-11780354D01*
X12943039Y-11980354D02*
X12952563Y-11970830D01*
X12952563Y-11970830D02*
X12971611Y-11942259D01*
X12971611Y-11942259D02*
X12981134Y-11923211D01*
X12981134Y-11923211D02*
X12990658Y-11894640D01*
X12990658Y-11894640D02*
X13000182Y-11847021D01*
X13000182Y-11847021D02*
X13000182Y-11808926D01*
X13000182Y-11808926D02*
X12990658Y-11761307D01*
X12990658Y-11761307D02*
X12981134Y-11732735D01*
X12981134Y-11732735D02*
X12971611Y-11713688D01*
X12971611Y-11713688D02*
X12952563Y-11685116D01*
X12952563Y-11685116D02*
X12943039Y-11675592D01*
X13304944Y-11980354D02*
X13295420Y-11970830D01*
X13295420Y-11970830D02*
X13276372Y-11942259D01*
X13276372Y-11942259D02*
X13266849Y-11923211D01*
X13266849Y-11923211D02*
X13257325Y-11894640D01*
X13257325Y-11894640D02*
X13247801Y-11847021D01*
X13247801Y-11847021D02*
X13247801Y-11808926D01*
X13247801Y-11808926D02*
X13257325Y-11761307D01*
X13257325Y-11761307D02*
X13266849Y-11732735D01*
X13266849Y-11732735D02*
X13276372Y-11713688D01*
X13276372Y-11713688D02*
X13295420Y-11685116D01*
X13295420Y-11685116D02*
X13304944Y-11675592D01*
X13381134Y-11770830D02*
X13381134Y-11904164D01*
X13381134Y-11789878D02*
X13390658Y-11780354D01*
X13390658Y-11780354D02*
X13409706Y-11770830D01*
X13409706Y-11770830D02*
X13438277Y-11770830D01*
X13438277Y-11770830D02*
X13457325Y-11780354D01*
X13457325Y-11780354D02*
X13466849Y-11799402D01*
X13466849Y-11799402D02*
X13466849Y-11904164D01*
X13590658Y-11904164D02*
X13571611Y-11894640D01*
X13571611Y-11894640D02*
X13562087Y-11885116D01*
X13562087Y-11885116D02*
X13552563Y-11866068D01*
X13552563Y-11866068D02*
X13552563Y-11808926D01*
X13552563Y-11808926D02*
X13562087Y-11789878D01*
X13562087Y-11789878D02*
X13571611Y-11780354D01*
X13571611Y-11780354D02*
X13590658Y-11770830D01*
X13590658Y-11770830D02*
X13619230Y-11770830D01*
X13619230Y-11770830D02*
X13638277Y-11780354D01*
X13638277Y-11780354D02*
X13647801Y-11789878D01*
X13647801Y-11789878D02*
X13657325Y-11808926D01*
X13657325Y-11808926D02*
X13657325Y-11866068D01*
X13657325Y-11866068D02*
X13647801Y-11885116D01*
X13647801Y-11885116D02*
X13638277Y-11894640D01*
X13638277Y-11894640D02*
X13619230Y-11904164D01*
X13619230Y-11904164D02*
X13590658Y-11904164D01*
X13714468Y-11770830D02*
X13790658Y-11770830D01*
X13743039Y-11704164D02*
X13743039Y-11875592D01*
X13743039Y-11875592D02*
X13752563Y-11894640D01*
X13752563Y-11894640D02*
X13771611Y-11904164D01*
X13771611Y-11904164D02*
X13790658Y-11904164D01*
X14009706Y-11770830D02*
X14009706Y-11970830D01*
X14009706Y-11780354D02*
X14028753Y-11770830D01*
X14028753Y-11770830D02*
X14066849Y-11770830D01*
X14066849Y-11770830D02*
X14085896Y-11780354D01*
X14085896Y-11780354D02*
X14095420Y-11789878D01*
X14095420Y-11789878D02*
X14104944Y-11808926D01*
X14104944Y-11808926D02*
X14104944Y-11866068D01*
X14104944Y-11866068D02*
X14095420Y-11885116D01*
X14095420Y-11885116D02*
X14085896Y-11894640D01*
X14085896Y-11894640D02*
X14066849Y-11904164D01*
X14066849Y-11904164D02*
X14028753Y-11904164D01*
X14028753Y-11904164D02*
X14009706Y-11894640D01*
X14219230Y-11904164D02*
X14200182Y-11894640D01*
X14200182Y-11894640D02*
X14190658Y-11875592D01*
X14190658Y-11875592D02*
X14190658Y-11704164D01*
X14381134Y-11904164D02*
X14381134Y-11799402D01*
X14381134Y-11799402D02*
X14371611Y-11780354D01*
X14371611Y-11780354D02*
X14352563Y-11770830D01*
X14352563Y-11770830D02*
X14314468Y-11770830D01*
X14314468Y-11770830D02*
X14295420Y-11780354D01*
X14381134Y-11894640D02*
X14362087Y-11904164D01*
X14362087Y-11904164D02*
X14314468Y-11904164D01*
X14314468Y-11904164D02*
X14295420Y-11894640D01*
X14295420Y-11894640D02*
X14285896Y-11875592D01*
X14285896Y-11875592D02*
X14285896Y-11856545D01*
X14285896Y-11856545D02*
X14295420Y-11837497D01*
X14295420Y-11837497D02*
X14314468Y-11827973D01*
X14314468Y-11827973D02*
X14362087Y-11827973D01*
X14362087Y-11827973D02*
X14381134Y-11818449D01*
X14447801Y-11770830D02*
X14523992Y-11770830D01*
X14476373Y-11704164D02*
X14476373Y-11875592D01*
X14476373Y-11875592D02*
X14485896Y-11894640D01*
X14485896Y-11894640D02*
X14504944Y-11904164D01*
X14504944Y-11904164D02*
X14523992Y-11904164D01*
X14666849Y-11894640D02*
X14647801Y-11904164D01*
X14647801Y-11904164D02*
X14609706Y-11904164D01*
X14609706Y-11904164D02*
X14590658Y-11894640D01*
X14590658Y-11894640D02*
X14581134Y-11875592D01*
X14581134Y-11875592D02*
X14581134Y-11799402D01*
X14581134Y-11799402D02*
X14590658Y-11780354D01*
X14590658Y-11780354D02*
X14609706Y-11770830D01*
X14609706Y-11770830D02*
X14647801Y-11770830D01*
X14647801Y-11770830D02*
X14666849Y-11780354D01*
X14666849Y-11780354D02*
X14676373Y-11799402D01*
X14676373Y-11799402D02*
X14676373Y-11818449D01*
X14676373Y-11818449D02*
X14581134Y-11837497D01*
X14847801Y-11904164D02*
X14847801Y-11704164D01*
X14847801Y-11894640D02*
X14828754Y-11904164D01*
X14828754Y-11904164D02*
X14790658Y-11904164D01*
X14790658Y-11904164D02*
X14771611Y-11894640D01*
X14771611Y-11894640D02*
X14762087Y-11885116D01*
X14762087Y-11885116D02*
X14752563Y-11866068D01*
X14752563Y-11866068D02*
X14752563Y-11808926D01*
X14752563Y-11808926D02*
X14762087Y-11789878D01*
X14762087Y-11789878D02*
X14771611Y-11780354D01*
X14771611Y-11780354D02*
X14790658Y-11770830D01*
X14790658Y-11770830D02*
X14828754Y-11770830D01*
X14828754Y-11770830D02*
X14847801Y-11780354D01*
X14923992Y-11980354D02*
X14933515Y-11970830D01*
X14933515Y-11970830D02*
X14952563Y-11942259D01*
X14952563Y-11942259D02*
X14962087Y-11923211D01*
X14962087Y-11923211D02*
X14971611Y-11894640D01*
X14971611Y-11894640D02*
X14981134Y-11847021D01*
X14981134Y-11847021D02*
X14981134Y-11808926D01*
X14981134Y-11808926D02*
X14971611Y-11761307D01*
X14971611Y-11761307D02*
X14962087Y-11732735D01*
X14962087Y-11732735D02*
X14952563Y-11713688D01*
X14952563Y-11713688D02*
X14933515Y-11685116D01*
X14933515Y-11685116D02*
X14923992Y-11675592D01*
M02*
