M48
; DRILL file {KiCad 9.0.1} date 2025-04-27T05:08:37+0200
; FORMAT={-:-/ absolute / metric / decimal}
; #@! TF.CreationDate,2025-04-27T05:08:37+02:00
; #@! TF.GenerationSoftware,Kicad,Pcbnew,9.0.1
; #@! TF.FileFunction,Plated,1,2,PTH
FMAT,2
METRIC
; #@! TA.AperFunction,Plated,PTH,ViaDrill
T1C0.400
; #@! TA.AperFunction,Plated,PTH,ComponentDrill
T2C0.800
; #@! TA.AperFunction,Plated,PTH,ComponentDrill
T3C1.000
; #@! TA.AperFunction,Plated,PTH,ComponentDrill
T4C2.000
%
G90
G05
T1
X90.95Y-39.1
X93.1Y-88.0
X93.25Y-98.95
X98.2Y-50.55
X98.35Y-68.6
X99.0Y-99.4
X99.5Y-44.8
X108.95Y-39.3
X112.15Y-88.05
X113.95Y-102.25
X116.9Y-68.9
X117.2Y-50.55
X118.5Y-44.8
X119.3Y-99.2
X129.2Y-39.25
X131.1Y-87.85
X131.15Y-102.6
X135.8Y-69.1
X136.2Y-50.4
X136.7Y-99.2
X137.5Y-44.8
X150.1Y-87.85
X151.85Y-39.25
X155.05Y-69.2
X155.2Y-50.45
X156.1Y-99.2
X156.5Y-44.8
X157.9Y-102.65
X169.5Y-99.2
X173.4Y-38.5
X177.9Y-87.7
X179.1Y-49.85
T2
X91.89Y-35.65
X92.49Y-59.6
X92.79Y-78.8
X99.51Y-35.65
X100.11Y-59.6
X100.41Y-78.8
X105.38Y-37.1
X111.79Y-59.6
X111.89Y-78.9
X113.0Y-37.1
X119.41Y-59.6
X119.51Y-78.9
X123.98Y-37.1
X130.68Y-59.6
X130.79Y-78.6
X131.6Y-37.1
X138.3Y-59.6
X138.41Y-78.6
X143.18Y-37.2
X149.79Y-59.5
X149.79Y-78.6
X150.8Y-37.2
X157.41Y-59.5
X157.41Y-78.6
X162.38Y-37.3
X163.49Y-78.6
X164.68Y-59.45
X170.0Y-37.3
X171.11Y-78.6
X172.3Y-59.45
T3
X177.9Y-57.86
X177.9Y-60.4
X177.9Y-62.94
X177.9Y-65.48
X177.9Y-68.02
X177.9Y-70.56
X177.9Y-73.1
X177.9Y-75.64
X177.9Y-78.18
T4
X84.3Y-37.0
X84.3Y-101.1
X176.6Y-37.0
X176.65Y-101.1
M30
