G04 #@! TF.GenerationSoftware,KiCad,Pcbnew,9.0.1*
G04 #@! TF.CreationDate,2025-04-27T05:08:37+02:00*
G04 #@! TF.ProjectId,testing-split-kb-3w-guard-pours,74657374-696e-4672-9d73-706c69742d6b,rev?*
G04 #@! TF.SameCoordinates,Original*
G04 #@! TF.FileFunction,Soldermask,Bot*
G04 #@! TF.FilePolarity,Negative*
%FSLAX46Y46*%
G04 Gerber Fmt 4.6, Leading zero omitted, Abs format (unit mm)*
G04 Created by KiCad (PCBNEW 9.0.1) date 2025-04-27 05:08:37*
%MOMM*%
%LPD*%
G01*
G04 APERTURE LIST*
%ADD10C,0.300000*%
%ADD11R,1.600000X1.600000*%
%ADD12O,1.600000X1.600000*%
%ADD13C,4.000000*%
%ADD14C,1.701800*%
%ADD15C,3.000000*%
%ADD16C,3.987800*%
%ADD17R,2.550000X2.500000*%
%ADD18R,1.700000X1.700000*%
%ADD19C,1.700000*%
G04 APERTURE END LIST*
D10*
X99895489Y-103655828D02*
X99895489Y-102155828D01*
X99895489Y-102727257D02*
X99752632Y-102655828D01*
X99752632Y-102655828D02*
X99466917Y-102655828D01*
X99466917Y-102655828D02*
X99324060Y-102727257D01*
X99324060Y-102727257D02*
X99252632Y-102798685D01*
X99252632Y-102798685D02*
X99181203Y-102941542D01*
X99181203Y-102941542D02*
X99181203Y-103370114D01*
X99181203Y-103370114D02*
X99252632Y-103512971D01*
X99252632Y-103512971D02*
X99324060Y-103584400D01*
X99324060Y-103584400D02*
X99466917Y-103655828D01*
X99466917Y-103655828D02*
X99752632Y-103655828D01*
X99752632Y-103655828D02*
X99895489Y-103584400D01*
X98681203Y-102655828D02*
X98324060Y-103655828D01*
X97966917Y-102655828D02*
X98324060Y-103655828D01*
X98324060Y-103655828D02*
X98466917Y-104012971D01*
X98466917Y-104012971D02*
X98538346Y-104084400D01*
X98538346Y-104084400D02*
X98681203Y-104155828D01*
X95609775Y-103655828D02*
X95609775Y-102155828D01*
X95609775Y-103584400D02*
X95752632Y-103655828D01*
X95752632Y-103655828D02*
X96038346Y-103655828D01*
X96038346Y-103655828D02*
X96181203Y-103584400D01*
X96181203Y-103584400D02*
X96252632Y-103512971D01*
X96252632Y-103512971D02*
X96324060Y-103370114D01*
X96324060Y-103370114D02*
X96324060Y-102941542D01*
X96324060Y-102941542D02*
X96252632Y-102798685D01*
X96252632Y-102798685D02*
X96181203Y-102727257D01*
X96181203Y-102727257D02*
X96038346Y-102655828D01*
X96038346Y-102655828D02*
X95752632Y-102655828D01*
X95752632Y-102655828D02*
X95609775Y-102727257D01*
X94324060Y-103584400D02*
X94466917Y-103655828D01*
X94466917Y-103655828D02*
X94752632Y-103655828D01*
X94752632Y-103655828D02*
X94895489Y-103584400D01*
X94895489Y-103584400D02*
X94966917Y-103441542D01*
X94966917Y-103441542D02*
X94966917Y-102870114D01*
X94966917Y-102870114D02*
X94895489Y-102727257D01*
X94895489Y-102727257D02*
X94752632Y-102655828D01*
X94752632Y-102655828D02*
X94466917Y-102655828D01*
X94466917Y-102655828D02*
X94324060Y-102727257D01*
X94324060Y-102727257D02*
X94252632Y-102870114D01*
X94252632Y-102870114D02*
X94252632Y-103012971D01*
X94252632Y-103012971D02*
X94966917Y-103155828D01*
X93752632Y-102655828D02*
X93395489Y-103655828D01*
X93395489Y-103655828D02*
X93038346Y-102655828D01*
X91824061Y-103584400D02*
X91966918Y-103655828D01*
X91966918Y-103655828D02*
X92252632Y-103655828D01*
X92252632Y-103655828D02*
X92395489Y-103584400D01*
X92395489Y-103584400D02*
X92466918Y-103512971D01*
X92466918Y-103512971D02*
X92538346Y-103370114D01*
X92538346Y-103370114D02*
X92538346Y-102941542D01*
X92538346Y-102941542D02*
X92466918Y-102798685D01*
X92466918Y-102798685D02*
X92395489Y-102727257D01*
X92395489Y-102727257D02*
X92252632Y-102655828D01*
X92252632Y-102655828D02*
X91966918Y-102655828D01*
X91966918Y-102655828D02*
X91824061Y-102727257D01*
X90609775Y-103584400D02*
X90752632Y-103655828D01*
X90752632Y-103655828D02*
X91038347Y-103655828D01*
X91038347Y-103655828D02*
X91181204Y-103584400D01*
X91181204Y-103584400D02*
X91252632Y-103441542D01*
X91252632Y-103441542D02*
X91252632Y-102870114D01*
X91252632Y-102870114D02*
X91181204Y-102727257D01*
X91181204Y-102727257D02*
X91038347Y-102655828D01*
X91038347Y-102655828D02*
X90752632Y-102655828D01*
X90752632Y-102655828D02*
X90609775Y-102727257D01*
X90609775Y-102727257D02*
X90538347Y-102870114D01*
X90538347Y-102870114D02*
X90538347Y-103012971D01*
X90538347Y-103012971D02*
X91252632Y-103155828D01*
X90038347Y-103655828D02*
X89252633Y-102655828D01*
X90038347Y-102655828D02*
X89252633Y-103655828D01*
X88824061Y-103655828D02*
X88038347Y-102655828D01*
X88824061Y-102655828D02*
X88038347Y-103655828D01*
D11*
G04 #@! TO.C,D5*
X170000000Y-37300000D03*
D12*
X162380000Y-37300000D03*
G04 #@! TD*
D13*
G04 #@! TO.C,*
X84300000Y-101100000D03*
G04 #@! TD*
D14*
G04 #@! TO.C,SW11*
X84920000Y-88140000D03*
D15*
X86190000Y-85600000D03*
X86190000Y-90680000D03*
D16*
X90000000Y-88140000D03*
D15*
X92540000Y-83060000D03*
X92540000Y-93220000D03*
D14*
X95080000Y-88140000D03*
D17*
X96290000Y-83060000D03*
X82440000Y-85600000D03*
G04 #@! TD*
D14*
G04 #@! TO.C,SW15*
X160920000Y-88140000D03*
D15*
X162190000Y-85600000D03*
X162190000Y-90680000D03*
D16*
X166000000Y-88140000D03*
D15*
X168540000Y-83060000D03*
X168540000Y-93220000D03*
D14*
X171080000Y-88140000D03*
D17*
X172290000Y-83060000D03*
X158440000Y-85600000D03*
G04 #@! TD*
D14*
G04 #@! TO.C,SW1*
X84920000Y-50000000D03*
D15*
X86190000Y-47460000D03*
X86190000Y-52540000D03*
D16*
X90000000Y-50000000D03*
D15*
X92540000Y-44920000D03*
X92540000Y-55080000D03*
D14*
X95080000Y-50000000D03*
D17*
X96290000Y-44920000D03*
X82440000Y-47460000D03*
G04 #@! TD*
D14*
G04 #@! TO.C,SW5*
X160920000Y-50000000D03*
D15*
X162190000Y-47460000D03*
X162190000Y-52540000D03*
D16*
X166000000Y-50000000D03*
D15*
X168540000Y-44920000D03*
X168540000Y-55080000D03*
D14*
X171080000Y-50000000D03*
D17*
X172290000Y-44920000D03*
X158440000Y-47460000D03*
G04 #@! TD*
D14*
G04 #@! TO.C,SW2*
X103920000Y-50000000D03*
D15*
X105190000Y-47460000D03*
X105190000Y-52540000D03*
D16*
X109000000Y-50000000D03*
D15*
X111540000Y-44920000D03*
X111540000Y-55080000D03*
D14*
X114080000Y-50000000D03*
D17*
X115290000Y-44920000D03*
X101440000Y-47460000D03*
G04 #@! TD*
D11*
G04 #@! TO.C,D6*
X100110000Y-59600000D03*
D12*
X92490000Y-59600000D03*
G04 #@! TD*
D11*
G04 #@! TO.C,D7*
X119410000Y-59600000D03*
D12*
X111790000Y-59600000D03*
G04 #@! TD*
D11*
G04 #@! TO.C,D14*
X157410000Y-78600000D03*
D12*
X149790000Y-78600000D03*
G04 #@! TD*
D14*
G04 #@! TO.C,SW9*
X141920000Y-69100000D03*
D15*
X143190000Y-66560000D03*
X143190000Y-71640000D03*
D16*
X147000000Y-69100000D03*
D15*
X149540000Y-64020000D03*
X149540000Y-74180000D03*
D14*
X152080000Y-69100000D03*
D17*
X153290000Y-64020000D03*
X139440000Y-66560000D03*
G04 #@! TD*
D14*
G04 #@! TO.C,SW14*
X141920000Y-88140000D03*
D15*
X143190000Y-85600000D03*
X143190000Y-90680000D03*
D16*
X147000000Y-88140000D03*
D15*
X149540000Y-83060000D03*
X149540000Y-93220000D03*
D14*
X152080000Y-88140000D03*
D17*
X153290000Y-83060000D03*
X139440000Y-85600000D03*
G04 #@! TD*
D11*
G04 #@! TO.C,D4*
X150800000Y-37200000D03*
D12*
X143180000Y-37200000D03*
G04 #@! TD*
D11*
G04 #@! TO.C,D8*
X138300000Y-59600000D03*
D12*
X130680000Y-59600000D03*
G04 #@! TD*
D14*
G04 #@! TO.C,SW4*
X141920000Y-50000000D03*
D15*
X143190000Y-47460000D03*
X143190000Y-52540000D03*
D16*
X147000000Y-50000000D03*
D15*
X149540000Y-44920000D03*
X149540000Y-55080000D03*
D14*
X152080000Y-50000000D03*
D17*
X153290000Y-44920000D03*
X139440000Y-47460000D03*
G04 #@! TD*
D14*
G04 #@! TO.C,SW6*
X84920000Y-69100000D03*
D15*
X86190000Y-66560000D03*
X86190000Y-71640000D03*
D16*
X90000000Y-69100000D03*
D15*
X92540000Y-64020000D03*
X92540000Y-74180000D03*
D14*
X95080000Y-69100000D03*
D17*
X96290000Y-64020000D03*
X82440000Y-66560000D03*
G04 #@! TD*
D11*
G04 #@! TO.C,D9*
X157410000Y-59500000D03*
D12*
X149790000Y-59500000D03*
G04 #@! TD*
D14*
G04 #@! TO.C,SW8*
X122920000Y-69100000D03*
D15*
X124190000Y-66560000D03*
X124190000Y-71640000D03*
D16*
X128000000Y-69100000D03*
D15*
X130540000Y-64020000D03*
X130540000Y-74180000D03*
D14*
X133080000Y-69100000D03*
D17*
X134290000Y-64020000D03*
X120440000Y-66560000D03*
G04 #@! TD*
D14*
G04 #@! TO.C,SW7*
X103920000Y-69100000D03*
D15*
X105190000Y-66560000D03*
X105190000Y-71640000D03*
D16*
X109000000Y-69100000D03*
D15*
X111540000Y-64020000D03*
X111540000Y-74180000D03*
D14*
X114080000Y-69100000D03*
D17*
X115290000Y-64020000D03*
X101440000Y-66560000D03*
G04 #@! TD*
D13*
G04 #@! TO.C,*
X176600000Y-37000000D03*
G04 #@! TD*
D14*
G04 #@! TO.C,SW10*
X160920000Y-69100000D03*
D15*
X162190000Y-66560000D03*
X162190000Y-71640000D03*
D16*
X166000000Y-69100000D03*
D15*
X168540000Y-64020000D03*
X168540000Y-74180000D03*
D14*
X171080000Y-69100000D03*
D17*
X172290000Y-64020000D03*
X158440000Y-66560000D03*
G04 #@! TD*
D13*
G04 #@! TO.C,*
X176650000Y-101100000D03*
G04 #@! TD*
D11*
G04 #@! TO.C,D3*
X131600000Y-37100000D03*
D12*
X123980000Y-37100000D03*
G04 #@! TD*
D11*
G04 #@! TO.C,D12*
X119510000Y-78900000D03*
D12*
X111890000Y-78900000D03*
G04 #@! TD*
D13*
G04 #@! TO.C,*
X84300000Y-37000000D03*
G04 #@! TD*
D18*
G04 #@! TO.C,J1*
X177900000Y-57860000D03*
D19*
X177900000Y-60400000D03*
X177900000Y-62940000D03*
X177900000Y-65480000D03*
X177900000Y-68020000D03*
X177900000Y-70560000D03*
X177900000Y-73100000D03*
X177900000Y-75640000D03*
X177900000Y-78180000D03*
G04 #@! TD*
D14*
G04 #@! TO.C,SW13*
X122920000Y-88140000D03*
D15*
X124190000Y-85600000D03*
X124190000Y-90680000D03*
D16*
X128000000Y-88140000D03*
D15*
X130540000Y-83060000D03*
X130540000Y-93220000D03*
D14*
X133080000Y-88140000D03*
D17*
X134290000Y-83060000D03*
X120440000Y-85600000D03*
G04 #@! TD*
D11*
G04 #@! TO.C,D11*
X100410000Y-78800000D03*
D12*
X92790000Y-78800000D03*
G04 #@! TD*
D11*
G04 #@! TO.C,D1*
X99510000Y-35650000D03*
D12*
X91890000Y-35650000D03*
G04 #@! TD*
D11*
G04 #@! TO.C,D15*
X171110000Y-78600000D03*
D12*
X163490000Y-78600000D03*
G04 #@! TD*
D14*
G04 #@! TO.C,SW12*
X103920000Y-88140000D03*
D15*
X105190000Y-85600000D03*
X105190000Y-90680000D03*
D16*
X109000000Y-88140000D03*
D15*
X111540000Y-83060000D03*
X111540000Y-93220000D03*
D14*
X114080000Y-88140000D03*
D17*
X115290000Y-83060000D03*
X101440000Y-85600000D03*
G04 #@! TD*
D11*
G04 #@! TO.C,D13*
X138410000Y-78600000D03*
D12*
X130790000Y-78600000D03*
G04 #@! TD*
D11*
G04 #@! TO.C,D2*
X113000000Y-37100000D03*
D12*
X105380000Y-37100000D03*
G04 #@! TD*
D11*
G04 #@! TO.C,D10*
X172300000Y-59450000D03*
D12*
X164680000Y-59450000D03*
G04 #@! TD*
D14*
G04 #@! TO.C,SW3*
X122920000Y-50000000D03*
D15*
X124190000Y-47460000D03*
X124190000Y-52540000D03*
D16*
X128000000Y-50000000D03*
D15*
X130540000Y-44920000D03*
X130540000Y-55080000D03*
D14*
X133080000Y-50000000D03*
D17*
X134290000Y-44920000D03*
X120440000Y-47460000D03*
G04 #@! TD*
M02*
